{"glyphs":{"0":{"ha":951,"x_min":47,"x_max":904,"o":"m 476 -19 q 255 40 351 -19 q 103 213 158 100 q 47 486 47 325 q 103 760 47 647 q 255 932 158 872 q 476 992 351 992 q 697 932 600 992 q 849 760 793 872 q 904 486 904 647 q 849 213 904 325 q 697 40 793 100 q 476 -19 600 -19 m 476 206 q 555 233 521 206 q 608 323 589 261 q 628 486 628 385 q 608 650 628 589 q 555 739 589 711 q 476 767 521 767 q 398 739 432 767 q 344 650 364 711 q 324 486 324 589 q 344 323 324 385 q 398 233 364 261 q 476 206 432 206 z "},"1":{"ha":563,"x_min":8,"x_max":464,"o":"m 189 0 l 189 874 l 307 760 l 8 760 l 8 972 l 464 972 l 464 0 l 189 0 z "},"2":{"ha":832,"x_min":-8,"x_max":799,"o":"m 42 0 l 42 172 l 406 513 q 463 576 444 549 q 488 627 482 604 q 494 669 494 650 q 463 743 494 717 q 369 769 432 769 q 271 746 317 769 q 196 675 225 722 l -8 789 q 149 936 46 881 q 394 992 251 992 q 592 956 507 992 q 724 853 676 919 q 772 696 772 786 q 760 602 772 649 q 712 503 747 556 q 607 388 676 451 l 318 121 l 272 218 l 799 218 l 799 0 l 42 0 z "},"3":{"ha":838,"x_min":-6,"x_max":796,"o":"m 372 -19 q 170 6 271 -19 q -6 76 69 31 l 94 283 q 224 224 153 244 q 364 203 296 203 q 476 229 435 203 q 518 304 518 256 q 483 373 518 347 q 369 399 449 399 l 254 399 l 254 572 l 515 854 l 542 760 l 44 760 l 44 972 l 747 972 l 747 800 l 486 518 l 351 594 l 426 594 q 702 513 608 594 q 796 304 796 432 q 751 147 796 221 q 613 27 706 74 q 372 -19 519 -19 z "},"4":{"ha":972,"x_min":38,"x_max":964,"o":"m 38 186 l 38 365 l 474 972 l 758 972 l 335 365 l 204 404 l 964 404 l 964 186 l 38 186 m 551 0 l 551 186 l 560 404 l 560 569 l 819 569 l 819 0 l 551 0 z "},"5":{"ha":843,"x_min":11,"x_max":811,"o":"m 388 -19 q 186 6 288 -19 q 11 76 85 31 l 110 283 q 240 224 169 244 q 379 203 310 203 q 492 230 449 203 q 535 306 535 257 q 518 358 535 335 q 461 392 501 381 q 346 404 421 404 l 82 404 l 131 972 l 750 972 l 750 760 l 228 760 l 368 881 l 336 497 l 196 618 l 411 618 q 643 577 556 618 q 771 467 731 536 q 811 313 811 399 q 766 151 811 226 q 628 28 721 75 q 388 -19 535 -19 z "},"6":{"ha":901,"x_min":47,"x_max":879,"o":"m 497 -19 q 260 35 361 -19 q 103 196 160 89 q 47 460 47 303 q 113 748 47 629 q 295 929 179 867 q 564 992 411 992 q 722 973 646 992 q 850 921 797 954 l 750 724 q 663 763 708 753 q 571 774 618 774 q 391 706 458 774 q 324 507 324 638 q 324 458 324 483 q 329 406 325 432 l 260 463 q 327 549 288 514 q 422 601 367 583 q 544 619 476 619 q 712 581 636 619 q 833 474 788 543 q 879 313 879 406 q 828 137 879 211 q 690 22 776 63 q 497 -19 604 -19 m 481 176 q 549 192 519 176 q 596 235 579 207 q 613 300 613 263 q 576 389 613 356 q 479 422 539 422 q 409 407 439 422 q 362 364 379 392 q 344 299 344 336 q 361 235 344 263 q 408 192 378 208 q 481 176 439 176 z "},"7":{"ha":878,"x_min":32,"x_max":838,"o":"m 194 0 l 574 871 l 647 754 l 154 754 l 267 881 l 267 604 l 32 604 l 32 972 l 838 972 l 838 800 l 494 0 l 194 0 z "},"8":{"ha":929,"x_min":42,"x_max":886,"o":"m 464 -19 q 243 18 338 -19 q 95 124 149 56 q 42 286 42 193 q 95 442 42 378 q 244 541 149 507 q 464 575 339 575 q 684 541 589 575 q 833 442 779 507 q 886 286 886 378 q 833 124 886 193 q 685 18 781 56 q 464 -19 590 -19 m 464 174 q 570 206 531 174 q 610 294 610 238 q 570 383 610 350 q 464 415 531 415 q 358 383 397 415 q 318 294 318 350 q 358 206 318 238 q 464 174 397 174 m 464 439 q 263 471 350 439 q 126 563 176 503 q 76 708 76 624 q 126 858 76 796 q 263 956 175 921 q 464 992 350 992 q 666 956 579 992 q 802 858 753 921 q 851 708 851 796 q 802 563 851 624 q 665 471 753 503 q 464 439 578 439 m 464 594 q 549 622 517 594 q 581 696 581 649 q 548 772 581 746 q 464 799 515 799 q 381 772 413 799 q 349 696 349 746 q 381 622 349 649 q 464 594 413 594 z "},"9":{"ha":901,"x_min":22,"x_max":854,"o":"m 403 992 q 641 938 540 992 q 798 777 742 883 q 854 513 854 671 q 788 224 854 343 q 606 43 722 106 q 336 -19 490 -19 q 181 -1 256 -19 q 51 51 106 18 l 151 249 q 238 209 193 219 q 331 199 283 199 q 510 267 443 199 q 576 465 576 335 q 576 515 576 489 q 572 567 576 540 l 640 510 q 575 424 615 458 q 481 371 535 389 q 357 353 426 353 q 190 391 265 353 q 68 498 114 429 q 22 660 22 567 q 74 835 22 761 q 211 951 125 910 q 403 992 297 992 m 421 796 q 353 781 382 796 q 306 738 324 765 q 289 672 289 711 q 326 583 289 617 q 422 550 363 550 q 493 565 463 550 q 540 608 524 581 q 557 674 557 636 q 540 737 557 710 q 493 780 524 764 q 421 796 463 796 z "},"A":{"ha":1092,"x_min":-19,"x_max":1111,"o":"m -19 0 l 410 972 l 681 972 l 1111 0 l 825 0 l 489 838 l 597 838 l 261 0 l -19 0 m 215 189 l 286 392 l 761 392 l 832 189 l 215 189 z "},"Á":{"ha":1092,"x_min":-19,"x_max":1111,"o":"m -19 0 l 410 972 l 681 972 l 1111 0 l 825 0 l 489 838 l 597 838 l 261 0 l -19 0 m 215 189 l 286 392 l 761 392 l 832 189 l 215 189 z "},"Ă":{"ha":1092,"x_min":-19,"x_max":1111,"o":"m -19 0 l 410 972 l 681 972 l 1111 0 l 825 0 l 489 838 l 597 838 l 261 0 l -19 0 m 215 189 l 286 392 l 761 392 l 832 189 l 215 189 z "},"Ắ":{"ha":1092,"x_min":-19,"x_max":1111,"o":"m -19 0 l 410 972 l 681 972 l 1111 0 l 825 0 l 489 838 l 597 838 l 261 0 l -19 0 m 215 189 l 286 392 l 761 392 l 832 189 l 215 189 z "},"Ặ":{"ha":1092,"x_min":-19,"x_max":1111,"o":"m -19 0 l 410 972 l 681 972 l 1111 0 l 825 0 l 489 838 l 597 838 l 261 0 l -19 0 m 215 189 l 286 392 l 761 392 l 832 189 l 215 189 m 546 -303 q 468 -274 500 -303 q 436 -196 436 -244 q 468 -117 436 -147 q 546 -86 500 -86 q 624 -117 592 -86 q 656 -196 656 -147 q 624 -274 656 -244 q 546 -303 592 -303 z "},"Ằ":{"ha":1092,"x_min":-19,"x_max":1111,"o":"m -19 0 l 410 972 l 681 972 l 1111 0 l 825 0 l 489 838 l 597 838 l 261 0 l -19 0 m 215 189 l 286 392 l 761 392 l 832 189 l 215 189 z "},"Ẳ":{"ha":1092,"x_min":-19,"x_max":1111,"o":"m -19 0 l 410 972 l 681 972 l 1111 0 l 825 0 l 489 838 l 597 838 l 261 0 l -19 0 m 215 189 l 286 392 l 761 392 l 832 189 l 215 189 z "},"Ẵ":{"ha":1092,"x_min":-19,"x_max":1111,"o":"m -19 0 l 410 972 l 681 972 l 1111 0 l 825 0 l 489 838 l 597 838 l 261 0 l -19 0 m 215 189 l 286 392 l 761 392 l 832 189 l 215 189 z "},"Ǎ":{"ha":1092,"x_min":-19,"x_max":1111,"o":"m -19 0 l 410 972 l 681 972 l 1111 0 l 825 0 l 489 838 l 597 838 l 261 0 l -19 0 m 215 189 l 286 392 l 761 392 l 832 189 l 215 189 z "},"Â":{"ha":1092,"x_min":-19,"x_max":1111,"o":"m -19 0 l 410 972 l 681 972 l 1111 0 l 825 0 l 489 838 l 597 838 l 261 0 l -19 0 m 215 189 l 286 392 l 761 392 l 832 189 l 215 189 z "},"Ấ":{"ha":1092,"x_min":-19,"x_max":1136,"o":"m -19 0 l 410 972 l 681 972 l 1111 0 l 825 0 l 489 838 l 597 838 l 261 0 l -19 0 m 215 189 l 286 392 l 761 392 l 832 189 l 215 189 z "},"Ậ":{"ha":1092,"x_min":-19,"x_max":1111,"o":"m -19 0 l 410 972 l 681 972 l 1111 0 l 825 0 l 489 838 l 597 838 l 261 0 l -19 0 m 215 189 l 286 392 l 761 392 l 832 189 l 215 189 m 546 -303 q 468 -274 500 -303 q 436 -196 436 -244 q 468 -117 436 -147 q 546 -86 500 -86 q 624 -117 592 -86 q 656 -196 656 -147 q 624 -274 656 -244 q 546 -303 592 -303 z "},"Ầ":{"ha":1092,"x_min":-19,"x_max":1111,"o":"m -19 0 l 410 972 l 681 972 l 1111 0 l 825 0 l 489 838 l 597 838 l 261 0 l -19 0 m 215 189 l 286 392 l 761 392 l 832 189 l 215 189 z "},"Ẩ":{"ha":1092,"x_min":-19,"x_max":1111,"o":"m -19 0 l 410 972 l 681 972 l 1111 0 l 825 0 l 489 838 l 597 838 l 261 0 l -19 0 m 215 189 l 286 392 l 761 392 l 832 189 l 215 189 z "},"Ẫ":{"ha":1092,"x_min":-19,"x_max":1111,"o":"m -19 0 l 410 972 l 681 972 l 1111 0 l 825 0 l 489 838 l 597 838 l 261 0 l -19 0 m 215 189 l 286 392 l 761 392 l 832 189 l 215 189 z "},"Ȁ":{"ha":1092,"x_min":-19,"x_max":1111,"o":"m -19 0 l 410 972 l 681 972 l 1111 0 l 825 0 l 489 838 l 597 838 l 261 0 l -19 0 m 215 189 l 286 392 l 761 392 l 832 189 l 215 189 z "},"Ä":{"ha":1092,"x_min":-19,"x_max":1111,"o":"m -19 0 l 410 972 l 681 972 l 1111 0 l 825 0 l 489 838 l 597 838 l 261 0 l -19 0 m 215 189 l 286 392 l 761 392 l 832 189 l 215 189 z "},"Ạ":{"ha":1092,"x_min":-19,"x_max":1111,"o":"m -19 0 l 410 972 l 681 972 l 1111 0 l 825 0 l 489 838 l 597 838 l 261 0 l -19 0 m 215 189 l 286 392 l 761 392 l 832 189 l 215 189 m 546 -303 q 468 -274 500 -303 q 436 -196 436 -244 q 468 -117 436 -147 q 546 -86 500 -86 q 624 -117 592 -86 q 656 -196 656 -147 q 624 -274 656 -244 q 546 -303 592 -303 z "},"À":{"ha":1092,"x_min":-19,"x_max":1111,"o":"m -19 0 l 410 972 l 681 972 l 1111 0 l 825 0 l 489 838 l 597 838 l 261 0 l -19 0 m 215 189 l 286 392 l 761 392 l 832 189 l 215 189 z "},"Ả":{"ha":1092,"x_min":-19,"x_max":1111,"o":"m -19 0 l 410 972 l 681 972 l 1111 0 l 825 0 l 489 838 l 597 838 l 261 0 l -19 0 m 215 189 l 286 392 l 761 392 l 832 189 l 215 189 z "},"Ȃ":{"ha":1092,"x_min":-19,"x_max":1111,"o":"m -19 0 l 410 972 l 681 972 l 1111 0 l 825 0 l 489 838 l 597 838 l 261 0 l -19 0 m 215 189 l 286 392 l 761 392 l 832 189 l 215 189 z "},"Ā":{"ha":1092,"x_min":-19,"x_max":1111,"o":"m -19 0 l 410 972 l 681 972 l 1111 0 l 825 0 l 489 838 l 597 838 l 261 0 l -19 0 m 215 189 l 286 392 l 761 392 l 832 189 l 215 189 z "},"Ą":{"ha":1092,"x_min":-19,"x_max":1144,"o":"m -19 0 l 410 972 l 681 972 l 1111 0 l 825 0 l 489 838 l 597 838 l 261 0 l -19 0 m 215 189 l 286 392 l 761 392 l 832 189 l 215 189 m 996 -328 q 844 -283 899 -328 q 790 -165 790 -237 q 815 -75 790 -117 q 890 2 840 -33 q 1013 63 939 38 l 1110 0 q 1016 -50 1051 -26 q 965 -96 981 -74 q 950 -142 950 -118 q 969 -185 950 -168 q 1026 -203 989 -203 q 1072 -197 1050 -203 q 1110 -182 1094 -190 l 1144 -296 q 1078 -319 1118 -310 q 996 -328 1038 -328 z "},"Å":{"ha":1092,"x_min":-19,"x_max":1111,"o":"m -19 0 l 410 972 l 681 972 l 1111 0 l 825 0 l 489 838 l 597 838 l 261 0 l -19 0 m 215 189 l 286 392 l 761 392 l 832 189 l 215 189 m 546 1040 q 453 1064 494 1040 q 387 1128 411 1088 q 363 1217 363 1168 q 387 1306 363 1267 q 453 1370 411 1346 q 546 1394 494 1394 q 640 1370 599 1394 q 705 1306 681 1346 q 729 1217 729 1267 q 705 1128 729 1168 q 639 1064 681 1088 q 546 1040 597 1040 m 546 1138 q 603 1160 581 1138 q 625 1217 625 1182 q 602 1274 625 1251 q 546 1297 579 1297 q 490 1275 513 1297 q 467 1217 467 1253 q 490 1160 467 1182 q 546 1138 513 1138 z "},"Ǻ":{"ha":1092,"x_min":-19,"x_max":1111,"o":"m -19 0 l 410 972 l 681 972 l 1111 0 l 825 0 l 489 838 l 597 838 l 261 0 l -19 0 m 215 189 l 286 392 l 761 392 l 832 189 l 215 189 m 546 1040 q 453 1064 494 1040 q 387 1128 411 1088 q 363 1217 363 1168 q 387 1306 363 1267 q 453 1370 411 1346 q 546 1394 494 1394 q 640 1370 599 1394 q 705 1306 681 1346 q 729 1217 729 1267 q 705 1128 729 1168 q 639 1064 681 1088 q 546 1040 597 1040 m 546 1138 q 603 1160 581 1138 q 625 1217 625 1182 q 602 1274 625 1251 q 546 1297 579 1297 q 490 1275 513 1297 q 467 1217 467 1253 q 490 1160 467 1182 q 546 1138 513 1138 m 682 1288 l 560 1326 l 738 1511 l 867 1414 l 682 1288 z "},"Ã":{"ha":1092,"x_min":-19,"x_max":1111,"o":"m -19 0 l 410 972 l 681 972 l 1111 0 l 825 0 l 489 838 l 597 838 l 261 0 l -19 0 m 215 189 l 286 392 l 761 392 l 832 189 l 215 189 z "},"Æ":{"ha":1526,"x_min":-19,"x_max":1471,"o":"m -19 0 l 511 972 l 785 972 l 785 760 l 551 760 l 717 871 l 261 0 l -19 0 m 289 189 l 290 392 l 785 392 l 785 189 l 289 189 m 943 596 l 1394 596 l 1394 390 l 943 390 l 943 596 m 963 213 l 1471 213 l 1471 0 l 690 0 l 690 972 l 1453 972 l 1453 760 l 963 760 l 963 213 z "},"Ǽ":{"ha":1526,"x_min":-19,"x_max":1471,"o":"m -19 0 l 511 972 l 785 972 l 785 760 l 551 760 l 717 871 l 261 0 l -19 0 m 289 189 l 290 392 l 785 392 l 785 189 l 289 189 m 943 596 l 1394 596 l 1394 390 l 943 390 l 943 596 m 963 213 l 1471 213 l 1471 0 l 690 0 l 690 972 l 1453 972 l 1453 760 l 963 760 l 963 213 z "},"B":{"ha":1068,"x_min":97,"x_max":1022,"o":"m 97 0 l 97 972 l 594 972 q 881 902 786 972 q 975 718 975 832 q 935 587 975 643 q 824 498 896 531 q 654 465 753 465 l 682 532 q 861 501 785 532 q 980 410 938 469 q 1022 267 1022 351 q 920 70 1022 140 q 622 0 818 0 l 97 0 m 369 199 l 600 199 q 708 223 671 199 q 744 297 744 247 q 708 372 744 347 q 600 396 671 396 l 350 396 l 350 586 l 558 586 q 663 610 628 586 q 697 681 697 633 q 663 751 697 728 q 558 774 628 774 l 369 774 l 369 199 z "},"C":{"ha":1025,"x_min":47,"x_max":1000,"o":"m 582 -19 q 369 17 467 -19 q 199 122 271 54 q 88 283 128 190 q 47 486 47 375 q 88 690 47 597 q 199 850 128 782 q 369 955 271 918 q 582 992 467 992 q 823 944 717 992 q 1000 808 929 897 l 825 650 q 722 735 778 706 q 596 764 665 764 q 486 744 536 764 q 401 688 436 725 q 345 600 365 651 q 325 486 325 549 q 345 372 325 424 q 401 284 365 321 q 486 228 436 247 q 596 208 536 208 q 722 238 665 208 q 825 322 778 267 l 1000 164 q 823 28 929 76 q 582 -19 717 -19 z "},"Ć":{"ha":1025,"x_min":47,"x_max":1000,"o":"m 582 -19 q 369 17 467 -19 q 199 122 271 54 q 88 283 128 190 q 47 486 47 375 q 88 690 47 597 q 199 850 128 782 q 369 955 271 918 q 582 992 467 992 q 823 944 717 992 q 1000 808 929 897 l 825 650 q 722 735 778 706 q 596 764 665 764 q 486 744 536 764 q 401 688 436 725 q 345 600 365 651 q 325 486 325 549 q 345 372 325 424 q 401 284 365 321 q 486 228 436 247 q 596 208 536 208 q 722 238 665 208 q 825 322 778 267 l 1000 164 q 823 28 929 76 q 582 -19 717 -19 z "},"Č":{"ha":1025,"x_min":47,"x_max":1000,"o":"m 582 -19 q 369 17 467 -19 q 199 122 271 54 q 88 283 128 190 q 47 486 47 375 q 88 690 47 597 q 199 850 128 782 q 369 955 271 918 q 582 992 467 992 q 823 944 717 992 q 1000 808 929 897 l 825 650 q 722 735 778 706 q 596 764 665 764 q 486 744 536 764 q 401 688 436 725 q 345 600 365 651 q 325 486 325 549 q 345 372 325 424 q 401 284 365 321 q 486 228 436 247 q 596 208 536 208 q 722 238 665 208 q 825 322 778 267 l 1000 164 q 823 28 929 76 q 582 -19 717 -19 z "},"Ç":{"ha":1025,"x_min":47,"x_max":1000,"o":"m 582 -19 q 369 17 467 -19 q 199 122 271 54 q 88 283 128 190 q 47 486 47 375 q 88 690 47 597 q 199 850 128 782 q 369 955 271 918 q 582 992 467 992 q 823 944 717 992 q 1000 808 929 897 l 825 650 q 722 735 778 706 q 596 764 665 764 q 486 744 536 764 q 401 688 436 725 q 345 600 365 651 q 325 486 325 549 q 345 372 325 424 q 401 284 365 321 q 486 228 436 247 q 596 208 536 208 q 722 238 665 208 q 825 322 778 267 l 1000 164 q 823 28 929 76 q 582 -19 717 -19 m 497 -328 q 426 -319 463 -328 q 365 -299 389 -311 l 401 -194 q 441 -208 419 -203 q 488 -214 463 -214 q 541 -203 525 -214 q 557 -175 557 -192 q 542 -149 557 -158 q 494 -140 528 -140 l 443 -140 l 479 13 l 617 13 l 597 -71 q 689 -111 661 -78 q 717 -183 717 -144 q 657 -289 717 -250 q 497 -328 597 -328 z "},"Ḉ":{"ha":1025,"x_min":47,"x_max":1000,"o":"m 582 -19 q 369 17 467 -19 q 199 122 271 54 q 88 283 128 190 q 47 486 47 375 q 88 690 47 597 q 199 850 128 782 q 369 955 271 918 q 582 992 467 992 q 823 944 717 992 q 1000 808 929 897 l 825 650 q 722 735 778 706 q 596 764 665 764 q 486 744 536 764 q 401 688 436 725 q 345 600 365 651 q 325 486 325 549 q 345 372 325 424 q 401 284 365 321 q 486 228 436 247 q 596 208 536 208 q 722 238 665 208 q 825 322 778 267 l 1000 164 q 823 28 929 76 q 582 -19 717 -19 m 497 -328 q 426 -319 463 -328 q 365 -299 389 -311 l 401 -194 q 441 -208 419 -203 q 488 -214 463 -214 q 541 -203 525 -214 q 557 -175 557 -192 q 542 -149 557 -158 q 494 -140 528 -140 l 443 -140 l 479 13 l 617 13 l 597 -71 q 689 -111 661 -78 q 717 -183 717 -144 q 657 -289 717 -250 q 497 -328 597 -328 z "},"Ĉ":{"ha":1025,"x_min":47,"x_max":1000,"o":"m 582 -19 q 369 17 467 -19 q 199 122 271 54 q 88 283 128 190 q 47 486 47 375 q 88 690 47 597 q 199 850 128 782 q 369 955 271 918 q 582 992 467 992 q 823 944 717 992 q 1000 808 929 897 l 825 650 q 722 735 778 706 q 596 764 665 764 q 486 744 536 764 q 401 688 436 725 q 345 600 365 651 q 325 486 325 549 q 345 372 325 424 q 401 284 365 321 q 486 228 436 247 q 596 208 536 208 q 722 238 665 208 q 825 322 778 267 l 1000 164 q 823 28 929 76 q 582 -19 717 -19 z "},"Ċ":{"ha":1025,"x_min":47,"x_max":1000,"o":"m 582 -19 q 369 17 467 -19 q 199 122 271 54 q 88 283 128 190 q 47 486 47 375 q 88 690 47 597 q 199 850 128 782 q 369 955 271 918 q 582 992 467 992 q 823 944 717 992 q 1000 808 929 897 l 825 650 q 722 735 778 706 q 596 764 665 764 q 486 744 536 764 q 401 688 436 725 q 345 600 365 651 q 325 486 325 549 q 345 372 325 424 q 401 284 365 321 q 486 228 436 247 q 596 208 536 208 q 722 238 665 208 q 825 322 778 267 l 1000 164 q 823 28 929 76 q 582 -19 717 -19 z "},"D":{"ha":1147,"x_min":97,"x_max":1100,"o":"m 97 0 l 97 972 l 557 972 q 840 913 718 972 q 1031 744 963 853 q 1100 486 1100 636 q 1031 228 1100 338 q 840 60 963 119 q 557 0 718 0 l 97 0 m 372 219 l 546 219 q 691 251 629 219 q 788 342 753 282 q 822 486 822 403 q 788 631 822 571 q 691 722 753 690 q 546 753 629 753 l 372 753 l 372 219 z "},"Ǆ":{"ha":2007,"x_min":97,"x_max":1986,"o":"m 97 0 l 97 972 l 557 972 q 840 913 718 972 q 1031 744 963 853 q 1100 486 1100 636 q 1031 228 1100 338 q 840 60 963 119 q 557 0 718 0 l 97 0 m 372 219 l 546 219 q 691 251 629 219 q 788 342 753 282 q 822 486 822 403 q 788 631 822 571 q 691 722 753 690 q 546 753 629 753 l 372 753 l 372 219 z "},"Ð":{"ha":1171,"x_min":-6,"x_max":1122,"o":"m 121 0 l 121 972 l 581 972 q 864 913 742 972 q 1055 744 986 853 q 1124 486 1124 636 q 1055 228 1124 338 q 864 60 986 119 q 581 0 742 0 l 121 0 m 396 219 l 569 219 q 715 251 653 219 q 811 342 776 282 q 846 486 846 403 q 811 631 846 571 q 715 722 776 690 q 569 753 653 753 l 396 753 l 396 219 m -4 408 l -4 578 l 621 578 l 621 408 l -4 408 z "},"Ď":{"ha":1147,"x_min":97,"x_max":1100,"o":"m 97 0 l 97 972 l 557 972 q 840 913 718 972 q 1031 744 963 853 q 1100 486 1100 636 q 1031 228 1100 338 q 840 60 963 119 q 557 0 718 0 l 97 0 m 372 219 l 546 219 q 691 251 629 219 q 788 342 753 282 q 822 486 822 403 q 788 631 822 571 q 691 722 753 690 q 546 753 629 753 l 372 753 l 372 219 z "},"Đ":{"ha":1171,"x_min":-6,"x_max":1122,"o":"m 121 0 l 121 972 l 581 972 q 864 913 742 972 q 1055 744 986 853 q 1124 486 1124 636 q 1055 228 1124 338 q 864 60 986 119 q 581 0 742 0 l 121 0 m 396 219 l 569 219 q 715 251 653 219 q 811 342 776 282 q 846 486 846 403 q 811 631 846 571 q 715 722 776 690 q 569 753 653 753 l 396 753 l 396 219 m -4 408 l -4 578 l 621 578 l 621 408 l -4 408 z "},"Ḍ":{"ha":1147,"x_min":97,"x_max":1100,"o":"m 97 0 l 97 972 l 557 972 q 840 913 718 972 q 1031 744 963 853 q 1100 486 1100 636 q 1031 228 1100 338 q 840 60 963 119 q 557 0 718 0 l 97 0 m 372 219 l 546 219 q 691 251 629 219 q 788 342 753 282 q 822 486 822 403 q 788 631 822 571 q 691 722 753 690 q 546 753 629 753 l 372 753 l 372 219 m 510 -303 q 432 -274 464 -303 q 400 -196 400 -244 q 432 -117 400 -147 q 510 -86 464 -86 q 588 -117 556 -86 q 619 -196 619 -147 q 588 -274 619 -244 q 510 -303 556 -303 z "},"Ḏ":{"ha":1147,"x_min":97,"x_max":1100,"o":"m 97 0 l 97 972 l 557 972 q 840 913 718 972 q 1031 744 963 853 q 1100 486 1100 636 q 1031 228 1100 338 q 840 60 963 119 q 557 0 718 0 l 97 0 m 372 219 l 546 219 q 691 251 629 219 q 788 342 753 282 q 822 486 822 403 q 788 631 822 571 q 691 722 753 690 q 546 753 629 753 l 372 753 l 372 219 m 236 -260 l 236 -118 l 783 -118 l 783 -260 l 236 -260 z "},"ǅ":{"ha":1919,"x_min":97,"x_max":1888,"o":"m 97 0 l 97 972 l 557 972 q 840 913 718 972 q 1031 744 963 853 q 1100 486 1100 636 q 1031 228 1100 338 q 840 60 963 119 q 557 0 718 0 l 97 0 m 372 219 l 546 219 q 691 251 629 219 q 788 342 753 282 q 822 486 822 403 q 788 631 822 571 q 691 722 753 690 q 546 753 629 753 l 372 753 l 372 219 z "},"E":{"ha":933,"x_min":97,"x_max":878,"o":"m 350 596 l 801 596 l 801 390 l 350 390 l 350 596 m 369 213 l 878 213 l 878 0 l 97 0 l 97 972 l 860 972 l 860 760 l 369 760 l 369 213 z "},"É":{"ha":933,"x_min":97,"x_max":878,"o":"m 350 596 l 801 596 l 801 390 l 350 390 l 350 596 m 369 213 l 878 213 l 878 0 l 97 0 l 97 972 l 860 972 l 860 760 l 369 760 l 369 213 z "},"Ĕ":{"ha":933,"x_min":97,"x_max":878,"o":"m 350 596 l 801 596 l 801 390 l 350 390 l 350 596 m 369 213 l 878 213 l 878 0 l 97 0 l 97 972 l 860 972 l 860 760 l 369 760 l 369 213 z "},"Ě":{"ha":933,"x_min":97,"x_max":878,"o":"m 350 596 l 801 596 l 801 390 l 350 390 l 350 596 m 369 213 l 878 213 l 878 0 l 97 0 l 97 972 l 860 972 l 860 760 l 369 760 l 369 213 z "},"Ḝ":{"ha":933,"x_min":97,"x_max":878,"o":"m 350 596 l 801 596 l 801 390 l 350 390 l 350 596 m 369 213 l 878 213 l 878 0 l 97 0 l 97 972 l 860 972 l 860 760 l 369 760 l 369 213 m 432 -328 q 360 -319 397 -328 q 300 -299 324 -311 l 336 -194 q 376 -208 354 -203 q 422 -214 397 -214 q 476 -203 460 -214 q 492 -175 492 -192 q 477 -149 492 -158 q 429 -140 463 -140 l 378 -140 l 414 13 l 551 13 l 532 -71 q 624 -111 596 -78 q 651 -183 651 -144 q 592 -289 651 -250 q 432 -328 532 -328 z "},"Ê":{"ha":933,"x_min":97,"x_max":878,"o":"m 350 596 l 801 596 l 801 390 l 350 390 l 350 596 m 369 213 l 878 213 l 878 0 l 97 0 l 97 972 l 860 972 l 860 760 l 369 760 l 369 213 z "},"Ế":{"ha":933,"x_min":97,"x_max":1069,"o":"m 350 596 l 801 596 l 801 390 l 350 390 l 350 596 m 369 213 l 878 213 l 878 0 l 97 0 l 97 972 l 860 972 l 860 760 l 369 760 l 369 213 z "},"Ệ":{"ha":933,"x_min":97,"x_max":878,"o":"m 350 596 l 801 596 l 801 390 l 350 390 l 350 596 m 369 213 l 878 213 l 878 0 l 97 0 l 97 972 l 860 972 l 860 760 l 369 760 l 369 213 m 483 -303 q 406 -274 438 -303 q 374 -196 374 -244 q 406 -117 374 -147 q 483 -86 438 -86 q 561 -117 529 -86 q 593 -196 593 -147 q 561 -274 593 -244 q 483 -303 529 -303 z "},"Ề":{"ha":933,"x_min":97,"x_max":928,"o":"m 350 596 l 801 596 l 801 390 l 350 390 l 350 596 m 369 213 l 878 213 l 878 0 l 97 0 l 97 972 l 860 972 l 860 760 l 369 760 l 369 213 z "},"Ể":{"ha":933,"x_min":97,"x_max":878,"o":"m 350 596 l 801 596 l 801 390 l 350 390 l 350 596 m 369 213 l 878 213 l 878 0 l 97 0 l 97 972 l 860 972 l 860 760 l 369 760 l 369 213 z "},"Ễ":{"ha":933,"x_min":97,"x_max":878,"o":"m 350 596 l 801 596 l 801 390 l 350 390 l 350 596 m 369 213 l 878 213 l 878 0 l 97 0 l 97 972 l 860 972 l 860 760 l 369 760 l 369 213 z "},"Ȅ":{"ha":933,"x_min":97,"x_max":878,"o":"m 350 596 l 801 596 l 801 390 l 350 390 l 350 596 m 369 213 l 878 213 l 878 0 l 97 0 l 97 972 l 860 972 l 860 760 l 369 760 l 369 213 z "},"Ë":{"ha":933,"x_min":97,"x_max":878,"o":"m 350 596 l 801 596 l 801 390 l 350 390 l 350 596 m 369 213 l 878 213 l 878 0 l 97 0 l 97 972 l 860 972 l 860 760 l 369 760 l 369 213 z "},"Ė":{"ha":933,"x_min":97,"x_max":878,"o":"m 350 596 l 801 596 l 801 390 l 350 390 l 350 596 m 369 213 l 878 213 l 878 0 l 97 0 l 97 972 l 860 972 l 860 760 l 369 760 l 369 213 z "},"Ẹ":{"ha":933,"x_min":97,"x_max":878,"o":"m 350 596 l 801 596 l 801 390 l 350 390 l 350 596 m 369 213 l 878 213 l 878 0 l 97 0 l 97 972 l 860 972 l 860 760 l 369 760 l 369 213 m 483 -303 q 406 -274 438 -303 q 374 -196 374 -244 q 406 -117 374 -147 q 483 -86 438 -86 q 561 -117 529 -86 q 593 -196 593 -147 q 561 -274 593 -244 q 483 -303 529 -303 z "},"È":{"ha":933,"x_min":97,"x_max":878,"o":"m 350 596 l 801 596 l 801 390 l 350 390 l 350 596 m 369 213 l 878 213 l 878 0 l 97 0 l 97 972 l 860 972 l 860 760 l 369 760 l 369 213 z "},"Ẻ":{"ha":933,"x_min":97,"x_max":878,"o":"m 350 596 l 801 596 l 801 390 l 350 390 l 350 596 m 369 213 l 878 213 l 878 0 l 97 0 l 97 972 l 860 972 l 860 760 l 369 760 l 369 213 z "},"Ȇ":{"ha":933,"x_min":97,"x_max":878,"o":"m 350 596 l 801 596 l 801 390 l 350 390 l 350 596 m 369 213 l 878 213 l 878 0 l 97 0 l 97 972 l 860 972 l 860 760 l 369 760 l 369 213 z "},"Ē":{"ha":933,"x_min":97,"x_max":878,"o":"m 350 596 l 801 596 l 801 390 l 350 390 l 350 596 m 369 213 l 878 213 l 878 0 l 97 0 l 97 972 l 860 972 l 860 760 l 369 760 l 369 213 z "},"Ḗ":{"ha":933,"x_min":97,"x_max":878,"o":"m 350 596 l 801 596 l 801 390 l 350 390 l 350 596 m 369 213 l 878 213 l 878 0 l 97 0 l 97 972 l 860 972 l 860 760 l 369 760 l 369 213 z "},"Ḕ":{"ha":933,"x_min":97,"x_max":878,"o":"m 350 596 l 801 596 l 801 390 l 350 390 l 350 596 m 369 213 l 878 213 l 878 0 l 97 0 l 97 972 l 860 972 l 860 760 l 369 760 l 369 213 z "},"Ę":{"ha":933,"x_min":97,"x_max":911,"o":"m 350 596 l 801 596 l 801 390 l 350 390 l 350 596 m 369 213 l 878 213 l 878 0 l 97 0 l 97 972 l 860 972 l 860 760 l 369 760 l 369 213 m 764 -328 q 613 -283 667 -328 q 558 -165 558 -237 q 583 -75 558 -117 q 658 2 608 -33 q 781 63 707 38 l 878 0 q 784 -50 819 -26 q 733 -96 749 -74 q 718 -142 718 -118 q 738 -185 718 -168 q 794 -203 757 -203 q 840 -197 818 -203 q 878 -182 863 -190 l 913 -296 q 846 -319 886 -310 q 764 -328 806 -328 z "},"Ẽ":{"ha":933,"x_min":97,"x_max":878,"o":"m 350 596 l 801 596 l 801 390 l 350 390 l 350 596 m 369 213 l 878 213 l 878 0 l 97 0 l 97 972 l 860 972 l 860 760 l 369 760 l 369 213 z "},"Ʒ":{"ha":897,"x_min":29,"x_max":856,"o":"m 417 -19 q 208 6 313 -19 q 29 76 103 31 l 119 282 q 258 222 181 243 q 407 201 335 201 q 531 228 485 201 q 578 304 578 254 q 539 374 578 349 q 414 399 500 399 l 297 399 l 297 572 l 575 854 l 600 760 l 72 760 l 72 972 l 803 972 l 803 800 l 525 518 l 394 593 l 469 593 q 683 556 597 593 q 812 454 768 519 q 856 306 856 389 q 810 147 856 221 q 667 27 764 74 q 417 -19 569 -19 z "},"Ǯ":{"ha":897,"x_min":29,"x_max":856,"o":"m 417 -19 q 208 6 313 -19 q 29 76 103 31 l 119 282 q 258 222 181 243 q 407 201 335 201 q 531 228 485 201 q 578 304 578 254 q 539 374 578 349 q 414 399 500 399 l 297 399 l 297 572 l 575 854 l 600 760 l 72 760 l 72 972 l 803 972 l 803 800 l 525 518 l 394 593 l 469 593 q 683 556 597 593 q 812 454 768 519 q 856 306 856 389 q 810 147 856 221 q 667 27 764 74 q 417 -19 569 -19 z "},"F":{"ha":892,"x_min":97,"x_max":860,"o":"m 353 546 l 801 546 l 801 333 l 353 333 l 353 546 m 372 0 l 97 0 l 97 972 l 860 972 l 860 760 l 372 760 l 372 0 z "},"G":{"ha":1069,"x_min":47,"x_max":1014,"o":"m 583 -19 q 369 17 468 -19 q 199 122 271 54 q 88 283 128 190 q 47 486 47 375 q 88 690 47 597 q 200 850 128 782 q 372 955 272 918 q 589 992 471 992 q 835 946 726 992 q 1014 814 943 900 l 839 656 q 731 737 789 710 q 603 764 674 764 q 489 744 540 764 q 401 688 438 725 q 345 601 365 651 q 325 486 325 550 q 345 374 325 425 q 401 285 365 322 q 488 228 438 249 q 600 208 539 208 q 719 228 661 208 q 838 297 778 249 l 992 104 q 799 13 908 44 q 583 -19 689 -19 m 749 140 l 749 507 l 992 507 l 992 104 l 749 140 z "},"Ğ":{"ha":1069,"x_min":47,"x_max":1014,"o":"m 583 -19 q 369 17 468 -19 q 199 122 271 54 q 88 283 128 190 q 47 486 47 375 q 88 690 47 597 q 200 850 128 782 q 372 955 272 918 q 589 992 471 992 q 835 946 726 992 q 1014 814 943 900 l 839 656 q 731 737 789 710 q 603 764 674 764 q 489 744 540 764 q 401 688 438 725 q 345 601 365 651 q 325 486 325 550 q 345 374 325 425 q 401 285 365 322 q 488 228 438 249 q 600 208 539 208 q 719 228 661 208 q 838 297 778 249 l 992 104 q 799 13 908 44 q 583 -19 689 -19 m 749 140 l 749 507 l 992 507 l 992 104 l 749 140 z "},"Ǧ":{"ha":1069,"x_min":47,"x_max":1014,"o":"m 583 -19 q 369 17 468 -19 q 199 122 271 54 q 88 283 128 190 q 47 486 47 375 q 88 690 47 597 q 200 850 128 782 q 372 955 272 918 q 589 992 471 992 q 835 946 726 992 q 1014 814 943 900 l 839 656 q 731 737 789 710 q 603 764 674 764 q 489 744 540 764 q 401 688 438 725 q 345 601 365 651 q 325 486 325 550 q 345 374 325 425 q 401 285 365 322 q 488 228 438 249 q 600 208 539 208 q 719 228 661 208 q 838 297 778 249 l 992 104 q 799 13 908 44 q 583 -19 689 -19 m 749 140 l 749 507 l 992 507 l 992 104 l 749 140 z "},"Ĝ":{"ha":1069,"x_min":47,"x_max":1014,"o":"m 583 -19 q 369 17 468 -19 q 199 122 271 54 q 88 283 128 190 q 47 486 47 375 q 88 690 47 597 q 200 850 128 782 q 372 955 272 918 q 589 992 471 992 q 835 946 726 992 q 1014 814 943 900 l 839 656 q 731 737 789 710 q 603 764 674 764 q 489 744 540 764 q 401 688 438 725 q 345 601 365 651 q 325 486 325 550 q 345 374 325 425 q 401 285 365 322 q 488 228 438 249 q 600 208 539 208 q 719 228 661 208 q 838 297 778 249 l 992 104 q 799 13 908 44 q 583 -19 689 -19 m 749 140 l 749 507 l 992 507 l 992 104 l 749 140 z "},"Ģ":{"ha":1069,"x_min":47,"x_max":1014,"o":"m 583 -19 q 369 17 468 -19 q 199 122 271 54 q 88 283 128 190 q 47 486 47 375 q 88 690 47 597 q 200 850 128 782 q 372 955 272 918 q 589 992 471 992 q 835 946 726 992 q 1014 814 943 900 l 839 656 q 731 737 789 710 q 603 764 674 764 q 489 744 540 764 q 401 688 438 725 q 345 601 365 651 q 325 486 325 550 q 345 374 325 425 q 401 285 365 322 q 488 228 438 249 q 600 208 539 208 q 719 228 661 208 q 838 297 778 249 l 992 104 q 799 13 908 44 q 583 -19 689 -19 m 749 140 l 749 507 l 992 507 l 992 104 l 749 140 m 476 -372 l 538 -183 l 567 -271 q 485 -246 513 -271 q 457 -179 457 -221 q 486 -112 457 -137 q 567 -86 515 -86 q 647 -112 618 -86 q 676 -179 676 -137 q 671 -222 676 -197 q 647 -279 665 -246 l 596 -372 l 476 -372 z "},"Ġ":{"ha":1069,"x_min":47,"x_max":1014,"o":"m 583 -19 q 369 17 468 -19 q 199 122 271 54 q 88 283 128 190 q 47 486 47 375 q 88 690 47 597 q 200 850 128 782 q 372 955 272 918 q 589 992 471 992 q 835 946 726 992 q 1014 814 943 900 l 839 656 q 731 737 789 710 q 603 764 674 764 q 489 744 540 764 q 401 688 438 725 q 345 601 365 651 q 325 486 325 550 q 345 374 325 425 q 401 285 365 322 q 488 228 438 249 q 600 208 539 208 q 719 228 661 208 q 838 297 778 249 l 992 104 q 799 13 908 44 q 583 -19 689 -19 m 749 140 l 749 507 l 992 507 l 992 104 l 749 140 z "},"Ḡ":{"ha":1069,"x_min":47,"x_max":1014,"o":"m 583 -19 q 369 17 468 -19 q 199 122 271 54 q 88 283 128 190 q 47 486 47 375 q 88 690 47 597 q 200 850 128 782 q 372 955 272 918 q 589 992 471 992 q 835 946 726 992 q 1014 814 943 900 l 839 656 q 731 737 789 710 q 603 764 674 764 q 489 744 540 764 q 401 688 438 725 q 345 601 365 651 q 325 486 325 550 q 345 374 325 425 q 401 285 365 322 q 488 228 438 249 q 600 208 539 208 q 719 228 661 208 q 838 297 778 249 l 992 104 q 799 13 908 44 q 583 -19 689 -19 m 749 140 l 749 507 l 992 507 l 992 104 l 749 140 z "},"Ǥ":{"ha":1131,"x_min":47,"x_max":1107,"o":"m 543 279 l 543 447 l 1107 447 l 1107 279 l 543 279 m 583 -19 q 369 17 468 -19 q 199 122 271 54 q 88 283 128 190 q 47 486 47 375 q 88 690 47 597 q 200 850 128 782 q 372 955 272 918 q 589 992 471 992 q 835 946 726 992 q 1014 814 943 900 l 839 656 q 731 737 789 710 q 603 764 674 764 q 489 744 540 764 q 401 688 438 725 q 345 601 365 651 q 325 486 325 550 q 345 374 325 425 q 401 285 365 322 q 488 228 438 249 q 600 208 539 208 q 719 228 661 208 q 838 297 778 249 l 992 104 q 799 13 908 44 q 583 -19 689 -19 m 749 140 l 749 507 l 992 507 l 992 104 l 749 140 z "},"H":{"ha":1119,"x_min":97,"x_max":1022,"o":"m 747 972 l 1022 972 l 1022 0 l 747 0 l 747 972 m 372 0 l 97 0 l 97 972 l 372 972 l 372 0 m 767 379 l 353 379 l 353 607 l 767 607 l 767 379 z "},"Ħ":{"ha":1165,"x_min":-6,"x_max":1171,"o":"m 771 972 l 1046 972 l 1046 0 l 771 0 l 771 972 m 396 0 l 121 0 l 121 972 l 396 972 l 396 0 m 790 379 l 376 379 l 376 607 l 790 607 l 790 379 m -6 707 l -6 875 l 1171 875 l 1171 707 l -6 707 z "},"Ḫ":{"ha":1119,"x_min":97,"x_max":1022,"o":"m 747 972 l 1022 972 l 1022 0 l 747 0 l 747 972 m 372 0 l 97 0 l 97 972 l 372 972 l 372 0 m 767 379 l 353 379 l 353 607 l 767 607 l 767 379 m 560 -307 q 368 -249 443 -307 q 288 -99 293 -192 l 439 -99 q 476 -161 442 -137 q 560 -185 510 -185 q 644 -161 611 -185 q 681 -99 678 -137 l 832 -99 q 752 -249 828 -192 q 560 -307 676 -307 z "},"Ȟ":{"ha":1119,"x_min":97,"x_max":1022,"o":"m 747 972 l 1022 972 l 1022 0 l 747 0 l 747 972 m 372 0 l 97 0 l 97 972 l 372 972 l 372 0 m 767 379 l 353 379 l 353 607 l 767 607 l 767 379 z "},"Ĥ":{"ha":1119,"x_min":97,"x_max":1022,"o":"m 747 972 l 1022 972 l 1022 0 l 747 0 l 747 972 m 372 0 l 97 0 l 97 972 l 372 972 l 372 0 m 767 379 l 353 379 l 353 607 l 767 607 l 767 379 z "},"Ḥ":{"ha":1119,"x_min":97,"x_max":1022,"o":"m 747 972 l 1022 972 l 1022 0 l 747 0 l 747 972 m 372 0 l 97 0 l 97 972 l 372 972 l 372 0 m 767 379 l 353 379 l 353 607 l 767 607 l 767 379 m 560 -303 q 482 -274 514 -303 q 450 -196 450 -244 q 482 -117 450 -147 q 560 -86 514 -86 q 638 -117 606 -86 q 669 -196 669 -147 q 638 -274 669 -244 q 560 -303 606 -303 z "},"I":{"ha":471,"x_min":97,"x_max":372,"o":"m 97 0 l 97 972 l 372 972 l 372 0 l 97 0 z "},"Ĳ":{"ha":1010,"x_min":65,"x_max":919,"o":"m 456 -19 q 238 11 338 -19 q 65 93 138 42 l 165 293 q 306 227 233 250 q 446 204 379 204 q 595 259 546 204 q 644 429 644 314 l 644 972 l 919 972 l 919 444 q 862 191 919 294 q 699 34 804 88 q 456 -19 594 -19 m 89 457 l 89 972 l 364 972 l 364 457 l 89 457 z "},"Í":{"ha":471,"x_min":97,"x_max":550,"o":"m 97 0 l 97 972 l 372 972 l 372 0 l 97 0 z "},"Ĭ":{"ha":471,"x_min":-37,"x_max":508,"o":"m 97 0 l 97 972 l 372 972 l 372 0 l 97 0 z "},"Î":{"ha":471,"x_min":-60,"x_max":531,"o":"m 97 0 l 97 972 l 372 972 l 372 0 l 97 0 z "},"Ȉ":{"ha":471,"x_min":-147,"x_max":478,"o":"m 97 0 l 97 972 l 372 972 l 372 0 l 97 0 z "},"Ï":{"ha":471,"x_min":-22,"x_max":493,"o":"m 97 0 l 97 972 l 372 972 l 372 0 l 97 0 z "},"Ḯ":{"ha":471,"x_min":-11,"x_max":510,"o":"m 97 0 l 97 972 l 372 972 l 372 0 l 97 0 z "},"İ":{"ha":471,"x_min":97,"x_max":372,"o":"m 97 0 l 97 972 l 372 972 l 372 0 l 97 0 z "},"Ị":{"ha":471,"x_min":97,"x_max":372,"o":"m 97 0 l 97 972 l 372 972 l 372 0 l 97 0 m 235 -303 q 157 -274 189 -303 q 125 -196 125 -244 q 157 -117 125 -147 q 235 -86 189 -86 q 313 -117 281 -86 q 344 -196 344 -147 q 313 -274 344 -244 q 235 -303 281 -303 z "},"Ì":{"ha":471,"x_min":-79,"x_max":372,"o":"m 97 0 l 97 972 l 372 972 l 372 0 l 97 0 z "},"Ỉ":{"ha":471,"x_min":75,"x_max":421,"o":"m 97 0 l 97 972 l 372 972 l 372 0 l 97 0 z "},"Ȋ":{"ha":471,"x_min":-37,"x_max":508,"o":"m 97 0 l 97 972 l 372 972 l 372 0 l 97 0 z "},"Ī":{"ha":471,"x_min":14,"x_max":457,"o":"m 97 0 l 97 972 l 372 972 l 372 0 l 97 0 z "},"Į":{"ha":471,"x_min":97,"x_max":413,"o":"m 97 0 l 97 972 l 372 972 l 372 0 l 97 0 m 301 -328 q 169 -283 219 -328 q 118 -164 118 -239 q 165 -34 118 -93 q 299 64 211 25 l 372 0 q 299 -72 318 -39 q 279 -140 279 -106 q 295 -185 279 -168 q 335 -203 311 -203 q 358 -199 346 -203 q 379 -187 369 -194 l 411 -297 q 301 -328 368 -328 z "},"Ĩ":{"ha":471,"x_min":-50,"x_max":519,"o":"m 97 0 l 97 972 l 372 972 l 372 0 l 97 0 z "},"J":{"ha":774,"x_min":-28,"x_max":685,"o":"m 310 -19 q 116 17 203 -19 q -28 124 29 54 l 122 301 q 203 226 161 251 q 290 200 244 200 q 413 342 413 200 l 413 760 l 76 760 l 76 972 l 685 972 l 685 358 q 589 74 685 168 q 310 -19 493 -19 z "},"Ĵ":{"ha":774,"x_min":-28,"x_max":685,"o":"m 310 -19 q 116 17 203 -19 q -28 124 29 54 l 122 301 q 203 226 161 251 q 290 200 244 200 q 413 342 413 200 l 413 760 l 76 760 l 76 972 l 685 972 l 685 358 q 589 74 685 168 q 310 -19 493 -19 z "},"K":{"ha":1044,"x_min":97,"x_max":1069,"o":"m 343 215 l 328 524 l 746 972 l 1049 972 l 632 521 l 479 361 l 343 215 m 97 0 l 97 972 l 369 972 l 369 0 l 97 0 m 750 0 l 433 401 l 613 593 l 1069 0 l 750 0 z "},"Ǩ":{"ha":1044,"x_min":97,"x_max":1069,"o":"m 343 215 l 328 524 l 746 972 l 1049 972 l 632 521 l 479 361 l 343 215 m 97 0 l 97 972 l 369 972 l 369 0 l 97 0 m 750 0 l 433 401 l 613 593 l 1069 0 l 750 0 z "},"Ķ":{"ha":1044,"x_min":97,"x_max":1069,"o":"m 343 215 l 328 524 l 746 972 l 1049 972 l 632 521 l 479 361 l 343 215 m 97 0 l 97 972 l 369 972 l 369 0 l 97 0 m 750 0 l 433 401 l 613 593 l 1069 0 l 750 0 m 440 -372 l 501 -183 l 531 -271 q 449 -246 476 -271 q 421 -179 421 -221 q 450 -112 421 -137 q 531 -86 479 -86 q 611 -112 582 -86 q 640 -179 640 -137 q 635 -222 640 -197 q 611 -279 629 -246 l 560 -372 l 440 -372 z "},"L":{"ha":847,"x_min":97,"x_max":836,"o":"m 97 0 l 97 972 l 372 972 l 372 218 l 836 218 l 836 0 l 97 0 z "},"Ǉ":{"ha":1622,"x_min":97,"x_max":1532,"o":"m 97 0 l 97 972 l 372 972 l 372 218 l 836 218 l 836 0 l 97 0 m 1157 -19 q 963 17 1050 -19 q 819 124 876 54 l 969 301 q 1050 226 1008 251 q 1138 200 1092 200 q 1260 342 1260 200 l 1260 760 l 924 760 l 924 972 l 1532 972 l 1532 358 q 1436 74 1532 168 q 1157 -19 1340 -19 z "},"Ĺ":{"ha":847,"x_min":97,"x_max":836,"o":"m 97 0 l 97 972 l 372 972 l 372 218 l 836 218 l 836 0 l 97 0 z "},"Ľ":{"ha":847,"x_min":97,"x_max":836,"o":"m 97 0 l 97 972 l 372 972 l 372 218 l 836 218 l 836 0 l 97 0 m 593 750 l 593 1035 l 783 1035 l 749 750 l 593 750 z "},"Ļ":{"ha":847,"x_min":97,"x_max":836,"o":"m 97 0 l 97 972 l 372 972 l 372 218 l 836 218 l 836 0 l 97 0 m 393 -372 l 454 -183 l 483 -271 q 401 -246 429 -271 q 374 -179 374 -221 q 403 -112 374 -137 q 483 -86 432 -86 q 564 -112 535 -86 q 593 -179 593 -137 q 588 -222 593 -197 q 564 -279 582 -246 l 513 -372 l 393 -372 z "},"Ŀ":{"ha":847,"x_min":97,"x_max":836,"o":"m 97 0 l 97 972 l 372 972 l 372 218 l 836 218 l 836 0 l 97 0 m 660 456 q 561 494 600 456 q 522 594 522 533 q 561 694 522 656 q 660 733 600 733 q 758 694 719 733 q 797 594 797 656 q 758 494 797 533 q 660 456 719 456 z "},"Ḷ":{"ha":847,"x_min":97,"x_max":836,"o":"m 97 0 l 97 972 l 372 972 l 372 218 l 836 218 l 836 0 l 97 0 m 483 -303 q 406 -274 438 -303 q 374 -196 374 -244 q 406 -117 374 -147 q 483 -86 438 -86 q 561 -117 529 -86 q 593 -196 593 -147 q 561 -274 593 -244 q 483 -303 529 -303 z "},"ǈ":{"ha":1293,"x_min":97,"x_max":1236,"o":"m 97 0 l 97 972 l 372 972 l 372 218 l 836 218 l 836 0 l 97 0 z "},"Ḻ":{"ha":847,"x_min":97,"x_max":836,"o":"m 97 0 l 97 972 l 372 972 l 372 218 l 836 218 l 836 0 l 97 0 m 210 -260 l 210 -118 l 757 -118 l 757 -260 l 210 -260 z "},"Ł":{"ha":871,"x_min":-33,"x_max":860,"o":"m 121 0 l 121 972 l 396 972 l 396 218 l 860 218 l 860 0 l 121 0 m 56 300 l -33 422 l 535 847 l 624 724 l 56 300 z "},"M":{"ha":1325,"x_min":97,"x_max":1228,"o":"m 97 0 l 97 972 l 324 972 l 726 311 l 607 311 l 999 972 l 1225 972 l 1228 0 l 975 0 l 972 588 l 1015 588 l 722 96 l 600 96 l 299 588 l 351 588 l 351 0 l 97 0 z "},"Ṃ":{"ha":1325,"x_min":97,"x_max":1228,"o":"m 97 0 l 97 972 l 324 972 l 726 311 l 607 311 l 999 972 l 1225 972 l 1228 0 l 975 0 l 972 588 l 1015 588 l 722 96 l 600 96 l 299 588 l 351 588 l 351 0 l 97 0 m 661 -303 q 583 -274 615 -303 q 551 -196 551 -244 q 583 -117 551 -147 q 661 -86 615 -86 q 739 -117 707 -86 q 771 -196 771 -147 q 739 -274 771 -244 q 661 -303 707 -303 z "},"N":{"ha":1119,"x_min":97,"x_max":1022,"o":"m 97 0 l 97 972 l 324 972 l 860 325 l 753 325 l 753 972 l 1022 972 l 1022 0 l 796 0 l 260 647 l 367 647 l 367 0 l 97 0 z "},"Ǌ":{"ha":1893,"x_min":97,"x_max":1804,"o":"m 97 0 l 97 972 l 324 972 l 860 325 l 753 325 l 753 972 l 1022 972 l 1022 0 l 796 0 l 260 647 l 367 647 l 367 0 l 97 0 m 1429 -19 q 1235 17 1322 -19 q 1092 124 1149 54 l 1242 301 q 1322 226 1281 251 q 1410 200 1364 200 q 1532 342 1532 200 l 1532 760 l 1196 760 l 1196 972 l 1804 972 l 1804 358 q 1708 74 1804 168 q 1429 -19 1613 -19 z "},"Ń":{"ha":1119,"x_min":97,"x_max":1022,"o":"m 97 0 l 97 972 l 324 972 l 860 325 l 753 325 l 753 972 l 1022 972 l 1022 0 l 796 0 l 260 647 l 367 647 l 367 0 l 97 0 z "},"Ň":{"ha":1119,"x_min":97,"x_max":1022,"o":"m 97 0 l 97 972 l 324 972 l 860 325 l 753 325 l 753 972 l 1022 972 l 1022 0 l 796 0 l 260 647 l 367 647 l 367 0 l 97 0 z "},"Ņ":{"ha":1119,"x_min":97,"x_max":1022,"o":"m 97 0 l 97 972 l 324 972 l 860 325 l 753 325 l 753 972 l 1022 972 l 1022 0 l 796 0 l 260 647 l 367 647 l 367 0 l 97 0 m 469 -372 l 531 -183 l 560 -271 q 478 -246 506 -271 q 450 -179 450 -221 q 479 -112 450 -137 q 560 -86 508 -86 q 640 -112 611 -86 q 669 -179 669 -137 q 664 -222 669 -197 q 640 -279 658 -246 l 589 -372 l 469 -372 z "},"Ṅ":{"ha":1119,"x_min":97,"x_max":1022,"o":"m 97 0 l 97 972 l 324 972 l 860 325 l 753 325 l 753 972 l 1022 972 l 1022 0 l 796 0 l 260 647 l 367 647 l 367 0 l 97 0 z "},"Ṇ":{"ha":1119,"x_min":97,"x_max":1022,"o":"m 97 0 l 97 972 l 324 972 l 860 325 l 753 325 l 753 972 l 1022 972 l 1022 0 l 796 0 l 260 647 l 367 647 l 367 0 l 97 0 m 560 -303 q 482 -274 514 -303 q 450 -196 450 -244 q 482 -117 450 -147 q 560 -86 514 -86 q 638 -117 606 -86 q 669 -196 669 -147 q 638 -274 669 -244 q 560 -303 606 -303 z "},"Ŋ":{"ha":1119,"x_min":97,"x_max":1022,"o":"m 97 0 l 97 972 l 324 972 l 860 325 l 796 0 l 260 647 l 367 647 l 367 0 l 97 0 m 651 -282 q 506 -262 574 -282 q 385 -200 439 -242 l 511 -14 q 567 -50 538 -37 q 632 -62 597 -62 q 753 79 753 -62 l 753 972 l 1022 972 l 1022 119 q 928 -185 1022 -89 q 651 -282 833 -282 z "},"ǋ":{"ha":1564,"x_min":97,"x_max":1508,"o":"m 97 0 l 97 972 l 324 972 l 860 325 l 753 325 l 753 972 l 1022 972 l 1022 0 l 796 0 l 260 647 l 367 647 l 367 0 l 97 0 z "},"Ṉ":{"ha":1119,"x_min":97,"x_max":1022,"o":"m 97 0 l 97 972 l 324 972 l 860 325 l 753 325 l 753 972 l 1022 972 l 1022 0 l 796 0 l 260 647 l 367 647 l 367 0 l 97 0 m 286 -260 l 286 -118 l 833 -118 l 833 -260 l 286 -260 z "},"Ñ":{"ha":1119,"x_min":97,"x_max":1022,"o":"m 97 0 l 97 972 l 324 972 l 860 325 l 753 325 l 753 972 l 1022 972 l 1022 0 l 796 0 l 260 647 l 367 647 l 367 0 l 97 0 z "},"O":{"ha":1175,"x_min":47,"x_max":1128,"o":"m 588 -19 q 372 18 471 -19 q 201 124 274 56 q 88 285 128 193 q 47 486 47 376 q 88 688 47 596 q 201 848 128 779 q 372 954 274 917 q 588 992 471 992 q 803 954 706 992 q 974 848 901 917 q 1087 688 1046 779 q 1128 486 1128 596 q 1087 284 1128 376 q 974 124 1046 192 q 803 18 901 56 q 588 -19 706 -19 m 588 208 q 691 228 643 208 q 774 284 739 247 q 830 372 810 321 q 850 486 850 424 q 830 601 850 550 q 774 688 810 651 q 691 744 739 725 q 588 764 643 764 q 484 744 532 764 q 401 688 436 725 q 345 601 365 651 q 325 486 325 550 q 345 372 325 424 q 401 284 365 321 q 484 228 436 247 q 588 208 532 208 z "},"Ó":{"ha":1175,"x_min":47,"x_max":1128,"o":"m 588 -19 q 372 18 471 -19 q 201 124 274 56 q 88 285 128 193 q 47 486 47 376 q 88 688 47 596 q 201 848 128 779 q 372 954 274 917 q 588 992 471 992 q 803 954 706 992 q 974 848 901 917 q 1087 688 1046 779 q 1128 486 1128 596 q 1087 284 1128 376 q 974 124 1046 192 q 803 18 901 56 q 588 -19 706 -19 m 588 208 q 691 228 643 208 q 774 284 739 247 q 830 372 810 321 q 850 486 850 424 q 830 601 850 550 q 774 688 810 651 q 691 744 739 725 q 588 764 643 764 q 484 744 532 764 q 401 688 436 725 q 345 601 365 651 q 325 486 325 550 q 345 372 325 424 q 401 284 365 321 q 484 228 436 247 q 588 208 532 208 z "},"Ŏ":{"ha":1175,"x_min":47,"x_max":1128,"o":"m 588 -19 q 372 18 471 -19 q 201 124 274 56 q 88 285 128 193 q 47 486 47 376 q 88 688 47 596 q 201 848 128 779 q 372 954 274 917 q 588 992 471 992 q 803 954 706 992 q 974 848 901 917 q 1087 688 1046 779 q 1128 486 1128 596 q 1087 284 1128 376 q 974 124 1046 192 q 803 18 901 56 q 588 -19 706 -19 m 588 208 q 691 228 643 208 q 774 284 739 247 q 830 372 810 321 q 850 486 850 424 q 830 601 850 550 q 774 688 810 651 q 691 744 739 725 q 588 764 643 764 q 484 744 532 764 q 401 688 436 725 q 345 601 365 651 q 325 486 325 550 q 345 372 325 424 q 401 284 365 321 q 484 228 436 247 q 588 208 532 208 z "},"Ô":{"ha":1175,"x_min":47,"x_max":1128,"o":"m 588 -19 q 372 18 471 -19 q 201 124 274 56 q 88 285 128 193 q 47 486 47 376 q 88 688 47 596 q 201 848 128 779 q 372 954 274 917 q 588 992 471 992 q 803 954 706 992 q 974 848 901 917 q 1087 688 1046 779 q 1128 486 1128 596 q 1087 284 1128 376 q 974 124 1046 192 q 803 18 901 56 q 588 -19 706 -19 m 588 208 q 691 228 643 208 q 774 284 739 247 q 830 372 810 321 q 850 486 850 424 q 830 601 850 550 q 774 688 810 651 q 691 744 739 725 q 588 764 643 764 q 484 744 532 764 q 401 688 436 725 q 345 601 365 651 q 325 486 325 550 q 345 372 325 424 q 401 284 365 321 q 484 228 436 247 q 588 208 532 208 z "},"Ố":{"ha":1175,"x_min":47,"x_max":1178,"o":"m 588 -19 q 372 18 471 -19 q 201 124 274 56 q 88 285 128 193 q 47 486 47 376 q 88 688 47 596 q 201 848 128 779 q 372 954 274 917 q 588 992 471 992 q 803 954 706 992 q 974 848 901 917 q 1087 688 1046 779 q 1128 486 1128 596 q 1087 284 1128 376 q 974 124 1046 192 q 803 18 901 56 q 588 -19 706 -19 m 588 208 q 691 228 643 208 q 774 284 739 247 q 830 372 810 321 q 850 486 850 424 q 830 601 850 550 q 774 688 810 651 q 691 744 739 725 q 588 764 643 764 q 484 744 532 764 q 401 688 436 725 q 345 601 365 651 q 325 486 325 550 q 345 372 325 424 q 401 284 365 321 q 484 228 436 247 q 588 208 532 208 z "},"Ộ":{"ha":1175,"x_min":47,"x_max":1128,"o":"m 588 -19 q 372 18 471 -19 q 201 124 274 56 q 88 285 128 193 q 47 486 47 376 q 88 688 47 596 q 201 848 128 779 q 372 954 274 917 q 588 992 471 992 q 803 954 706 992 q 974 848 901 917 q 1087 688 1046 779 q 1128 486 1128 596 q 1087 284 1128 376 q 974 124 1046 192 q 803 18 901 56 q 588 -19 706 -19 m 588 208 q 691 228 643 208 q 774 284 739 247 q 830 372 810 321 q 850 486 850 424 q 830 601 850 550 q 774 688 810 651 q 691 744 739 725 q 588 764 643 764 q 484 744 532 764 q 401 688 436 725 q 345 601 365 651 q 325 486 325 550 q 345 372 325 424 q 401 284 365 321 q 484 228 436 247 q 588 208 532 208 m 588 -303 q 510 -274 542 -303 q 478 -196 478 -244 q 510 -117 478 -147 q 588 -86 542 -86 q 665 -117 633 -86 q 697 -196 697 -147 q 665 -274 697 -244 q 588 -303 633 -303 z "},"Ồ":{"ha":1175,"x_min":47,"x_max":1128,"o":"m 588 -19 q 372 18 471 -19 q 201 124 274 56 q 88 285 128 193 q 47 486 47 376 q 88 688 47 596 q 201 848 128 779 q 372 954 274 917 q 588 992 471 992 q 803 954 706 992 q 974 848 901 917 q 1087 688 1046 779 q 1128 486 1128 596 q 1087 284 1128 376 q 974 124 1046 192 q 803 18 901 56 q 588 -19 706 -19 m 588 208 q 691 228 643 208 q 774 284 739 247 q 830 372 810 321 q 850 486 850 424 q 830 601 850 550 q 774 688 810 651 q 691 744 739 725 q 588 764 643 764 q 484 744 532 764 q 401 688 436 725 q 345 601 365 651 q 325 486 325 550 q 345 372 325 424 q 401 284 365 321 q 484 228 436 247 q 588 208 532 208 z "},"Ổ":{"ha":1175,"x_min":47,"x_max":1128,"o":"m 588 -19 q 372 18 471 -19 q 201 124 274 56 q 88 285 128 193 q 47 486 47 376 q 88 688 47 596 q 201 848 128 779 q 372 954 274 917 q 588 992 471 992 q 803 954 706 992 q 974 848 901 917 q 1087 688 1046 779 q 1128 486 1128 596 q 1087 284 1128 376 q 974 124 1046 192 q 803 18 901 56 q 588 -19 706 -19 m 588 208 q 691 228 643 208 q 774 284 739 247 q 830 372 810 321 q 850 486 850 424 q 830 601 850 550 q 774 688 810 651 q 691 744 739 725 q 588 764 643 764 q 484 744 532 764 q 401 688 436 725 q 345 601 365 651 q 325 486 325 550 q 345 372 325 424 q 401 284 365 321 q 484 228 436 247 q 588 208 532 208 z "},"Ỗ":{"ha":1175,"x_min":47,"x_max":1128,"o":"m 588 -19 q 372 18 471 -19 q 201 124 274 56 q 88 285 128 193 q 47 486 47 376 q 88 688 47 596 q 201 848 128 779 q 372 954 274 917 q 588 992 471 992 q 803 954 706 992 q 974 848 901 917 q 1087 688 1046 779 q 1128 486 1128 596 q 1087 284 1128 376 q 974 124 1046 192 q 803 18 901 56 q 588 -19 706 -19 m 588 208 q 691 228 643 208 q 774 284 739 247 q 830 372 810 321 q 850 486 850 424 q 830 601 850 550 q 774 688 810 651 q 691 744 739 725 q 588 764 643 764 q 484 744 532 764 q 401 688 436 725 q 345 601 365 651 q 325 486 325 550 q 345 372 325 424 q 401 284 365 321 q 484 228 436 247 q 588 208 532 208 z "},"Ȍ":{"ha":1175,"x_min":47,"x_max":1128,"o":"m 588 -19 q 372 18 471 -19 q 201 124 274 56 q 88 285 128 193 q 47 486 47 376 q 88 688 47 596 q 201 848 128 779 q 372 954 274 917 q 588 992 471 992 q 803 954 706 992 q 974 848 901 917 q 1087 688 1046 779 q 1128 486 1128 596 q 1087 284 1128 376 q 974 124 1046 192 q 803 18 901 56 q 588 -19 706 -19 m 588 208 q 691 228 643 208 q 774 284 739 247 q 830 372 810 321 q 850 486 850 424 q 830 601 850 550 q 774 688 810 651 q 691 744 739 725 q 588 764 643 764 q 484 744 532 764 q 401 688 436 725 q 345 601 365 651 q 325 486 325 550 q 345 372 325 424 q 401 284 365 321 q 484 228 436 247 q 588 208 532 208 z "},"Ö":{"ha":1175,"x_min":47,"x_max":1128,"o":"m 588 -19 q 372 18 471 -19 q 201 124 274 56 q 88 285 128 193 q 47 486 47 376 q 88 688 47 596 q 201 848 128 779 q 372 954 274 917 q 588 992 471 992 q 803 954 706 992 q 974 848 901 917 q 1087 688 1046 779 q 1128 486 1128 596 q 1087 284 1128 376 q 974 124 1046 192 q 803 18 901 56 q 588 -19 706 -19 m 588 208 q 691 228 643 208 q 774 284 739 247 q 830 372 810 321 q 850 486 850 424 q 830 601 850 550 q 774 688 810 651 q 691 744 739 725 q 588 764 643 764 q 484 744 532 764 q 401 688 436 725 q 345 601 365 651 q 325 486 325 550 q 345 372 325 424 q 401 284 365 321 q 484 228 436 247 q 588 208 532 208 z "},"Ȫ":{"ha":1175,"x_min":47,"x_max":1128,"o":"m 588 -19 q 372 18 471 -19 q 201 124 274 56 q 88 285 128 193 q 47 486 47 376 q 88 688 47 596 q 201 848 128 779 q 372 954 274 917 q 588 992 471 992 q 803 954 706 992 q 974 848 901 917 q 1087 688 1046 779 q 1128 486 1128 596 q 1087 284 1128 376 q 974 124 1046 192 q 803 18 901 56 q 588 -19 706 -19 m 588 208 q 691 228 643 208 q 774 284 739 247 q 830 372 810 321 q 850 486 850 424 q 830 601 850 550 q 774 688 810 651 q 691 744 739 725 q 588 764 643 764 q 484 744 532 764 q 401 688 436 725 q 345 601 365 651 q 325 486 325 550 q 345 372 325 424 q 401 284 365 321 q 484 228 436 247 q 588 208 532 208 z "},"Ȱ":{"ha":1175,"x_min":47,"x_max":1128,"o":"m 588 -19 q 372 18 471 -19 q 201 124 274 56 q 88 285 128 193 q 47 486 47 376 q 88 688 47 596 q 201 848 128 779 q 372 954 274 917 q 588 992 471 992 q 803 954 706 992 q 974 848 901 917 q 1087 688 1046 779 q 1128 486 1128 596 q 1087 284 1128 376 q 974 124 1046 192 q 803 18 901 56 q 588 -19 706 -19 m 588 208 q 691 228 643 208 q 774 284 739 247 q 830 372 810 321 q 850 486 850 424 q 830 601 850 550 q 774 688 810 651 q 691 744 739 725 q 588 764 643 764 q 484 744 532 764 q 401 688 436 725 q 345 601 365 651 q 325 486 325 550 q 345 372 325 424 q 401 284 365 321 q 484 228 436 247 q 588 208 532 208 z "},"Ọ":{"ha":1175,"x_min":47,"x_max":1128,"o":"m 588 -19 q 372 18 471 -19 q 201 124 274 56 q 88 285 128 193 q 47 486 47 376 q 88 688 47 596 q 201 848 128 779 q 372 954 274 917 q 588 992 471 992 q 803 954 706 992 q 974 848 901 917 q 1087 688 1046 779 q 1128 486 1128 596 q 1087 284 1128 376 q 974 124 1046 192 q 803 18 901 56 q 588 -19 706 -19 m 588 208 q 691 228 643 208 q 774 284 739 247 q 830 372 810 321 q 850 486 850 424 q 830 601 850 550 q 774 688 810 651 q 691 744 739 725 q 588 764 643 764 q 484 744 532 764 q 401 688 436 725 q 345 601 365 651 q 325 486 325 550 q 345 372 325 424 q 401 284 365 321 q 484 228 436 247 q 588 208 532 208 m 588 -303 q 510 -274 542 -303 q 478 -196 478 -244 q 510 -117 478 -147 q 588 -86 542 -86 q 665 -117 633 -86 q 697 -196 697 -147 q 665 -274 697 -244 q 588 -303 633 -303 z "},"Ò":{"ha":1175,"x_min":47,"x_max":1128,"o":"m 588 -19 q 372 18 471 -19 q 201 124 274 56 q 88 285 128 193 q 47 486 47 376 q 88 688 47 596 q 201 848 128 779 q 372 954 274 917 q 588 992 471 992 q 803 954 706 992 q 974 848 901 917 q 1087 688 1046 779 q 1128 486 1128 596 q 1087 284 1128 376 q 974 124 1046 192 q 803 18 901 56 q 588 -19 706 -19 m 588 208 q 691 228 643 208 q 774 284 739 247 q 830 372 810 321 q 850 486 850 424 q 830 601 850 550 q 774 688 810 651 q 691 744 739 725 q 588 764 643 764 q 484 744 532 764 q 401 688 436 725 q 345 601 365 651 q 325 486 325 550 q 345 372 325 424 q 401 284 365 321 q 484 228 436 247 q 588 208 532 208 z "},"Ỏ":{"ha":1175,"x_min":47,"x_max":1128,"o":"m 588 -19 q 372 18 471 -19 q 201 124 274 56 q 88 285 128 193 q 47 486 47 376 q 88 688 47 596 q 201 848 128 779 q 372 954 274 917 q 588 992 471 992 q 803 954 706 992 q 974 848 901 917 q 1087 688 1046 779 q 1128 486 1128 596 q 1087 284 1128 376 q 974 124 1046 192 q 803 18 901 56 q 588 -19 706 -19 m 588 208 q 691 228 643 208 q 774 284 739 247 q 830 372 810 321 q 850 486 850 424 q 830 601 850 550 q 774 688 810 651 q 691 744 739 725 q 588 764 643 764 q 484 744 532 764 q 401 688 436 725 q 345 601 365 651 q 325 486 325 550 q 345 372 325 424 q 401 284 365 321 q 484 228 436 247 q 588 208 532 208 z "},"Ơ":{"ha":1175,"x_min":47,"x_max":1128,"o":"m 588 -19 q 372 18 471 -19 q 201 124 274 56 q 88 285 128 193 q 47 486 47 378 q 88 688 47 596 q 201 849 128 781 q 376 954 275 917 q 599 992 478 992 q 738 983 675 992 q 847 974 800 974 q 923 995 894 974 q 951 1060 951 1017 q 943 1104 951 1083 q 924 1140 935 1125 l 1075 1194 q 1110 1129 1097 1165 q 1124 1049 1124 1093 q 1046 878 1124 936 q 838 819 968 819 q 721 826 776 819 q 614 840 665 833 l 925 881 q 1031 779 986 839 q 1102 646 1076 719 q 1128 486 1128 572 q 1087 284 1128 376 q 974 124 1046 192 q 803 18 901 56 q 588 -19 706 -19 m 588 208 q 691 228 643 208 q 774 284 739 247 q 830 372 810 321 q 850 486 850 424 q 830 600 850 549 q 774 688 810 651 q 691 744 739 725 q 588 764 643 764 q 484 744 532 764 q 401 688 436 725 q 345 601 365 651 q 325 486 325 550 q 345 372 325 424 q 401 284 365 321 q 484 228 436 247 q 588 208 532 208 z "},"Ớ":{"ha":1175,"x_min":47,"x_max":1128,"o":"m 588 -19 q 372 18 471 -19 q 201 124 274 56 q 88 285 128 193 q 47 486 47 378 q 88 688 47 596 q 201 849 128 781 q 376 954 275 917 q 599 992 478 992 q 738 983 675 992 q 847 974 800 974 q 923 995 894 974 q 951 1060 951 1017 q 943 1104 951 1083 q 924 1140 935 1125 l 1075 1194 q 1110 1129 1097 1165 q 1124 1049 1124 1093 q 1046 878 1124 936 q 838 819 968 819 q 721 826 776 819 q 614 840 665 833 l 925 881 q 1031 779 986 839 q 1102 646 1076 719 q 1128 486 1128 572 q 1087 284 1128 376 q 974 124 1046 192 q 803 18 901 56 q 588 -19 706 -19 m 588 208 q 691 228 643 208 q 774 284 739 247 q 830 372 810 321 q 850 486 850 424 q 830 600 850 549 q 774 688 810 651 q 691 744 739 725 q 588 764 643 764 q 484 744 532 764 q 401 688 436 725 q 345 601 365 651 q 325 486 325 550 q 345 372 325 424 q 401 284 365 321 q 484 228 436 247 q 588 208 532 208 z "},"Ợ":{"ha":1175,"x_min":47,"x_max":1128,"o":"m 588 -19 q 372 18 471 -19 q 201 124 274 56 q 88 285 128 193 q 47 486 47 378 q 88 688 47 596 q 201 849 128 781 q 376 954 275 917 q 599 992 478 992 q 738 983 675 992 q 847 974 800 974 q 923 995 894 974 q 951 1060 951 1017 q 943 1104 951 1083 q 924 1140 935 1125 l 1075 1194 q 1110 1129 1097 1165 q 1124 1049 1124 1093 q 1046 878 1124 936 q 838 819 968 819 q 721 826 776 819 q 614 840 665 833 l 925 881 q 1031 779 986 839 q 1102 646 1076 719 q 1128 486 1128 572 q 1087 284 1128 376 q 974 124 1046 192 q 803 18 901 56 q 588 -19 706 -19 m 588 208 q 691 228 643 208 q 774 284 739 247 q 830 372 810 321 q 850 486 850 424 q 830 600 850 549 q 774 688 810 651 q 691 744 739 725 q 588 764 643 764 q 484 744 532 764 q 401 688 436 725 q 345 601 365 651 q 325 486 325 550 q 345 372 325 424 q 401 284 365 321 q 484 228 436 247 q 588 208 532 208 m 588 -303 q 510 -274 542 -303 q 478 -196 478 -244 q 510 -117 478 -147 q 588 -86 542 -86 q 665 -117 633 -86 q 697 -196 697 -147 q 665 -274 697 -244 q 588 -303 633 -303 z "},"Ờ":{"ha":1175,"x_min":47,"x_max":1128,"o":"m 588 -19 q 372 18 471 -19 q 201 124 274 56 q 88 285 128 193 q 47 486 47 378 q 88 688 47 596 q 201 849 128 781 q 376 954 275 917 q 599 992 478 992 q 738 983 675 992 q 847 974 800 974 q 923 995 894 974 q 951 1060 951 1017 q 943 1104 951 1083 q 924 1140 935 1125 l 1075 1194 q 1110 1129 1097 1165 q 1124 1049 1124 1093 q 1046 878 1124 936 q 838 819 968 819 q 721 826 776 819 q 614 840 665 833 l 925 881 q 1031 779 986 839 q 1102 646 1076 719 q 1128 486 1128 572 q 1087 284 1128 376 q 974 124 1046 192 q 803 18 901 56 q 588 -19 706 -19 m 588 208 q 691 228 643 208 q 774 284 739 247 q 830 372 810 321 q 850 486 850 424 q 830 600 850 549 q 774 688 810 651 q 691 744 739 725 q 588 764 643 764 q 484 744 532 764 q 401 688 436 725 q 345 601 365 651 q 325 486 325 550 q 345 372 325 424 q 401 284 365 321 q 484 228 436 247 q 588 208 532 208 z "},"Ở":{"ha":1175,"x_min":47,"x_max":1128,"o":"m 588 -19 q 372 18 471 -19 q 201 124 274 56 q 88 285 128 193 q 47 486 47 378 q 88 688 47 596 q 201 849 128 781 q 376 954 275 917 q 599 992 478 992 q 738 983 675 992 q 847 974 800 974 q 923 995 894 974 q 951 1060 951 1017 q 943 1104 951 1083 q 924 1140 935 1125 l 1075 1194 q 1110 1129 1097 1165 q 1124 1049 1124 1093 q 1046 878 1124 936 q 838 819 968 819 q 721 826 776 819 q 614 840 665 833 l 925 881 q 1031 779 986 839 q 1102 646 1076 719 q 1128 486 1128 572 q 1087 284 1128 376 q 974 124 1046 192 q 803 18 901 56 q 588 -19 706 -19 m 588 208 q 691 228 643 208 q 774 284 739 247 q 830 372 810 321 q 850 486 850 424 q 830 600 850 549 q 774 688 810 651 q 691 744 739 725 q 588 764 643 764 q 484 744 532 764 q 401 688 436 725 q 345 601 365 651 q 325 486 325 550 q 345 372 325 424 q 401 284 365 321 q 484 228 436 247 q 588 208 532 208 z "},"Ỡ":{"ha":1175,"x_min":47,"x_max":1128,"o":"m 588 -19 q 372 18 471 -19 q 201 124 274 56 q 88 285 128 193 q 47 486 47 378 q 88 688 47 596 q 201 849 128 781 q 376 954 275 917 q 599 992 478 992 q 738 983 675 992 q 847 974 800 974 q 923 995 894 974 q 951 1060 951 1017 q 943 1104 951 1083 q 924 1140 935 1125 l 1075 1194 q 1110 1129 1097 1165 q 1124 1049 1124 1093 q 1046 878 1124 936 q 838 819 968 819 q 721 826 776 819 q 614 840 665 833 l 925 881 q 1031 779 986 839 q 1102 646 1076 719 q 1128 486 1128 572 q 1087 284 1128 376 q 974 124 1046 192 q 803 18 901 56 q 588 -19 706 -19 m 588 208 q 691 228 643 208 q 774 284 739 247 q 830 372 810 321 q 850 486 850 424 q 830 600 850 549 q 774 688 810 651 q 691 744 739 725 q 588 764 643 764 q 484 744 532 764 q 401 688 436 725 q 345 601 365 651 q 325 486 325 550 q 345 372 325 424 q 401 284 365 321 q 484 228 436 247 q 588 208 532 208 z "},"Ő":{"ha":1175,"x_min":47,"x_max":1128,"o":"m 588 -19 q 372 18 471 -19 q 201 124 274 56 q 88 285 128 193 q 47 486 47 376 q 88 688 47 596 q 201 848 128 779 q 372 954 274 917 q 588 992 471 992 q 803 954 706 992 q 974 848 901 917 q 1087 688 1046 779 q 1128 486 1128 596 q 1087 284 1128 376 q 974 124 1046 192 q 803 18 901 56 q 588 -19 706 -19 m 588 208 q 691 228 643 208 q 774 284 739 247 q 830 372 810 321 q 850 486 850 424 q 830 601 850 550 q 774 688 810 651 q 691 744 739 725 q 588 764 643 764 q 484 744 532 764 q 401 688 436 725 q 345 601 365 651 q 325 486 325 550 q 345 372 325 424 q 401 284 365 321 q 484 228 436 247 q 588 208 532 208 z "},"Ȏ":{"ha":1175,"x_min":47,"x_max":1128,"o":"m 588 -19 q 372 18 471 -19 q 201 124 274 56 q 88 285 128 193 q 47 486 47 376 q 88 688 47 596 q 201 848 128 779 q 372 954 274 917 q 588 992 471 992 q 803 954 706 992 q 974 848 901 917 q 1087 688 1046 779 q 1128 486 1128 596 q 1087 284 1128 376 q 974 124 1046 192 q 803 18 901 56 q 588 -19 706 -19 m 588 208 q 691 228 643 208 q 774 284 739 247 q 830 372 810 321 q 850 486 850 424 q 830 601 850 550 q 774 688 810 651 q 691 744 739 725 q 588 764 643 764 q 484 744 532 764 q 401 688 436 725 q 345 601 365 651 q 325 486 325 550 q 345 372 325 424 q 401 284 365 321 q 484 228 436 247 q 588 208 532 208 z "},"Ō":{"ha":1175,"x_min":47,"x_max":1128,"o":"m 588 -19 q 372 18 471 -19 q 201 124 274 56 q 88 285 128 193 q 47 486 47 376 q 88 688 47 596 q 201 848 128 779 q 372 954 274 917 q 588 992 471 992 q 803 954 706 992 q 974 848 901 917 q 1087 688 1046 779 q 1128 486 1128 596 q 1087 284 1128 376 q 974 124 1046 192 q 803 18 901 56 q 588 -19 706 -19 m 588 208 q 691 228 643 208 q 774 284 739 247 q 830 372 810 321 q 850 486 850 424 q 830 601 850 550 q 774 688 810 651 q 691 744 739 725 q 588 764 643 764 q 484 744 532 764 q 401 688 436 725 q 345 601 365 651 q 325 486 325 550 q 345 372 325 424 q 401 284 365 321 q 484 228 436 247 q 588 208 532 208 z "},"Ṓ":{"ha":1175,"x_min":47,"x_max":1128,"o":"m 588 -19 q 372 18 471 -19 q 201 124 274 56 q 88 285 128 193 q 47 486 47 376 q 88 688 47 596 q 201 848 128 779 q 372 954 274 917 q 588 992 471 992 q 803 954 706 992 q 974 848 901 917 q 1087 688 1046 779 q 1128 486 1128 596 q 1087 284 1128 376 q 974 124 1046 192 q 803 18 901 56 q 588 -19 706 -19 m 588 208 q 691 228 643 208 q 774 284 739 247 q 830 372 810 321 q 850 486 850 424 q 830 601 850 550 q 774 688 810 651 q 691 744 739 725 q 588 764 643 764 q 484 744 532 764 q 401 688 436 725 q 345 601 365 651 q 325 486 325 550 q 345 372 325 424 q 401 284 365 321 q 484 228 436 247 q 588 208 532 208 z "},"Ṑ":{"ha":1175,"x_min":47,"x_max":1128,"o":"m 588 -19 q 372 18 471 -19 q 201 124 274 56 q 88 285 128 193 q 47 486 47 376 q 88 688 47 596 q 201 848 128 779 q 372 954 274 917 q 588 992 471 992 q 803 954 706 992 q 974 848 901 917 q 1087 688 1046 779 q 1128 486 1128 596 q 1087 284 1128 376 q 974 124 1046 192 q 803 18 901 56 q 588 -19 706 -19 m 588 208 q 691 228 643 208 q 774 284 739 247 q 830 372 810 321 q 850 486 850 424 q 830 601 850 550 q 774 688 810 651 q 691 744 739 725 q 588 764 643 764 q 484 744 532 764 q 401 688 436 725 q 345 601 365 651 q 325 486 325 550 q 345 372 325 424 q 401 284 365 321 q 484 228 436 247 q 588 208 532 208 z "},"Ǫ":{"ha":1175,"x_min":47,"x_max":1128,"o":"m 626 -328 q 475 -283 529 -328 q 421 -165 421 -237 q 445 -74 421 -117 q 519 3 469 -32 q 643 63 569 38 l 657 -15 q 618 -18 635 -17 q 588 -19 601 -19 q 372 18 471 -19 q 201 124 274 56 q 88 284 128 192 q 47 486 47 376 q 88 688 47 596 q 201 849 128 781 q 372 954 274 917 q 588 992 471 992 q 803 954 706 992 q 974 849 901 917 q 1087 688 1046 781 q 1128 486 1128 596 q 1080 269 1128 365 q 951 106 1032 172 q 768 7 869 40 q 658 -38 700 -14 q 599 -88 617 -62 q 581 -142 581 -114 q 600 -185 581 -168 q 657 -203 619 -203 q 702 -197 681 -203 q 740 -182 724 -190 l 774 -296 q 708 -319 749 -310 q 626 -328 668 -328 m 588 208 q 691 228 643 208 q 774 284 739 247 q 830 372 810 321 q 850 486 850 424 q 830 601 850 550 q 774 688 810 651 q 691 744 739 725 q 588 764 643 764 q 484 744 532 764 q 401 688 436 725 q 345 601 365 651 q 325 486 325 550 q 345 372 325 424 q 401 284 365 321 q 484 228 436 247 q 588 208 532 208 z "},"Ø":{"ha":1175,"x_min":47,"x_max":1128,"o":"m 588 -19 q 372 18 471 -19 q 201 124 274 56 q 88 285 128 193 q 47 486 47 376 q 88 688 47 596 q 201 848 128 779 q 372 954 274 917 q 588 992 471 992 q 803 954 706 992 q 974 848 901 917 q 1087 688 1046 779 q 1128 486 1128 596 q 1087 284 1128 376 q 974 124 1046 192 q 803 18 901 56 q 588 -19 706 -19 m 588 208 q 691 228 643 208 q 774 284 739 247 q 830 372 810 321 q 850 486 850 424 q 830 601 850 550 q 774 688 810 651 q 691 744 739 725 q 588 764 643 764 q 484 744 532 764 q 401 688 436 725 q 345 601 365 651 q 325 486 325 550 q 345 372 325 424 q 401 284 365 321 q 484 228 436 247 q 588 208 532 208 m 92 -97 l 921 1069 l 1083 1069 l 254 -97 l 92 -97 z "},"Ǿ":{"ha":1175,"x_min":47,"x_max":1128,"o":"m 588 -19 q 372 18 471 -19 q 201 124 274 56 q 88 285 128 193 q 47 486 47 376 q 88 688 47 596 q 201 848 128 779 q 372 954 274 917 q 588 992 471 992 q 803 954 706 992 q 974 848 901 917 q 1087 688 1046 779 q 1128 486 1128 596 q 1087 284 1128 376 q 974 124 1046 192 q 803 18 901 56 q 588 -19 706 -19 m 588 208 q 691 228 643 208 q 774 284 739 247 q 830 372 810 321 q 850 486 850 424 q 830 601 850 550 q 774 688 810 651 q 691 744 739 725 q 588 764 643 764 q 484 744 532 764 q 401 688 436 725 q 345 601 365 651 q 325 486 325 550 q 345 372 325 424 q 401 284 365 321 q 484 228 436 247 q 588 208 532 208 m 92 -97 l 921 1069 l 1083 1069 l 254 -97 l 92 -97 z "},"Õ":{"ha":1175,"x_min":47,"x_max":1128,"o":"m 588 -19 q 372 18 471 -19 q 201 124 274 56 q 88 285 128 193 q 47 486 47 376 q 88 688 47 596 q 201 848 128 779 q 372 954 274 917 q 588 992 471 992 q 803 954 706 992 q 974 848 901 917 q 1087 688 1046 779 q 1128 486 1128 596 q 1087 284 1128 376 q 974 124 1046 192 q 803 18 901 56 q 588 -19 706 -19 m 588 208 q 691 228 643 208 q 774 284 739 247 q 830 372 810 321 q 850 486 850 424 q 830 601 850 550 q 774 688 810 651 q 691 744 739 725 q 588 764 643 764 q 484 744 532 764 q 401 688 436 725 q 345 601 365 651 q 325 486 325 550 q 345 372 325 424 q 401 284 365 321 q 484 228 436 247 q 588 208 532 208 z "},"Ṍ":{"ha":1175,"x_min":47,"x_max":1128,"o":"m 588 -19 q 372 18 471 -19 q 201 124 274 56 q 88 285 128 193 q 47 486 47 376 q 88 688 47 596 q 201 848 128 779 q 372 954 274 917 q 588 992 471 992 q 803 954 706 992 q 974 848 901 917 q 1087 688 1046 779 q 1128 486 1128 596 q 1087 284 1128 376 q 974 124 1046 192 q 803 18 901 56 q 588 -19 706 -19 m 588 208 q 691 228 643 208 q 774 284 739 247 q 830 372 810 321 q 850 486 850 424 q 830 601 850 550 q 774 688 810 651 q 691 744 739 725 q 588 764 643 764 q 484 744 532 764 q 401 688 436 725 q 345 601 365 651 q 325 486 325 550 q 345 372 325 424 q 401 284 365 321 q 484 228 436 247 q 588 208 532 208 z "},"Ṏ":{"ha":1175,"x_min":47,"x_max":1128,"o":"m 588 -19 q 372 18 471 -19 q 201 124 274 56 q 88 285 128 193 q 47 486 47 376 q 88 688 47 596 q 201 848 128 779 q 372 954 274 917 q 588 992 471 992 q 803 954 706 992 q 974 848 901 917 q 1087 688 1046 779 q 1128 486 1128 596 q 1087 284 1128 376 q 974 124 1046 192 q 803 18 901 56 q 588 -19 706 -19 m 588 208 q 691 228 643 208 q 774 284 739 247 q 830 372 810 321 q 850 486 850 424 q 830 601 850 550 q 774 688 810 651 q 691 744 739 725 q 588 764 643 764 q 484 744 532 764 q 401 688 436 725 q 345 601 365 651 q 325 486 325 550 q 345 372 325 424 q 401 284 365 321 q 484 228 436 247 q 588 208 532 208 z "},"Ȭ":{"ha":1175,"x_min":47,"x_max":1128,"o":"m 588 -19 q 372 18 471 -19 q 201 124 274 56 q 88 285 128 193 q 47 486 47 376 q 88 688 47 596 q 201 848 128 779 q 372 954 274 917 q 588 992 471 992 q 803 954 706 992 q 974 848 901 917 q 1087 688 1046 779 q 1128 486 1128 596 q 1087 284 1128 376 q 974 124 1046 192 q 803 18 901 56 q 588 -19 706 -19 m 588 208 q 691 228 643 208 q 774 284 739 247 q 830 372 810 321 q 850 486 850 424 q 830 601 850 550 q 774 688 810 651 q 691 744 739 725 q 588 764 643 764 q 484 744 532 764 q 401 688 436 725 q 345 601 365 651 q 325 486 325 550 q 345 372 325 424 q 401 284 365 321 q 484 228 436 247 q 588 208 532 208 z "},"Œ":{"ha":1586,"x_min":47,"x_max":1531,"o":"m 590 0 q 307 60 429 0 q 116 228 185 119 q 47 486 47 338 q 116 744 47 635 q 307 913 185 853 q 590 972 429 972 l 821 972 l 821 753 l 601 753 q 457 722 519 753 q 360 631 394 690 q 325 486 325 571 q 360 342 325 403 q 457 251 394 282 q 601 219 519 219 l 821 219 l 821 0 l 590 0 m 1003 596 l 1454 596 l 1454 390 l 1003 390 l 1003 596 m 1022 213 l 1531 213 l 1531 0 l 751 0 l 751 972 l 1513 972 l 1513 760 l 1022 760 l 1022 213 z "},"P":{"ha":1024,"x_min":97,"x_max":974,"o":"m 97 0 l 97 972 l 542 972 q 772 929 675 972 q 921 805 868 886 q 974 613 974 724 q 921 422 974 503 q 772 298 868 342 q 542 254 675 254 l 250 254 l 372 374 l 372 0 l 97 0 m 372 344 l 250 471 l 525 471 q 653 508 611 471 q 696 613 696 546 q 653 718 696 681 q 525 756 611 756 l 250 756 l 372 882 l 372 344 z "},"Þ":{"ha":1024,"x_min":97,"x_max":974,"o":"m 315 153 l 315 371 l 525 371 q 653 408 611 371 q 696 513 696 446 q 653 617 696 579 q 525 654 611 654 l 315 654 l 315 872 l 542 872 q 772 828 675 872 q 921 704 868 785 q 974 513 974 624 q 921 322 974 403 q 772 197 868 240 q 542 153 675 153 l 315 153 m 97 0 l 97 974 l 372 974 l 372 0 l 97 0 z "},"Q":{"ha":1175,"x_min":47,"x_max":1178,"o":"m 588 -19 q 372 18 471 -19 q 201 124 274 56 q 88 285 128 193 q 47 486 47 376 q 88 688 47 596 q 201 848 128 779 q 372 954 274 917 q 588 992 471 992 q 803 954 706 992 q 974 849 901 917 q 1087 688 1046 781 q 1128 486 1128 596 q 1087 284 1128 376 q 974 124 1046 192 q 803 18 901 56 q 588 -19 706 -19 m 906 -235 q 789 -222 843 -235 q 683 -179 735 -208 q 574 -100 631 -150 q 449 24 518 -50 l 736 96 q 799 15 771 44 q 853 -26 826 -14 q 911 -39 881 -39 q 1058 29 992 -39 l 1178 -112 q 906 -235 1076 -235 m 588 208 q 691 228 643 208 q 774 284 739 247 q 830 372 810 321 q 850 486 850 424 q 830 601 850 550 q 774 688 810 651 q 691 744 739 725 q 588 764 643 764 q 484 744 532 764 q 401 688 436 725 q 345 601 365 651 q 325 486 325 550 q 345 372 325 424 q 401 284 365 321 q 484 228 436 247 q 588 208 532 208 z "},"R":{"ha":1028,"x_min":97,"x_max":993,"o":"m 97 0 l 97 972 l 542 972 q 772 929 675 972 q 921 805 868 886 q 974 613 974 724 q 921 423 974 503 q 772 301 868 343 q 542 258 675 258 l 250 258 l 372 374 l 372 0 l 97 0 m 699 0 l 457 354 l 750 354 l 993 0 l 699 0 m 372 344 l 250 471 l 525 471 q 653 508 611 471 q 696 613 696 546 q 653 718 696 681 q 525 756 611 756 l 250 756 l 372 882 l 372 344 z "},"Ŕ":{"ha":1028,"x_min":97,"x_max":993,"o":"m 97 0 l 97 972 l 542 972 q 772 929 675 972 q 921 805 868 886 q 974 613 974 724 q 921 423 974 503 q 772 301 868 343 q 542 258 675 258 l 250 258 l 372 374 l 372 0 l 97 0 m 699 0 l 457 354 l 750 354 l 993 0 l 699 0 m 372 344 l 250 471 l 525 471 q 653 508 611 471 q 696 613 696 546 q 653 718 696 681 q 525 756 611 756 l 250 756 l 372 882 l 372 344 z "},"Ř":{"ha":1028,"x_min":97,"x_max":993,"o":"m 97 0 l 97 972 l 542 972 q 772 929 675 972 q 921 805 868 886 q 974 613 974 724 q 921 423 974 503 q 772 301 868 343 q 542 258 675 258 l 250 258 l 372 374 l 372 0 l 97 0 m 699 0 l 457 354 l 750 354 l 993 0 l 699 0 m 372 344 l 250 471 l 525 471 q 653 508 611 471 q 696 613 696 546 q 653 718 696 681 q 525 756 611 756 l 250 756 l 372 882 l 372 344 z "},"Ŗ":{"ha":1028,"x_min":97,"x_max":993,"o":"m 97 0 l 97 972 l 542 972 q 772 929 675 972 q 921 805 868 886 q 974 613 974 724 q 921 423 974 503 q 772 301 868 343 q 542 258 675 258 l 250 258 l 372 374 l 372 0 l 97 0 m 699 0 l 457 354 l 750 354 l 993 0 l 699 0 m 372 344 l 250 471 l 525 471 q 653 508 611 471 q 696 613 696 546 q 653 718 696 681 q 525 756 611 756 l 250 756 l 372 882 l 372 344 m 433 -372 l 494 -183 l 524 -271 q 442 -246 469 -271 q 414 -179 414 -221 q 443 -112 414 -137 q 524 -86 472 -86 q 604 -112 575 -86 q 633 -179 633 -137 q 628 -222 633 -197 q 604 -279 622 -246 l 553 -372 l 433 -372 z "},"Ȑ":{"ha":1028,"x_min":97,"x_max":993,"o":"m 97 0 l 97 972 l 542 972 q 772 929 675 972 q 921 805 868 886 q 974 613 974 724 q 921 423 974 503 q 772 301 868 343 q 542 258 675 258 l 250 258 l 372 374 l 372 0 l 97 0 m 699 0 l 457 354 l 750 354 l 993 0 l 699 0 m 372 344 l 250 471 l 525 471 q 653 508 611 471 q 696 613 696 546 q 653 718 696 681 q 525 756 611 756 l 250 756 l 372 882 l 372 344 z "},"Ṛ":{"ha":1028,"x_min":97,"x_max":993,"o":"m 97 0 l 97 972 l 542 972 q 772 929 675 972 q 921 805 868 886 q 974 613 974 724 q 921 423 974 503 q 772 301 868 343 q 542 258 675 258 l 250 258 l 372 374 l 372 0 l 97 0 m 699 0 l 457 354 l 750 354 l 993 0 l 699 0 m 372 344 l 250 471 l 525 471 q 653 508 611 471 q 696 613 696 546 q 653 718 696 681 q 525 756 611 756 l 250 756 l 372 882 l 372 344 m 524 -303 q 446 -274 478 -303 q 414 -196 414 -244 q 446 -117 414 -147 q 524 -86 478 -86 q 601 -117 569 -86 q 633 -196 633 -147 q 601 -274 633 -244 q 524 -303 569 -303 z "},"Ȓ":{"ha":1028,"x_min":97,"x_max":993,"o":"m 97 0 l 97 972 l 542 972 q 772 929 675 972 q 921 805 868 886 q 974 613 974 724 q 921 423 974 503 q 772 301 868 343 q 542 258 675 258 l 250 258 l 372 374 l 372 0 l 97 0 m 699 0 l 457 354 l 750 354 l 993 0 l 699 0 m 372 344 l 250 471 l 525 471 q 653 508 611 471 q 696 613 696 546 q 653 718 696 681 q 525 756 611 756 l 250 756 l 372 882 l 372 344 z "},"Ṟ":{"ha":1028,"x_min":97,"x_max":993,"o":"m 97 0 l 97 972 l 542 972 q 772 929 675 972 q 921 805 868 886 q 974 613 974 724 q 921 423 974 503 q 772 301 868 343 q 542 258 675 258 l 250 258 l 372 374 l 372 0 l 97 0 m 699 0 l 457 354 l 750 354 l 993 0 l 699 0 m 372 344 l 250 471 l 525 471 q 653 508 611 471 q 696 613 696 546 q 653 718 696 681 q 525 756 611 756 l 250 756 l 372 882 l 372 344 m 250 -260 l 250 -118 l 797 -118 l 797 -260 l 250 -260 z "},"S":{"ha":899,"x_min":29,"x_max":869,"o":"m 439 -19 q 209 10 319 -19 q 29 88 99 40 l 119 290 q 270 222 185 249 q 440 194 356 194 q 532 205 497 194 q 583 233 567 215 q 599 274 599 250 q 568 326 599 307 q 489 358 538 346 q 381 383 440 371 q 263 415 322 396 q 156 466 204 435 q 76 548 107 497 q 46 676 46 599 q 94 835 46 764 q 238 949 142 906 q 476 992 333 992 q 665 970 572 992 q 829 907 757 949 l 744 703 q 607 759 675 740 q 475 778 539 778 q 383 766 418 778 q 333 735 349 754 q 318 690 318 715 q 348 640 318 658 q 427 609 378 621 q 535 585 476 597 q 653 553 594 572 q 761 503 713 535 q 840 422 810 472 q 869 294 869 371 q 822 138 869 210 q 678 24 774 67 q 439 -19 583 -19 z "},"Ś":{"ha":899,"x_min":29,"x_max":869,"o":"m 439 -19 q 209 10 319 -19 q 29 88 99 40 l 119 290 q 270 222 185 249 q 440 194 356 194 q 532 205 497 194 q 583 233 567 215 q 599 274 599 250 q 568 326 599 307 q 489 358 538 346 q 381 383 440 371 q 263 415 322 396 q 156 466 204 435 q 76 548 107 497 q 46 676 46 599 q 94 835 46 764 q 238 949 142 906 q 476 992 333 992 q 665 970 572 992 q 829 907 757 949 l 744 703 q 607 759 675 740 q 475 778 539 778 q 383 766 418 778 q 333 735 349 754 q 318 690 318 715 q 348 640 318 658 q 427 609 378 621 q 535 585 476 597 q 653 553 594 572 q 761 503 713 535 q 840 422 810 472 q 869 294 869 371 q 822 138 869 210 q 678 24 774 67 q 439 -19 583 -19 z "},"Ṥ":{"ha":899,"x_min":29,"x_max":869,"o":"m 439 -19 q 209 10 319 -19 q 29 88 99 40 l 119 290 q 270 222 185 249 q 440 194 356 194 q 532 205 497 194 q 583 233 567 215 q 599 274 599 250 q 568 326 599 307 q 489 358 538 346 q 381 383 440 371 q 263 415 322 396 q 156 466 204 435 q 76 548 107 497 q 46 676 46 599 q 94 835 46 764 q 238 949 142 906 q 476 992 333 992 q 665 970 572 992 q 829 907 757 949 l 744 703 q 607 759 675 740 q 475 778 539 778 q 383 766 418 778 q 333 735 349 754 q 318 690 318 715 q 348 640 318 658 q 427 609 378 621 q 535 585 476 597 q 653 553 594 572 q 761 503 713 535 q 840 422 810 472 q 869 294 869 371 q 822 138 869 210 q 678 24 774 67 q 439 -19 583 -19 z "},"Ꞌ":{"ha":443,"x_min":86,"x_max":357,"o":"m 86 411 l 86 974 l 357 974 l 322 411 l 86 411 z "},"Š":{"ha":899,"x_min":29,"x_max":869,"o":"m 439 -19 q 209 10 319 -19 q 29 88 99 40 l 119 290 q 270 222 185 249 q 440 194 356 194 q 532 205 497 194 q 583 233 567 215 q 599 274 599 250 q 568 326 599 307 q 489 358 538 346 q 381 383 440 371 q 263 415 322 396 q 156 466 204 435 q 76 548 107 497 q 46 676 46 599 q 94 835 46 764 q 238 949 142 906 q 476 992 333 992 q 665 970 572 992 q 829 907 757 949 l 744 703 q 607 759 675 740 q 475 778 539 778 q 383 766 418 778 q 333 735 349 754 q 318 690 318 715 q 348 640 318 658 q 427 609 378 621 q 535 585 476 597 q 653 553 594 572 q 761 503 713 535 q 840 422 810 472 q 869 294 869 371 q 822 138 869 210 q 678 24 774 67 q 439 -19 583 -19 z "},"Ṧ":{"ha":899,"x_min":29,"x_max":869,"o":"m 439 -19 q 209 10 319 -19 q 29 88 99 40 l 119 290 q 270 222 185 249 q 440 194 356 194 q 532 205 497 194 q 583 233 567 215 q 599 274 599 250 q 568 326 599 307 q 489 358 538 346 q 381 383 440 371 q 263 415 322 396 q 156 466 204 435 q 76 548 107 497 q 46 676 46 599 q 94 835 46 764 q 238 949 142 906 q 476 992 333 992 q 665 970 572 992 q 829 907 757 949 l 744 703 q 607 759 675 740 q 475 778 539 778 q 383 766 418 778 q 333 735 349 754 q 318 690 318 715 q 348 640 318 658 q 427 609 378 621 q 535 585 476 597 q 653 553 594 572 q 761 503 713 535 q 840 422 810 472 q 869 294 869 371 q 822 138 869 210 q 678 24 774 67 q 439 -19 583 -19 z "},"Ş":{"ha":899,"x_min":29,"x_max":869,"o":"m 439 -19 q 209 10 319 -19 q 29 88 99 40 l 119 290 q 270 222 185 249 q 440 194 356 194 q 532 205 497 194 q 583 233 567 215 q 599 274 599 250 q 568 326 599 307 q 489 358 538 346 q 381 383 440 371 q 263 415 322 396 q 156 466 204 435 q 76 548 107 497 q 46 676 46 599 q 94 835 46 764 q 238 949 142 906 q 476 992 333 992 q 665 970 572 992 q 829 907 757 949 l 744 703 q 607 759 675 740 q 475 778 539 778 q 383 766 418 778 q 333 735 349 754 q 318 690 318 715 q 348 640 318 658 q 427 609 378 621 q 535 585 476 597 q 653 553 594 572 q 761 503 713 535 q 840 422 810 472 q 869 294 869 371 q 822 138 869 210 q 678 24 774 67 q 439 -19 583 -19 m 403 -328 q 331 -319 368 -328 q 271 -299 294 -311 l 307 -194 q 347 -208 325 -203 q 393 -214 368 -214 q 447 -203 431 -214 q 463 -175 463 -192 q 448 -149 463 -158 q 400 -140 433 -140 l 349 -140 l 385 13 l 522 13 l 503 -71 q 594 -111 567 -78 q 622 -183 622 -144 q 563 -289 622 -250 q 403 -328 503 -328 z "},"Ŝ":{"ha":899,"x_min":29,"x_max":869,"o":"m 439 -19 q 209 10 319 -19 q 29 88 99 40 l 119 290 q 270 222 185 249 q 440 194 356 194 q 532 205 497 194 q 583 233 567 215 q 599 274 599 250 q 568 326 599 307 q 489 358 538 346 q 381 383 440 371 q 263 415 322 396 q 156 466 204 435 q 76 548 107 497 q 46 676 46 599 q 94 835 46 764 q 238 949 142 906 q 476 992 333 992 q 665 970 572 992 q 829 907 757 949 l 744 703 q 607 759 675 740 q 475 778 539 778 q 383 766 418 778 q 333 735 349 754 q 318 690 318 715 q 348 640 318 658 q 427 609 378 621 q 535 585 476 597 q 653 553 594 572 q 761 503 713 535 q 840 422 810 472 q 869 294 869 371 q 822 138 869 210 q 678 24 774 67 q 439 -19 583 -19 z "},"Ș":{"ha":899,"x_min":29,"x_max":869,"o":"m 439 -19 q 209 10 319 -19 q 29 88 99 40 l 119 290 q 270 222 185 249 q 440 194 356 194 q 532 205 497 194 q 583 233 567 215 q 599 274 599 250 q 568 326 599 307 q 489 358 538 346 q 381 383 440 371 q 263 415 322 396 q 156 466 204 435 q 76 548 107 497 q 46 676 46 599 q 94 835 46 764 q 238 949 142 906 q 476 992 333 992 q 665 970 572 992 q 829 907 757 949 l 744 703 q 607 759 675 740 q 475 778 539 778 q 383 766 418 778 q 333 735 349 754 q 318 690 318 715 q 348 640 318 658 q 427 609 378 621 q 535 585 476 597 q 653 553 594 572 q 761 503 713 535 q 840 422 810 472 q 869 294 869 371 q 822 138 869 210 q 678 24 774 67 q 439 -19 583 -19 m 364 -372 l 425 -183 l 454 -271 q 372 -246 400 -271 q 344 -179 344 -221 q 374 -112 344 -137 q 454 -86 403 -86 q 535 -112 506 -86 q 564 -179 564 -137 q 558 -222 564 -197 q 535 -279 553 -246 l 483 -372 l 364 -372 z "},"Ṡ":{"ha":899,"x_min":29,"x_max":869,"o":"m 439 -19 q 209 10 319 -19 q 29 88 99 40 l 119 290 q 270 222 185 249 q 440 194 356 194 q 532 205 497 194 q 583 233 567 215 q 599 274 599 250 q 568 326 599 307 q 489 358 538 346 q 381 383 440 371 q 263 415 322 396 q 156 466 204 435 q 76 548 107 497 q 46 676 46 599 q 94 835 46 764 q 238 949 142 906 q 476 992 333 992 q 665 970 572 992 q 829 907 757 949 l 744 703 q 607 759 675 740 q 475 778 539 778 q 383 766 418 778 q 333 735 349 754 q 318 690 318 715 q 348 640 318 658 q 427 609 378 621 q 535 585 476 597 q 653 553 594 572 q 761 503 713 535 q 840 422 810 472 q 869 294 869 371 q 822 138 869 210 q 678 24 774 67 q 439 -19 583 -19 z "},"Ṣ":{"ha":899,"x_min":29,"x_max":869,"o":"m 439 -19 q 209 10 319 -19 q 29 88 99 40 l 119 290 q 270 222 185 249 q 440 194 356 194 q 532 205 497 194 q 583 233 567 215 q 599 274 599 250 q 568 326 599 307 q 489 358 538 346 q 381 383 440 371 q 263 415 322 396 q 156 466 204 435 q 76 548 107 497 q 46 676 46 599 q 94 835 46 764 q 238 949 142 906 q 476 992 333 992 q 665 970 572 992 q 829 907 757 949 l 744 703 q 607 759 675 740 q 475 778 539 778 q 383 766 418 778 q 333 735 349 754 q 318 690 318 715 q 348 640 318 658 q 427 609 378 621 q 535 585 476 597 q 653 553 594 572 q 761 503 713 535 q 840 422 810 472 q 869 294 869 371 q 822 138 869 210 q 678 24 774 67 q 439 -19 583 -19 m 454 -303 q 376 -274 408 -303 q 344 -196 344 -244 q 376 -117 344 -147 q 454 -86 408 -86 q 532 -117 500 -86 q 564 -196 564 -147 q 532 -274 564 -244 q 454 -303 500 -303 z "},"Ṩ":{"ha":899,"x_min":29,"x_max":869,"o":"m 439 -19 q 209 10 319 -19 q 29 88 99 40 l 119 290 q 270 222 185 249 q 440 194 356 194 q 532 205 497 194 q 583 233 567 215 q 599 274 599 250 q 568 326 599 307 q 489 358 538 346 q 381 383 440 371 q 263 415 322 396 q 156 466 204 435 q 76 548 107 497 q 46 676 46 599 q 94 835 46 764 q 238 949 142 906 q 476 992 333 992 q 665 970 572 992 q 829 907 757 949 l 744 703 q 607 759 675 740 q 475 778 539 778 q 383 766 418 778 q 333 735 349 754 q 318 690 318 715 q 348 640 318 658 q 427 609 378 621 q 535 585 476 597 q 653 553 594 572 q 761 503 713 535 q 840 422 810 472 q 869 294 869 371 q 822 138 869 210 q 678 24 774 67 q 439 -19 583 -19 m 454 -303 q 376 -274 408 -303 q 344 -196 344 -244 q 376 -117 344 -147 q 454 -86 408 -86 q 532 -117 500 -86 q 564 -196 564 -147 q 532 -274 564 -244 q 454 -303 500 -303 z "},"ẞ":{"ha":1094,"x_min":89,"x_max":1050,"o":"m 674 -19 q 559 -11 611 -19 q 464 14 507 -3 l 503 224 q 565 203 529 211 q 633 194 600 194 q 736 222 701 194 q 771 301 771 249 q 736 380 771 353 q 635 407 701 407 q 585 403 610 407 q 540 393 561 400 l 493 507 l 817 881 l 838 706 q 725 759 783 740 q 596 778 667 778 q 423 713 482 778 q 364 529 364 649 l 364 0 l 89 0 l 89 536 q 147 778 89 676 q 318 936 206 881 q 590 992 431 992 q 717 981 651 992 q 844 950 783 971 q 950 899 906 929 l 950 738 l 693 442 l 588 588 q 635 596 610 593 q 692 599 661 599 q 868 562 786 599 q 1000 456 950 525 q 1050 289 1050 388 q 1000 123 1050 192 q 865 17 950 54 q 674 -19 781 -19 z "},"Ə":{"ha":1136,"x_min":47,"x_max":1088,"o":"m 568 -19 q 358 17 454 -19 q 193 123 263 54 q 85 287 124 192 q 47 497 47 382 l 47 547 l 840 547 l 840 382 l 236 382 l 325 447 q 341 340 325 388 q 389 259 357 293 q 465 207 421 225 q 568 189 510 189 q 671 207 626 189 q 747 259 715 225 q 794 340 778 293 q 811 446 811 386 l 811 497 q 791 605 811 556 q 735 690 771 654 q 651 744 700 725 q 544 764 603 764 q 452 751 501 764 q 358 713 403 739 q 279 650 313 688 l 117 822 q 231 909 163 871 q 380 969 299 947 q 547 992 461 992 q 765 955 665 992 q 937 850 864 918 q 1049 690 1010 782 q 1088 486 1088 597 q 1049 282 1088 375 q 940 122 1010 189 q 776 17 871 54 q 568 -19 681 -19 z "},"T":{"ha":882,"x_min":6,"x_max":876,"o":"m 304 0 l 304 754 l 6 754 l 6 972 l 876 972 l 876 754 l 579 754 l 579 0 l 304 0 z "},"Ŧ":{"ha":882,"x_min":6,"x_max":876,"o":"m 304 0 l 304 754 l 6 754 l 6 972 l 876 972 l 876 754 l 579 754 l 579 0 l 304 0 m 129 363 l 129 532 l 754 532 l 754 363 l 129 363 z "},"Ť":{"ha":882,"x_min":6,"x_max":876,"o":"m 304 0 l 304 754 l 6 754 l 6 972 l 876 972 l 876 754 l 579 754 l 579 0 l 304 0 z "},"Ţ":{"ha":882,"x_min":6,"x_max":876,"o":"m 304 0 l 304 754 l 6 754 l 6 972 l 876 972 l 876 754 l 579 754 l 579 0 l 304 0 m 390 -328 q 319 -319 356 -328 q 258 -299 282 -311 l 294 -194 q 334 -208 313 -203 q 381 -214 356 -214 q 434 -203 418 -214 q 450 -175 450 -192 q 435 -149 450 -158 q 388 -140 421 -140 l 336 -140 l 372 13 l 510 13 l 490 -71 q 582 -111 554 -78 q 610 -183 610 -144 q 550 -289 610 -250 q 390 -328 490 -328 z "},"Ț":{"ha":882,"x_min":6,"x_max":876,"o":"m 304 0 l 304 754 l 6 754 l 6 972 l 876 972 l 876 754 l 579 754 l 579 0 l 304 0 m 351 -372 l 413 -183 l 442 -271 q 360 -246 388 -271 q 332 -179 332 -221 q 361 -112 332 -137 q 442 -86 390 -86 q 522 -112 493 -86 q 551 -179 551 -137 q 546 -222 551 -197 q 522 -279 540 -246 l 471 -372 l 351 -372 z "},"Ṭ":{"ha":882,"x_min":6,"x_max":876,"o":"m 304 0 l 304 754 l 6 754 l 6 972 l 876 972 l 876 754 l 579 754 l 579 0 l 304 0 m 442 -303 q 364 -274 396 -303 q 332 -196 332 -244 q 364 -117 332 -147 q 442 -86 396 -86 q 519 -117 488 -86 q 551 -196 551 -147 q 519 -274 551 -244 q 442 -303 488 -303 z "},"Ṯ":{"ha":882,"x_min":6,"x_max":876,"o":"m 304 0 l 304 754 l 6 754 l 6 972 l 876 972 l 876 754 l 579 754 l 579 0 l 304 0 m 168 -260 l 168 -118 l 715 -118 l 715 -260 l 168 -260 z "},"U":{"ha":1092,"x_min":89,"x_max":1003,"o":"m 546 -19 q 210 99 331 -19 q 89 433 89 217 l 89 972 l 364 972 l 364 442 q 413 263 364 317 q 549 208 463 208 q 683 263 635 208 q 732 442 732 317 l 732 972 l 1003 972 l 1003 433 q 882 99 1003 217 q 546 -19 761 -19 z "},"Ú":{"ha":1092,"x_min":89,"x_max":1003,"o":"m 546 -19 q 210 99 331 -19 q 89 433 89 217 l 89 972 l 364 972 l 364 442 q 413 263 364 317 q 549 208 463 208 q 683 263 635 208 q 732 442 732 317 l 732 972 l 1003 972 l 1003 433 q 882 99 1003 217 q 546 -19 761 -19 z "},"Ŭ":{"ha":1092,"x_min":89,"x_max":1003,"o":"m 546 -19 q 210 99 331 -19 q 89 433 89 217 l 89 972 l 364 972 l 364 442 q 413 263 364 317 q 549 208 463 208 q 683 263 635 208 q 732 442 732 317 l 732 972 l 1003 972 l 1003 433 q 882 99 1003 217 q 546 -19 761 -19 z "},"Ǔ":{"ha":1092,"x_min":89,"x_max":1003,"o":"m 546 -19 q 210 99 331 -19 q 89 433 89 217 l 89 972 l 364 972 l 364 442 q 413 263 364 317 q 549 208 463 208 q 683 263 635 208 q 732 442 732 317 l 732 972 l 1003 972 l 1003 433 q 882 99 1003 217 q 546 -19 761 -19 z "},"Û":{"ha":1092,"x_min":89,"x_max":1003,"o":"m 546 -19 q 210 99 331 -19 q 89 433 89 217 l 89 972 l 364 972 l 364 442 q 413 263 364 317 q 549 208 463 208 q 683 263 635 208 q 732 442 732 317 l 732 972 l 1003 972 l 1003 433 q 882 99 1003 217 q 546 -19 761 -19 z "},"Ȕ":{"ha":1092,"x_min":89,"x_max":1003,"o":"m 546 -19 q 210 99 331 -19 q 89 433 89 217 l 89 972 l 364 972 l 364 442 q 413 263 364 317 q 549 208 463 208 q 683 263 635 208 q 732 442 732 317 l 732 972 l 1003 972 l 1003 433 q 882 99 1003 217 q 546 -19 761 -19 z "},"Ü":{"ha":1092,"x_min":89,"x_max":1003,"o":"m 546 -19 q 210 99 331 -19 q 89 433 89 217 l 89 972 l 364 972 l 364 442 q 413 263 364 317 q 549 208 463 208 q 683 263 635 208 q 732 442 732 317 l 732 972 l 1003 972 l 1003 433 q 882 99 1003 217 q 546 -19 761 -19 z "},"Ụ":{"ha":1092,"x_min":89,"x_max":1003,"o":"m 546 -19 q 210 99 331 -19 q 89 433 89 217 l 89 972 l 364 972 l 364 442 q 413 263 364 317 q 549 208 463 208 q 683 263 635 208 q 732 442 732 317 l 732 972 l 1003 972 l 1003 433 q 882 99 1003 217 q 546 -19 761 -19 m 549 -303 q 471 -274 503 -303 q 439 -196 439 -244 q 471 -117 439 -147 q 549 -86 503 -86 q 626 -117 594 -86 q 658 -196 658 -147 q 626 -274 658 -244 q 549 -303 594 -303 z "},"Ù":{"ha":1092,"x_min":89,"x_max":1003,"o":"m 546 -19 q 210 99 331 -19 q 89 433 89 217 l 89 972 l 364 972 l 364 442 q 413 263 364 317 q 549 208 463 208 q 683 263 635 208 q 732 442 732 317 l 732 972 l 1003 972 l 1003 433 q 882 99 1003 217 q 546 -19 761 -19 z "},"Ủ":{"ha":1092,"x_min":89,"x_max":1003,"o":"m 546 -19 q 210 99 331 -19 q 89 433 89 217 l 89 972 l 364 972 l 364 442 q 413 263 364 317 q 549 208 463 208 q 683 263 635 208 q 732 442 732 317 l 732 972 l 1003 972 l 1003 433 q 882 99 1003 217 q 546 -19 761 -19 z "},"Ư":{"ha":1114,"x_min":89,"x_max":1158,"o":"m 546 -19 q 210 99 331 -19 q 89 433 89 217 l 89 972 l 364 972 l 364 442 q 413 263 364 317 q 549 208 463 208 q 683 263 635 208 q 732 442 732 317 l 732 972 l 1003 972 l 1003 433 q 882 99 1003 217 q 546 -19 761 -19 m 860 806 l 860 972 l 907 972 q 963 997 940 972 q 986 1060 986 1021 q 978 1105 986 1083 q 958 1140 971 1126 l 1111 1194 q 1147 1129 1133 1165 q 1160 1049 1160 1093 q 1090 869 1160 933 q 897 806 1021 806 l 860 806 z "},"Ứ":{"ha":1114,"x_min":89,"x_max":1158,"o":"m 546 -19 q 210 99 331 -19 q 89 433 89 217 l 89 972 l 364 972 l 364 442 q 413 263 364 317 q 549 208 463 208 q 683 263 635 208 q 732 442 732 317 l 732 972 l 1003 972 l 1003 433 q 882 99 1003 217 q 546 -19 761 -19 m 860 806 l 860 972 l 907 972 q 963 997 940 972 q 986 1060 986 1021 q 978 1105 986 1083 q 958 1140 971 1126 l 1111 1194 q 1147 1129 1133 1165 q 1160 1049 1160 1093 q 1090 869 1160 933 q 897 806 1021 806 l 860 806 z "},"Ự":{"ha":1114,"x_min":89,"x_max":1158,"o":"m 546 -19 q 210 99 331 -19 q 89 433 89 217 l 89 972 l 364 972 l 364 442 q 413 263 364 317 q 549 208 463 208 q 683 263 635 208 q 732 442 732 317 l 732 972 l 1003 972 l 1003 433 q 882 99 1003 217 q 546 -19 761 -19 m 860 806 l 860 972 l 907 972 q 963 997 940 972 q 986 1060 986 1021 q 978 1105 986 1083 q 958 1140 971 1126 l 1111 1194 q 1147 1129 1133 1165 q 1160 1049 1160 1093 q 1090 869 1160 933 q 897 806 1021 806 l 860 806 m 549 -303 q 471 -274 503 -303 q 439 -196 439 -244 q 471 -117 439 -147 q 549 -86 503 -86 q 626 -117 594 -86 q 658 -196 658 -147 q 626 -274 658 -244 q 549 -303 594 -303 z "},"Ừ":{"ha":1114,"x_min":89,"x_max":1158,"o":"m 546 -19 q 210 99 331 -19 q 89 433 89 217 l 89 972 l 364 972 l 364 442 q 413 263 364 317 q 549 208 463 208 q 683 263 635 208 q 732 442 732 317 l 732 972 l 1003 972 l 1003 433 q 882 99 1003 217 q 546 -19 761 -19 m 860 806 l 860 972 l 907 972 q 963 997 940 972 q 986 1060 986 1021 q 978 1105 986 1083 q 958 1140 971 1126 l 1111 1194 q 1147 1129 1133 1165 q 1160 1049 1160 1093 q 1090 869 1160 933 q 897 806 1021 806 l 860 806 z "},"Ử":{"ha":1114,"x_min":89,"x_max":1158,"o":"m 546 -19 q 210 99 331 -19 q 89 433 89 217 l 89 972 l 364 972 l 364 442 q 413 263 364 317 q 549 208 463 208 q 683 263 635 208 q 732 442 732 317 l 732 972 l 1003 972 l 1003 433 q 882 99 1003 217 q 546 -19 761 -19 m 860 806 l 860 972 l 907 972 q 963 997 940 972 q 986 1060 986 1021 q 978 1105 986 1083 q 958 1140 971 1126 l 1111 1194 q 1147 1129 1133 1165 q 1160 1049 1160 1093 q 1090 869 1160 933 q 897 806 1021 806 l 860 806 z "},"Ữ":{"ha":1114,"x_min":89,"x_max":1158,"o":"m 546 -19 q 210 99 331 -19 q 89 433 89 217 l 89 972 l 364 972 l 364 442 q 413 263 364 317 q 549 208 463 208 q 683 263 635 208 q 732 442 732 317 l 732 972 l 1003 972 l 1003 433 q 882 99 1003 217 q 546 -19 761 -19 m 860 806 l 860 972 l 907 972 q 963 997 940 972 q 986 1060 986 1021 q 978 1105 986 1083 q 958 1140 971 1126 l 1111 1194 q 1147 1129 1133 1165 q 1160 1049 1160 1093 q 1090 869 1160 933 q 897 806 1021 806 l 860 806 z "},"Ű":{"ha":1092,"x_min":89,"x_max":1003,"o":"m 546 -19 q 210 99 331 -19 q 89 433 89 217 l 89 972 l 364 972 l 364 442 q 413 263 364 317 q 549 208 463 208 q 683 263 635 208 q 732 442 732 317 l 732 972 l 1003 972 l 1003 433 q 882 99 1003 217 q 546 -19 761 -19 z "},"Ȗ":{"ha":1092,"x_min":89,"x_max":1003,"o":"m 546 -19 q 210 99 331 -19 q 89 433 89 217 l 89 972 l 364 972 l 364 442 q 413 263 364 317 q 549 208 463 208 q 683 263 635 208 q 732 442 732 317 l 732 972 l 1003 972 l 1003 433 q 882 99 1003 217 q 546 -19 761 -19 z "},"Ū":{"ha":1092,"x_min":89,"x_max":1003,"o":"m 546 -19 q 210 99 331 -19 q 89 433 89 217 l 89 972 l 364 972 l 364 442 q 413 263 364 317 q 549 208 463 208 q 683 263 635 208 q 732 442 732 317 l 732 972 l 1003 972 l 1003 433 q 882 99 1003 217 q 546 -19 761 -19 z "},"Ṻ":{"ha":1092,"x_min":89,"x_max":1003,"o":"m 546 -19 q 210 99 331 -19 q 89 433 89 217 l 89 972 l 364 972 l 364 442 q 413 263 364 317 q 549 208 463 208 q 683 263 635 208 q 732 442 732 317 l 732 972 l 1003 972 l 1003 433 q 882 99 1003 217 q 546 -19 761 -19 z "},"Ų":{"ha":1092,"x_min":89,"x_max":1003,"o":"m 732 972 l 1003 972 l 1003 433 q 930 158 1003 261 q 739 10 857 56 q 620 -46 663 -19 q 562 -95 578 -72 q 546 -142 546 -118 q 565 -185 546 -168 q 622 -203 583 -203 q 667 -197 646 -203 q 704 -182 689 -190 l 739 -296 q 674 -319 714 -310 q 592 -328 633 -328 q 440 -283 493 -328 q 386 -165 386 -237 q 410 -75 386 -117 q 485 2 435 -33 q 608 63 535 38 l 613 -17 q 579 -19 596 -18 q 546 -19 563 -19 q 210 99 331 -19 q 89 433 89 217 l 89 972 l 364 972 l 364 442 q 413 263 364 317 q 549 208 463 208 q 683 263 635 208 q 732 442 732 317 l 732 972 z "},"Ů":{"ha":1092,"x_min":89,"x_max":1003,"o":"m 546 -19 q 210 99 331 -19 q 89 433 89 217 l 89 972 l 364 972 l 364 442 q 413 263 364 317 q 549 208 463 208 q 683 263 635 208 q 732 442 732 317 l 732 972 l 1003 972 l 1003 433 q 882 99 1003 217 q 546 -19 761 -19 m 549 1040 q 456 1064 497 1040 q 390 1128 414 1088 q 365 1217 365 1168 q 390 1306 365 1267 q 456 1370 414 1346 q 549 1394 497 1394 q 642 1370 601 1394 q 708 1306 683 1346 q 732 1217 732 1267 q 708 1128 732 1168 q 642 1064 683 1088 q 549 1040 600 1040 m 549 1138 q 606 1160 583 1138 q 628 1217 628 1182 q 605 1274 628 1251 q 549 1297 582 1297 q 492 1275 515 1297 q 469 1217 469 1253 q 492 1160 469 1182 q 549 1138 515 1138 z "},"Ũ":{"ha":1092,"x_min":89,"x_max":1003,"o":"m 546 -19 q 210 99 331 -19 q 89 433 89 217 l 89 972 l 364 972 l 364 442 q 413 263 364 317 q 549 208 463 208 q 683 263 635 208 q 732 442 732 317 l 732 972 l 1003 972 l 1003 433 q 882 99 1003 217 q 546 -19 761 -19 z "},"Ṹ":{"ha":1092,"x_min":89,"x_max":1003,"o":"m 546 -19 q 210 99 331 -19 q 89 433 89 217 l 89 972 l 364 972 l 364 442 q 413 263 364 317 q 549 208 463 208 q 683 263 635 208 q 732 442 732 317 l 732 972 l 1003 972 l 1003 433 q 882 99 1003 217 q 546 -19 761 -19 z "},"V":{"ha":1064,"x_min":-19,"x_max":1083,"o":"m 396 0 l -19 972 l 278 972 l 628 131 l 453 131 l 811 972 l 1083 972 l 667 0 l 396 0 z "},"W":{"ha":1644,"x_min":22,"x_max":1622,"o":"m 338 0 l 22 972 l 306 972 l 571 131 l 428 131 l 707 972 l 960 972 l 1224 131 l 1086 131 l 1360 972 l 1622 972 l 1307 0 l 1013 0 l 788 715 l 867 715 l 632 0 l 338 0 z "},"Ẃ":{"ha":1644,"x_min":22,"x_max":1622,"o":"m 338 0 l 22 972 l 306 972 l 571 131 l 428 131 l 707 972 l 960 972 l 1224 131 l 1086 131 l 1360 972 l 1622 972 l 1307 0 l 1013 0 l 788 715 l 867 715 l 632 0 l 338 0 z "},"Ŵ":{"ha":1644,"x_min":22,"x_max":1622,"o":"m 338 0 l 22 972 l 306 972 l 571 131 l 428 131 l 707 972 l 960 972 l 1224 131 l 1086 131 l 1360 972 l 1622 972 l 1307 0 l 1013 0 l 788 715 l 867 715 l 632 0 l 338 0 z "},"Ẅ":{"ha":1644,"x_min":22,"x_max":1622,"o":"m 338 0 l 22 972 l 306 972 l 571 131 l 428 131 l 707 972 l 960 972 l 1224 131 l 1086 131 l 1360 972 l 1622 972 l 1307 0 l 1013 0 l 788 715 l 867 715 l 632 0 l 338 0 z "},"Ẁ":{"ha":1644,"x_min":22,"x_max":1622,"o":"m 338 0 l 22 972 l 306 972 l 571 131 l 428 131 l 707 972 l 960 972 l 1224 131 l 1086 131 l 1360 972 l 1622 972 l 1307 0 l 1013 0 l 788 715 l 867 715 l 632 0 l 338 0 z "},"X":{"ha":1024,"x_min":-3,"x_max":1028,"o":"m -3 0 l 422 590 l 421 394 l 13 972 l 322 972 l 583 596 l 451 594 l 708 972 l 1006 972 l 597 406 l 597 600 l 1028 0 l 711 0 l 446 396 l 572 396 l 311 0 l -3 0 z "},"Y":{"ha":963,"x_min":-28,"x_max":990,"o":"m 343 0 l 343 411 l 407 246 l -28 972 l 263 972 l 576 446 l 408 446 l 724 972 l 990 972 l 557 246 l 618 411 l 618 0 l 343 0 z "},"Ý":{"ha":963,"x_min":-28,"x_max":990,"o":"m 343 0 l 343 411 l 407 246 l -28 972 l 263 972 l 576 446 l 408 446 l 724 972 l 990 972 l 557 246 l 618 411 l 618 0 l 343 0 z "},"Ŷ":{"ha":963,"x_min":-28,"x_max":990,"o":"m 343 0 l 343 411 l 407 246 l -28 972 l 263 972 l 576 446 l 408 446 l 724 972 l 990 972 l 557 246 l 618 411 l 618 0 l 343 0 z "},"Ÿ":{"ha":963,"x_min":-28,"x_max":990,"o":"m 343 0 l 343 411 l 407 246 l -28 972 l 263 972 l 576 446 l 408 446 l 724 972 l 990 972 l 557 246 l 618 411 l 618 0 l 343 0 z "},"Ẏ":{"ha":963,"x_min":-28,"x_max":990,"o":"m 343 0 l 343 411 l 407 246 l -28 972 l 263 972 l 576 446 l 408 446 l 724 972 l 990 972 l 557 246 l 618 411 l 618 0 l 343 0 z "},"Ỵ":{"ha":963,"x_min":-28,"x_max":990,"o":"m 343 0 l 343 411 l 407 246 l -28 972 l 263 972 l 576 446 l 408 446 l 724 972 l 990 972 l 557 246 l 618 411 l 618 0 l 343 0 m 481 -303 q 403 -274 435 -303 q 371 -196 371 -244 q 403 -117 371 -147 q 481 -86 435 -86 q 558 -117 526 -86 q 590 -196 590 -147 q 558 -274 590 -244 q 481 -303 526 -303 z "},"Ỳ":{"ha":963,"x_min":-28,"x_max":990,"o":"m 343 0 l 343 411 l 407 246 l -28 972 l 263 972 l 576 446 l 408 446 l 724 972 l 990 972 l 557 246 l 618 411 l 618 0 l 343 0 z "},"Ỷ":{"ha":963,"x_min":-28,"x_max":990,"o":"m 343 0 l 343 411 l 407 246 l -28 972 l 263 972 l 576 446 l 408 446 l 724 972 l 990 972 l 557 246 l 618 411 l 618 0 l 343 0 z "},"Ȳ":{"ha":963,"x_min":-28,"x_max":990,"o":"m 343 0 l 343 411 l 407 246 l -28 972 l 263 972 l 576 446 l 408 446 l 724 972 l 990 972 l 557 246 l 618 411 l 618 0 l 343 0 z "},"Ỹ":{"ha":963,"x_min":-28,"x_max":990,"o":"m 343 0 l 343 411 l 407 246 l -28 972 l 263 972 l 576 446 l 408 446 l 724 972 l 990 972 l 557 246 l 618 411 l 618 0 l 343 0 z "},"Z":{"ha":943,"x_min":49,"x_max":919,"o":"m 49 0 l 49 172 l 621 851 l 654 754 l 61 754 l 61 972 l 899 972 l 899 800 l 326 121 l 293 218 l 919 218 l 919 0 l 49 0 z "},"Ź":{"ha":943,"x_min":49,"x_max":919,"o":"m 49 0 l 49 172 l 621 851 l 654 754 l 61 754 l 61 972 l 899 972 l 899 800 l 326 121 l 293 218 l 919 218 l 919 0 l 49 0 z "},"Ž":{"ha":943,"x_min":49,"x_max":919,"o":"m 49 0 l 49 172 l 621 851 l 654 754 l 61 754 l 61 972 l 899 972 l 899 800 l 326 121 l 293 218 l 919 218 l 919 0 l 49 0 z "},"Ż":{"ha":943,"x_min":49,"x_max":919,"o":"m 49 0 l 49 172 l 621 851 l 654 754 l 61 754 l 61 972 l 899 972 l 899 800 l 326 121 l 293 218 l 919 218 l 919 0 l 49 0 z "},"Ẓ":{"ha":943,"x_min":49,"x_max":919,"o":"m 49 0 l 49 172 l 621 851 l 654 754 l 61 754 l 61 972 l 899 972 l 899 800 l 326 121 l 293 218 l 919 218 l 919 0 l 49 0 m 488 -303 q 410 -274 442 -303 q 378 -196 378 -244 q 410 -117 378 -147 q 488 -86 442 -86 q 565 -117 533 -86 q 597 -196 597 -147 q 565 -274 597 -244 q 488 -303 533 -303 z "},"a":{"ha":872,"x_min":42,"x_max":790,"o":"m 544 0 l 544 140 l 526 175 l 526 433 q 488 530 526 496 q 367 564 450 564 q 257 547 313 564 q 163 499 201 529 l 74 678 q 227 742 138 719 q 406 765 317 765 q 690 681 589 765 q 790 418 790 597 l 790 0 l 544 0 m 322 -12 q 169 18 232 -12 q 74 101 107 49 q 42 219 42 154 q 77 340 42 289 q 186 417 113 390 q 376 444 260 444 l 554 444 l 554 307 l 413 307 q 323 286 349 307 q 297 231 297 265 q 324 175 297 196 q 396 154 350 154 q 474 176 439 154 q 526 242 510 197 l 563 144 q 481 27 542 67 q 322 -12 421 -12 z "},"á":{"ha":872,"x_min":42,"x_max":790,"o":"m 544 0 l 544 140 l 526 175 l 526 433 q 488 530 526 496 q 367 564 450 564 q 257 547 313 564 q 163 499 201 529 l 74 678 q 227 742 138 719 q 406 765 317 765 q 690 681 589 765 q 790 418 790 597 l 790 0 l 544 0 m 322 -12 q 169 18 232 -12 q 74 101 107 49 q 42 219 42 154 q 77 340 42 289 q 186 417 113 390 q 376 444 260 444 l 554 444 l 554 307 l 413 307 q 323 286 349 307 q 297 231 297 265 q 324 175 297 196 q 396 154 350 154 q 474 176 439 154 q 526 242 510 197 l 563 144 q 481 27 542 67 q 322 -12 421 -12 m 299 843 l 485 1054 l 749 1054 l 488 843 l 299 843 z "},"ă":{"ha":872,"x_min":42,"x_max":790,"o":"m 544 0 l 544 140 l 526 175 l 526 433 q 488 530 526 496 q 367 564 450 564 q 257 547 313 564 q 163 499 201 529 l 74 678 q 227 742 138 719 q 406 765 317 765 q 690 681 589 765 q 790 418 790 597 l 790 0 l 544 0 m 322 -12 q 169 18 232 -12 q 74 101 107 49 q 42 219 42 154 q 77 340 42 289 q 186 417 113 390 q 376 444 260 444 l 554 444 l 554 307 l 413 307 q 323 286 349 307 q 297 231 297 265 q 324 175 297 196 q 396 154 350 154 q 474 176 439 154 q 526 242 510 197 l 563 144 q 481 27 542 67 q 322 -12 421 -12 m 435 831 q 242 890 318 831 q 163 1054 167 950 l 324 1054 q 358 987 326 1011 q 435 963 389 963 q 513 987 481 963 q 546 1054 544 1011 l 707 1054 q 627 890 703 950 q 435 831 551 831 z "},"ắ":{"ha":872,"x_min":42,"x_max":790,"o":"m 544 0 l 544 140 l 526 175 l 526 433 q 488 530 526 496 q 367 564 450 564 q 257 547 313 564 q 163 499 201 529 l 74 678 q 227 742 138 719 q 406 765 317 765 q 690 681 589 765 q 790 418 790 597 l 790 0 l 544 0 m 322 -12 q 169 18 232 -12 q 74 101 107 49 q 42 219 42 154 q 77 340 42 289 q 186 417 113 390 q 376 444 260 444 l 554 444 l 554 307 l 413 307 q 323 286 349 307 q 297 231 297 265 q 324 175 297 196 q 396 154 350 154 q 474 176 439 154 q 526 242 510 197 l 563 144 q 481 27 542 67 q 322 -12 421 -12 z "},"ặ":{"ha":872,"x_min":42,"x_max":790,"o":"m 544 0 l 544 140 l 526 175 l 526 433 q 488 530 526 496 q 367 564 450 564 q 257 547 313 564 q 163 499 201 529 l 74 678 q 227 742 138 719 q 406 765 317 765 q 690 681 589 765 q 790 418 790 597 l 790 0 l 544 0 m 322 -12 q 169 18 232 -12 q 74 101 107 49 q 42 219 42 154 q 77 340 42 289 q 186 417 113 390 q 376 444 260 444 l 554 444 l 554 307 l 413 307 q 323 286 349 307 q 297 231 297 265 q 324 175 297 196 q 396 154 350 154 q 474 176 439 154 q 526 242 510 197 l 563 144 q 481 27 542 67 q 322 -12 421 -12 m 411 -303 q 333 -274 365 -303 q 301 -196 301 -244 q 333 -117 301 -147 q 411 -86 365 -86 q 489 -117 457 -86 q 521 -196 521 -147 q 489 -274 521 -244 q 411 -303 457 -303 m 435 831 q 242 890 318 831 q 163 1054 167 950 l 324 1054 q 358 987 326 1011 q 435 963 389 963 q 513 987 481 963 q 546 1054 544 1011 l 707 1054 q 627 890 703 950 q 435 831 551 831 z "},"ằ":{"ha":872,"x_min":42,"x_max":790,"o":"m 544 0 l 544 140 l 526 175 l 526 433 q 488 530 526 496 q 367 564 450 564 q 257 547 313 564 q 163 499 201 529 l 74 678 q 227 742 138 719 q 406 765 317 765 q 690 681 589 765 q 790 418 790 597 l 790 0 l 544 0 m 322 -12 q 169 18 232 -12 q 74 101 107 49 q 42 219 42 154 q 77 340 42 289 q 186 417 113 390 q 376 444 260 444 l 554 444 l 554 307 l 413 307 q 323 286 349 307 q 297 231 297 265 q 324 175 297 196 q 396 154 350 154 q 474 176 439 154 q 526 242 510 197 l 563 144 q 481 27 542 67 q 322 -12 421 -12 z "},"ẳ":{"ha":872,"x_min":42,"x_max":790,"o":"m 544 0 l 544 140 l 526 175 l 526 433 q 488 530 526 496 q 367 564 450 564 q 257 547 313 564 q 163 499 201 529 l 74 678 q 227 742 138 719 q 406 765 317 765 q 690 681 589 765 q 790 418 790 597 l 790 0 l 544 0 m 322 -12 q 169 18 232 -12 q 74 101 107 49 q 42 219 42 154 q 77 340 42 289 q 186 417 113 390 q 376 444 260 444 l 554 444 l 554 307 l 413 307 q 323 286 349 307 q 297 231 297 265 q 324 175 297 196 q 396 154 350 154 q 474 176 439 154 q 526 242 510 197 l 563 144 q 481 27 542 67 q 322 -12 421 -12 z "},"ẵ":{"ha":872,"x_min":42,"x_max":790,"o":"m 544 0 l 544 140 l 526 175 l 526 433 q 488 530 526 496 q 367 564 450 564 q 257 547 313 564 q 163 499 201 529 l 74 678 q 227 742 138 719 q 406 765 317 765 q 690 681 589 765 q 790 418 790 597 l 790 0 l 544 0 m 322 -12 q 169 18 232 -12 q 74 101 107 49 q 42 219 42 154 q 77 340 42 289 q 186 417 113 390 q 376 444 260 444 l 554 444 l 554 307 l 413 307 q 323 286 349 307 q 297 231 297 265 q 324 175 297 196 q 396 154 350 154 q 474 176 439 154 q 526 242 510 197 l 563 144 q 481 27 542 67 q 322 -12 421 -12 z "},"ǎ":{"ha":872,"x_min":42,"x_max":790,"o":"m 544 0 l 544 140 l 526 175 l 526 433 q 488 530 526 496 q 367 564 450 564 q 257 547 313 564 q 163 499 201 529 l 74 678 q 227 742 138 719 q 406 765 317 765 q 690 681 589 765 q 790 418 790 597 l 790 0 l 544 0 m 322 -12 q 169 18 232 -12 q 74 101 107 49 q 42 219 42 154 q 77 340 42 289 q 186 417 113 390 q 376 444 260 444 l 554 444 l 554 307 l 413 307 q 323 286 349 307 q 297 231 297 265 q 324 175 297 196 q 396 154 350 154 q 474 176 439 154 q 526 242 510 197 l 563 144 q 481 27 542 67 q 322 -12 421 -12 m 321 843 l 140 1054 l 315 1054 l 511 882 l 358 882 l 554 1054 l 729 1054 l 549 843 l 321 843 z "},"â":{"ha":872,"x_min":42,"x_max":790,"o":"m 544 0 l 544 140 l 526 175 l 526 433 q 488 530 526 496 q 367 564 450 564 q 257 547 313 564 q 163 499 201 529 l 74 678 q 227 742 138 719 q 406 765 317 765 q 690 681 589 765 q 790 418 790 597 l 790 0 l 544 0 m 322 -12 q 169 18 232 -12 q 74 101 107 49 q 42 219 42 154 q 77 340 42 289 q 186 417 113 390 q 376 444 260 444 l 554 444 l 554 307 l 413 307 q 323 286 349 307 q 297 231 297 265 q 324 175 297 196 q 396 154 350 154 q 474 176 439 154 q 526 242 510 197 l 563 144 q 481 27 542 67 q 322 -12 421 -12 m 140 843 l 321 1054 l 549 1054 l 729 843 l 554 843 l 358 1017 l 511 1017 l 315 843 l 140 843 z "},"ấ":{"ha":872,"x_min":42,"x_max":1024,"o":"m 544 0 l 544 140 l 526 175 l 526 433 q 488 530 526 496 q 367 564 450 564 q 257 547 313 564 q 163 499 201 529 l 74 678 q 227 742 138 719 q 406 765 317 765 q 690 681 589 765 q 790 418 790 597 l 790 0 l 544 0 m 322 -12 q 169 18 232 -12 q 74 101 107 49 q 42 219 42 154 q 77 340 42 289 q 186 417 113 390 q 376 444 260 444 l 554 444 l 554 307 l 413 307 q 323 286 349 307 q 297 231 297 265 q 324 175 297 196 q 396 154 350 154 q 474 176 439 154 q 526 242 510 197 l 563 144 q 481 27 542 67 q 322 -12 421 -12 z "},"ậ":{"ha":872,"x_min":42,"x_max":790,"o":"m 544 0 l 544 140 l 526 175 l 526 433 q 488 530 526 496 q 367 564 450 564 q 257 547 313 564 q 163 499 201 529 l 74 678 q 227 742 138 719 q 406 765 317 765 q 690 681 589 765 q 790 418 790 597 l 790 0 l 544 0 m 322 -12 q 169 18 232 -12 q 74 101 107 49 q 42 219 42 154 q 77 340 42 289 q 186 417 113 390 q 376 444 260 444 l 554 444 l 554 307 l 413 307 q 323 286 349 307 q 297 231 297 265 q 324 175 297 196 q 396 154 350 154 q 474 176 439 154 q 526 242 510 197 l 563 144 q 481 27 542 67 q 322 -12 421 -12 m 411 -303 q 333 -274 365 -303 q 301 -196 301 -244 q 333 -117 301 -147 q 411 -86 365 -86 q 489 -117 457 -86 q 521 -196 521 -147 q 489 -274 521 -244 q 411 -303 457 -303 m 140 843 l 321 1054 l 549 1054 l 729 843 l 554 843 l 358 1017 l 511 1017 l 315 843 l 140 843 z "},"ầ":{"ha":872,"x_min":42,"x_max":882,"o":"m 544 0 l 544 140 l 526 175 l 526 433 q 488 530 526 496 q 367 564 450 564 q 257 547 313 564 q 163 499 201 529 l 74 678 q 227 742 138 719 q 406 765 317 765 q 690 681 589 765 q 790 418 790 597 l 790 0 l 544 0 m 322 -12 q 169 18 232 -12 q 74 101 107 49 q 42 219 42 154 q 77 340 42 289 q 186 417 113 390 q 376 444 260 444 l 554 444 l 554 307 l 413 307 q 323 286 349 307 q 297 231 297 265 q 324 175 297 196 q 396 154 350 154 q 474 176 439 154 q 526 242 510 197 l 563 144 q 481 27 542 67 q 322 -12 421 -12 z "},"ẩ":{"ha":872,"x_min":42,"x_max":810,"o":"m 544 0 l 544 140 l 526 175 l 526 433 q 488 530 526 496 q 367 564 450 564 q 257 547 313 564 q 163 499 201 529 l 74 678 q 227 742 138 719 q 406 765 317 765 q 690 681 589 765 q 790 418 790 597 l 790 0 l 544 0 m 322 -12 q 169 18 232 -12 q 74 101 107 49 q 42 219 42 154 q 77 340 42 289 q 186 417 113 390 q 376 444 260 444 l 554 444 l 554 307 l 413 307 q 323 286 349 307 q 297 231 297 265 q 324 175 297 196 q 396 154 350 154 q 474 176 439 154 q 526 242 510 197 l 563 144 q 481 27 542 67 q 322 -12 421 -12 z "},"ẫ":{"ha":872,"x_min":42,"x_max":790,"o":"m 544 0 l 544 140 l 526 175 l 526 433 q 488 530 526 496 q 367 564 450 564 q 257 547 313 564 q 163 499 201 529 l 74 678 q 227 742 138 719 q 406 765 317 765 q 690 681 589 765 q 790 418 790 597 l 790 0 l 544 0 m 322 -12 q 169 18 232 -12 q 74 101 107 49 q 42 219 42 154 q 77 340 42 289 q 186 417 113 390 q 376 444 260 444 l 554 444 l 554 307 l 413 307 q 323 286 349 307 q 297 231 297 265 q 324 175 297 196 q 396 154 350 154 q 474 176 439 154 q 526 242 510 197 l 563 144 q 481 27 542 67 q 322 -12 421 -12 z "},"ȁ":{"ha":872,"x_min":42,"x_max":790,"o":"m 544 0 l 544 140 l 526 175 l 526 433 q 488 530 526 496 q 367 564 450 564 q 257 547 313 564 q 163 499 201 529 l 74 678 q 227 742 138 719 q 406 765 317 765 q 690 681 589 765 q 790 418 790 597 l 790 0 l 544 0 m 322 -12 q 169 18 232 -12 q 74 101 107 49 q 42 219 42 154 q 77 340 42 289 q 186 417 113 390 q 376 444 260 444 l 554 444 l 554 307 l 413 307 q 323 286 349 307 q 297 231 297 265 q 324 175 297 196 q 396 154 350 154 q 474 176 439 154 q 526 242 510 197 l 563 144 q 481 27 542 67 q 322 -12 421 -12 m 494 843 l 354 1054 l 590 1054 l 678 843 l 494 843 m 192 843 l 53 1054 l 289 1054 l 375 843 l 192 843 z "},"ä":{"ha":872,"x_min":42,"x_max":790,"o":"m 544 0 l 544 140 l 526 175 l 526 433 q 488 530 526 496 q 367 564 450 564 q 257 547 313 564 q 163 499 201 529 l 74 678 q 227 742 138 719 q 406 765 317 765 q 690 681 589 765 q 790 418 790 597 l 790 0 l 544 0 m 322 -12 q 169 18 232 -12 q 74 101 107 49 q 42 219 42 154 q 77 340 42 289 q 186 417 113 390 q 376 444 260 444 l 554 444 l 554 307 l 413 307 q 323 286 349 307 q 297 231 297 265 q 324 175 297 196 q 396 154 350 154 q 474 176 439 154 q 526 242 510 197 l 563 144 q 481 27 542 67 q 322 -12 421 -12 m 582 842 q 504 872 536 842 q 472 950 472 901 q 504 1029 472 999 q 582 1060 536 1060 q 660 1029 628 1060 q 692 950 692 999 q 660 872 692 901 q 582 842 628 842 m 288 842 q 210 872 242 842 q 178 950 178 901 q 210 1029 178 999 q 288 1060 242 1060 q 365 1029 333 1060 q 397 950 397 999 q 365 872 397 901 q 288 842 333 842 z "},"ạ":{"ha":872,"x_min":42,"x_max":790,"o":"m 544 0 l 544 140 l 526 175 l 526 433 q 488 530 526 496 q 367 564 450 564 q 257 547 313 564 q 163 499 201 529 l 74 678 q 227 742 138 719 q 406 765 317 765 q 690 681 589 765 q 790 418 790 597 l 790 0 l 544 0 m 322 -12 q 169 18 232 -12 q 74 101 107 49 q 42 219 42 154 q 77 340 42 289 q 186 417 113 390 q 376 444 260 444 l 554 444 l 554 307 l 413 307 q 323 286 349 307 q 297 231 297 265 q 324 175 297 196 q 396 154 350 154 q 474 176 439 154 q 526 242 510 197 l 563 144 q 481 27 542 67 q 322 -12 421 -12 m 411 -303 q 333 -274 365 -303 q 301 -196 301 -244 q 333 -117 301 -147 q 411 -86 365 -86 q 489 -117 457 -86 q 521 -196 521 -147 q 489 -274 521 -244 q 411 -303 457 -303 z "},"à":{"ha":872,"x_min":42,"x_max":790,"o":"m 544 0 l 544 140 l 526 175 l 526 433 q 488 530 526 496 q 367 564 450 564 q 257 547 313 564 q 163 499 201 529 l 74 678 q 227 742 138 719 q 406 765 317 765 q 690 681 589 765 q 790 418 790 597 l 790 0 l 544 0 m 322 -12 q 169 18 232 -12 q 74 101 107 49 q 42 219 42 154 q 77 340 42 289 q 186 417 113 390 q 376 444 260 444 l 554 444 l 554 307 l 413 307 q 323 286 349 307 q 297 231 297 265 q 324 175 297 196 q 396 154 350 154 q 474 176 439 154 q 526 242 510 197 l 563 144 q 481 27 542 67 q 322 -12 421 -12 m 382 843 l 121 1054 l 385 1054 l 571 843 l 382 843 z "},"ả":{"ha":872,"x_min":42,"x_max":790,"o":"m 544 0 l 544 140 l 526 175 l 526 433 q 488 530 526 496 q 367 564 450 564 q 257 547 313 564 q 163 499 201 529 l 74 678 q 227 742 138 719 q 406 765 317 765 q 690 681 589 765 q 790 418 790 597 l 790 0 l 544 0 m 322 -12 q 169 18 232 -12 q 74 101 107 49 q 42 219 42 154 q 77 340 42 289 q 186 417 113 390 q 376 444 260 444 l 554 444 l 554 307 l 413 307 q 323 286 349 307 q 297 231 297 265 q 324 175 297 196 q 396 154 350 154 q 474 176 439 154 q 526 242 510 197 l 563 144 q 481 27 542 67 q 322 -12 421 -12 m 485 829 l 404 910 q 458 949 444 929 q 472 990 472 969 q 455 1031 472 1017 q 410 1046 438 1046 q 329 1018 369 1046 l 275 1121 q 351 1159 308 1146 q 439 1172 394 1172 q 570 1128 519 1172 q 621 1013 621 1083 q 586 904 621 949 q 485 829 551 860 z "},"ȃ":{"ha":872,"x_min":42,"x_max":790,"o":"m 544 0 l 544 140 l 526 175 l 526 433 q 488 530 526 496 q 367 564 450 564 q 257 547 313 564 q 163 499 201 529 l 74 678 q 227 742 138 719 q 406 765 317 765 q 690 681 589 765 q 790 418 790 597 l 790 0 l 544 0 m 322 -12 q 169 18 232 -12 q 74 101 107 49 q 42 219 42 154 q 77 340 42 289 q 186 417 113 390 q 376 444 260 444 l 554 444 l 554 307 l 413 307 q 323 286 349 307 q 297 231 297 265 q 324 175 297 196 q 396 154 350 154 q 474 176 439 154 q 526 242 510 197 l 563 144 q 481 27 542 67 q 322 -12 421 -12 m 163 843 q 242 1007 167 947 q 435 1067 318 1067 q 627 1007 551 1067 q 707 843 703 947 l 546 843 q 513 910 544 885 q 435 935 481 935 q 358 910 389 935 q 324 843 326 885 l 163 843 z "},"ā":{"ha":872,"x_min":42,"x_max":790,"o":"m 544 0 l 544 140 l 526 175 l 526 433 q 488 530 526 496 q 367 564 450 564 q 257 547 313 564 q 163 499 201 529 l 74 678 q 227 742 138 719 q 406 765 317 765 q 690 681 589 765 q 790 418 790 597 l 790 0 l 544 0 m 322 -12 q 169 18 232 -12 q 74 101 107 49 q 42 219 42 154 q 77 340 42 289 q 186 417 113 390 q 376 444 260 444 l 554 444 l 554 307 l 413 307 q 323 286 349 307 q 297 231 297 265 q 324 175 297 196 q 396 154 350 154 q 474 176 439 154 q 526 242 510 197 l 563 144 q 481 27 542 67 q 322 -12 421 -12 m 161 878 l 161 1019 l 708 1019 l 708 878 l 161 878 z "},"ą":{"ha":872,"x_min":42,"x_max":824,"o":"m 544 0 l 544 140 l 526 175 l 526 433 q 488 530 526 496 q 367 564 450 564 q 257 547 313 564 q 163 499 201 529 l 74 678 q 227 742 138 719 q 406 765 317 765 q 690 681 589 765 q 790 418 790 597 l 790 0 l 544 0 m 322 -12 q 169 18 232 -12 q 74 101 107 49 q 42 219 42 154 q 77 340 42 289 q 186 417 113 390 q 376 444 260 444 l 554 444 l 554 307 l 413 307 q 323 286 349 307 q 297 231 297 265 q 324 175 297 196 q 396 154 350 154 q 474 176 439 154 q 526 242 510 197 l 563 144 q 481 27 542 67 q 322 -12 421 -12 m 676 -328 q 525 -283 579 -328 q 471 -165 471 -237 q 496 -75 471 -117 q 570 2 521 -33 q 693 63 619 38 l 790 0 q 697 -50 732 -26 q 646 -96 661 -74 q 631 -142 631 -118 q 650 -185 631 -168 q 707 -203 669 -203 q 753 -197 731 -203 q 790 -182 775 -190 l 825 -296 q 758 -319 799 -310 q 676 -328 718 -328 z "},"å":{"ha":872,"x_min":42,"x_max":790,"o":"m 544 0 l 544 140 l 526 175 l 526 433 q 488 530 526 496 q 367 564 450 564 q 257 547 313 564 q 163 499 201 529 l 74 678 q 227 742 138 719 q 406 765 317 765 q 690 681 589 765 q 790 418 790 597 l 790 0 l 544 0 m 322 -12 q 169 18 232 -12 q 74 101 107 49 q 42 219 42 154 q 77 340 42 289 q 186 417 113 390 q 376 444 260 444 l 554 444 l 554 307 l 413 307 q 323 286 349 307 q 297 231 297 265 q 324 175 297 196 q 396 154 350 154 q 474 176 439 154 q 526 242 510 197 l 563 144 q 481 27 542 67 q 322 -12 421 -12 m 435 821 q 342 844 383 821 q 276 908 300 868 q 251 997 251 949 q 276 1087 251 1047 q 342 1151 300 1126 q 435 1175 383 1175 q 528 1151 488 1175 q 594 1087 569 1126 q 618 997 618 1047 q 594 908 618 949 q 528 844 569 868 q 435 821 486 821 m 435 918 q 492 940 469 918 q 514 997 514 963 q 491 1055 514 1032 q 435 1078 468 1078 q 378 1056 401 1078 q 356 997 356 1033 q 378 940 356 963 q 435 918 401 918 z "},"ǻ":{"ha":872,"x_min":42,"x_max":790,"o":"m 544 0 l 544 140 l 526 175 l 526 433 q 488 530 526 496 q 367 564 450 564 q 257 547 313 564 q 163 499 201 529 l 74 678 q 227 742 138 719 q 406 765 317 765 q 690 681 589 765 q 790 418 790 597 l 790 0 l 544 0 m 322 -12 q 169 18 232 -12 q 74 101 107 49 q 42 219 42 154 q 77 340 42 289 q 186 417 113 390 q 376 444 260 444 l 554 444 l 554 307 l 413 307 q 323 286 349 307 q 297 231 297 265 q 324 175 297 196 q 396 154 350 154 q 474 176 439 154 q 526 242 510 197 l 563 144 q 481 27 542 67 q 322 -12 421 -12 m 435 821 q 342 844 383 821 q 276 908 300 868 q 251 997 251 949 q 276 1087 251 1047 q 342 1151 300 1126 q 435 1175 383 1175 q 528 1151 488 1175 q 594 1087 569 1126 q 618 997 618 1047 q 594 908 618 949 q 528 844 569 868 q 435 821 486 821 m 435 918 q 492 940 469 918 q 514 997 514 963 q 491 1055 514 1032 q 435 1078 468 1078 q 378 1056 401 1078 q 356 997 356 1033 q 378 940 356 963 q 435 918 401 918 m 571 1068 l 449 1107 l 626 1292 l 756 1194 l 571 1068 z "},"ã":{"ha":872,"x_min":42,"x_max":790,"o":"m 544 0 l 544 140 l 526 175 l 526 433 q 488 530 526 496 q 367 564 450 564 q 257 547 313 564 q 163 499 201 529 l 74 678 q 227 742 138 719 q 406 765 317 765 q 690 681 589 765 q 790 418 790 597 l 790 0 l 544 0 m 322 -12 q 169 18 232 -12 q 74 101 107 49 q 42 219 42 154 q 77 340 42 289 q 186 417 113 390 q 376 444 260 444 l 554 444 l 554 307 l 413 307 q 323 286 349 307 q 297 231 297 265 q 324 175 297 196 q 396 154 350 154 q 474 176 439 154 q 526 242 510 197 l 563 144 q 481 27 542 67 q 322 -12 421 -12 m 543 833 q 477 847 506 833 q 425 876 449 860 q 382 906 401 893 q 343 919 363 919 q 299 900 315 919 q 279 846 282 881 l 150 846 q 199 1007 153 947 q 326 1067 246 1067 q 393 1054 364 1067 q 445 1024 422 1042 q 488 994 468 1007 q 526 982 508 982 q 572 1001 554 982 q 590 1051 589 1019 l 719 1051 q 671 894 718 954 q 543 833 624 833 z "},"æ":{"ha":1388,"x_min":42,"x_max":1350,"o":"m 369 -12 q 129 54 217 -12 q 42 228 42 121 q 77 342 42 293 q 186 419 113 392 q 376 447 260 447 l 549 447 l 549 308 l 413 308 q 323 288 349 308 q 297 233 297 267 q 324 176 297 197 q 399 154 350 154 q 493 188 460 154 q 526 278 526 222 l 526 433 q 488 529 526 494 q 368 564 450 564 q 256 547 311 564 q 163 499 201 529 l 74 678 q 226 742 138 719 q 404 765 315 765 q 604 726 521 765 q 726 604 688 686 l 619 606 q 760 723 672 681 q 950 765 847 765 q 1103 739 1031 765 q 1231 663 1175 713 q 1318 542 1286 614 q 1350 381 1350 471 q 1349 342 1350 360 q 1346 308 1349 324 l 767 308 l 767 447 l 1160 447 l 1100 410 q 1079 501 1100 464 q 1024 558 1058 538 q 946 578 989 578 q 868 558 904 578 q 811 500 832 538 q 790 408 790 463 l 790 368 q 813 272 790 313 q 878 210 836 232 q 981 189 921 189 q 1074 205 1032 189 q 1156 254 1115 221 l 1294 110 q 1158 19 1239 50 q 976 -12 1078 -12 q 814 11 890 -12 q 676 87 738 35 q 578 222 615 139 l 707 222 q 629 79 681 131 q 511 8 578 28 q 369 -12 444 -12 z "},"ǽ":{"ha":1388,"x_min":42,"x_max":1350,"o":"m 369 -12 q 129 54 217 -12 q 42 228 42 121 q 77 342 42 293 q 186 419 113 392 q 376 447 260 447 l 549 447 l 549 308 l 413 308 q 323 288 349 308 q 297 233 297 267 q 324 176 297 197 q 399 154 350 154 q 493 188 460 154 q 526 278 526 222 l 526 433 q 488 529 526 494 q 368 564 450 564 q 256 547 311 564 q 163 499 201 529 l 74 678 q 226 742 138 719 q 404 765 315 765 q 604 726 521 765 q 726 604 688 686 l 619 606 q 760 723 672 681 q 950 765 847 765 q 1103 739 1031 765 q 1231 663 1175 713 q 1318 542 1286 614 q 1350 381 1350 471 q 1349 342 1350 360 q 1346 308 1349 324 l 767 308 l 767 447 l 1160 447 l 1100 410 q 1079 501 1100 464 q 1024 558 1058 538 q 946 578 989 578 q 868 558 904 578 q 811 500 832 538 q 790 408 790 463 l 790 368 q 813 272 790 313 q 878 210 836 232 q 981 189 921 189 q 1074 205 1032 189 q 1156 254 1115 221 l 1294 110 q 1158 19 1239 50 q 976 -12 1078 -12 q 814 11 890 -12 q 676 87 738 35 q 578 222 615 139 l 707 222 q 629 79 681 131 q 511 8 578 28 q 369 -12 444 -12 m 522 843 l 708 1054 l 972 1054 l 711 843 l 522 843 z "},"b":{"ha":965,"x_min":85,"x_max":928,"o":"m 558 -12 q 390 29 457 -12 q 289 157 322 71 q 256 378 256 243 q 291 596 256 510 q 394 724 326 682 q 558 765 463 765 q 745 718 661 765 q 878 584 829 671 q 928 378 928 497 q 878 170 928 257 q 745 35 829 83 q 558 -12 661 -12 m 85 0 l 85 1031 l 349 1031 l 349 626 l 335 378 l 336 129 l 336 0 l 85 0 m 503 197 q 583 218 547 197 q 640 280 618 239 q 661 378 661 321 q 640 474 661 435 q 583 535 618 514 q 503 556 547 556 q 423 535 458 556 q 366 474 388 514 q 344 378 344 435 q 366 280 344 321 q 423 218 388 239 q 503 197 458 197 z "},"c":{"ha":838,"x_min":38,"x_max":822,"o":"m 469 -12 q 247 38 344 -12 q 93 176 149 88 q 38 378 38 264 q 93 579 38 492 q 247 716 149 667 q 469 765 344 765 q 690 711 597 765 q 822 558 783 657 l 618 454 q 553 531 592 507 q 468 556 514 556 q 385 535 422 556 q 326 474 347 514 q 304 378 304 435 q 326 279 304 319 q 385 218 347 239 q 468 197 422 197 q 553 222 514 197 q 618 299 592 246 l 822 194 q 690 42 783 96 q 469 -12 597 -12 z "},"ć":{"ha":838,"x_min":38,"x_max":822,"o":"m 469 -12 q 247 38 344 -12 q 93 176 149 88 q 38 378 38 264 q 93 579 38 492 q 247 716 149 667 q 469 765 344 765 q 690 711 597 765 q 822 558 783 657 l 618 454 q 553 531 592 507 q 468 556 514 556 q 385 535 422 556 q 326 474 347 514 q 304 378 304 435 q 326 279 304 319 q 385 218 347 239 q 468 197 422 197 q 553 222 514 197 q 618 299 592 246 l 822 194 q 690 42 783 96 q 469 -12 597 -12 m 306 843 l 492 1054 l 756 1054 l 494 843 l 306 843 z "},"č":{"ha":838,"x_min":38,"x_max":822,"o":"m 469 -12 q 247 38 344 -12 q 93 176 149 88 q 38 378 38 264 q 93 579 38 492 q 247 716 149 667 q 469 765 344 765 q 690 711 597 765 q 822 558 783 657 l 618 454 q 553 531 592 507 q 468 556 514 556 q 385 535 422 556 q 326 474 347 514 q 304 378 304 435 q 326 279 304 319 q 385 218 347 239 q 468 197 422 197 q 553 222 514 197 q 618 299 592 246 l 822 194 q 690 42 783 96 q 469 -12 597 -12 m 328 843 l 147 1054 l 322 1054 l 518 882 l 365 882 l 561 1054 l 736 1054 l 556 843 l 328 843 z "},"ç":{"ha":838,"x_min":38,"x_max":822,"o":"m 469 -12 q 247 38 344 -12 q 93 176 149 88 q 38 378 38 264 q 93 579 38 492 q 247 716 149 667 q 469 765 344 765 q 690 711 597 765 q 822 558 783 657 l 618 454 q 553 531 592 507 q 468 556 514 556 q 385 535 422 556 q 326 474 347 514 q 304 378 304 435 q 326 279 304 319 q 385 218 347 239 q 468 197 422 197 q 553 222 514 197 q 618 299 592 246 l 822 194 q 690 42 783 96 q 469 -12 597 -12 m 382 -328 q 310 -319 347 -328 q 250 -299 274 -311 l 286 -194 q 326 -208 304 -203 q 372 -214 347 -214 q 426 -203 410 -214 q 442 -175 442 -192 q 427 -149 442 -158 q 379 -140 413 -140 l 328 -140 l 364 13 l 501 13 l 482 -71 q 574 -111 546 -78 q 601 -183 601 -144 q 542 -289 601 -250 q 382 -328 482 -328 z "},"ḉ":{"ha":838,"x_min":38,"x_max":822,"o":"m 469 -12 q 247 38 344 -12 q 93 176 149 88 q 38 378 38 264 q 93 579 38 492 q 247 716 149 667 q 469 765 344 765 q 690 711 597 765 q 822 558 783 657 l 618 454 q 553 531 592 507 q 468 556 514 556 q 385 535 422 556 q 326 474 347 514 q 304 378 304 435 q 326 279 304 319 q 385 218 347 239 q 468 197 422 197 q 553 222 514 197 q 618 299 592 246 l 822 194 q 690 42 783 96 q 469 -12 597 -12 m 382 -328 q 310 -319 347 -328 q 250 -299 274 -311 l 286 -194 q 326 -208 304 -203 q 372 -214 347 -214 q 426 -203 410 -214 q 442 -175 442 -192 q 427 -149 442 -158 q 379 -140 413 -140 l 328 -140 l 364 13 l 501 13 l 482 -71 q 574 -111 546 -78 q 601 -183 601 -144 q 542 -289 601 -250 q 382 -328 482 -328 m 306 843 l 492 1054 l 756 1054 l 494 843 l 306 843 z "},"ĉ":{"ha":838,"x_min":38,"x_max":822,"o":"m 469 -12 q 247 38 344 -12 q 93 176 149 88 q 38 378 38 264 q 93 579 38 492 q 247 716 149 667 q 469 765 344 765 q 690 711 597 765 q 822 558 783 657 l 618 454 q 553 531 592 507 q 468 556 514 556 q 385 535 422 556 q 326 474 347 514 q 304 378 304 435 q 326 279 304 319 q 385 218 347 239 q 468 197 422 197 q 553 222 514 197 q 618 299 592 246 l 822 194 q 690 42 783 96 q 469 -12 597 -12 m 147 843 l 328 1054 l 556 1054 l 736 843 l 561 843 l 365 1017 l 518 1017 l 322 843 l 147 843 z "},"ċ":{"ha":838,"x_min":38,"x_max":822,"o":"m 469 -12 q 247 38 344 -12 q 93 176 149 88 q 38 378 38 264 q 93 579 38 492 q 247 716 149 667 q 469 765 344 765 q 690 711 597 765 q 822 558 783 657 l 618 454 q 553 531 592 507 q 468 556 514 556 q 385 535 422 556 q 326 474 347 514 q 304 378 304 435 q 326 279 304 319 q 385 218 347 239 q 468 197 422 197 q 553 222 514 197 q 618 299 592 246 l 822 194 q 690 42 783 96 q 469 -12 597 -12 m 442 840 q 343 878 382 840 q 304 978 304 917 q 343 1076 304 1038 q 442 1114 382 1114 q 540 1076 501 1114 q 579 978 579 1038 q 540 878 579 917 q 442 840 501 840 z "},"d":{"ha":969,"x_min":42,"x_max":885,"o":"m 413 -12 q 226 35 310 -12 q 92 170 142 83 q 42 378 42 257 q 92 584 42 497 q 226 718 142 671 q 413 765 310 765 q 577 724 510 765 q 679 596 644 682 q 714 378 714 510 q 681 157 714 243 q 581 29 647 71 q 413 -12 514 -12 m 468 197 q 548 218 513 197 q 604 280 583 239 q 625 378 625 321 q 604 474 625 435 q 548 535 583 514 q 468 556 513 556 q 387 535 422 556 q 331 474 351 514 q 310 378 310 435 q 331 280 310 321 q 387 218 351 239 q 468 197 422 197 m 633 0 l 633 129 l 635 378 l 621 626 l 621 1031 l 885 1031 l 885 0 l 633 0 z "},"ð":{"ha":925,"x_min":38,"x_max":888,"o":"m 425 -19 q 228 22 315 -19 q 89 138 140 63 q 38 313 38 213 q 84 477 38 407 q 210 585 131 547 q 385 624 289 624 q 515 603 458 624 q 612 544 571 583 q 676 449 653 506 l 606 406 q 610 460 610 432 q 611 529 611 489 q 578 706 611 636 q 479 811 544 776 q 317 846 414 846 q 226 839 272 846 q 139 818 179 832 l 111 1015 q 215 1033 163 1026 q 331 1040 268 1040 q 628 976 503 1040 q 820 786 753 913 q 888 472 888 660 q 831 208 888 318 q 670 40 774 99 q 425 -19 567 -19 m 446 176 q 521 193 489 176 q 571 238 553 210 q 589 301 589 265 q 570 367 589 339 q 520 412 551 396 q 447 428 489 428 q 345 394 385 428 q 306 301 306 360 q 324 235 306 264 q 374 192 343 207 q 446 176 406 176 m 204 635 l 158 753 l 806 994 l 851 875 l 204 635 z "},"ď":{"ha":969,"x_min":42,"x_max":1183,"o":"m 413 -12 q 226 35 310 -12 q 92 170 142 83 q 42 378 42 257 q 92 584 42 497 q 226 718 142 671 q 413 765 310 765 q 577 724 510 765 q 679 596 644 682 q 714 378 714 510 q 681 157 714 243 q 581 29 647 71 q 413 -12 514 -12 m 468 197 q 548 218 513 197 q 604 280 583 239 q 625 378 625 321 q 604 474 625 435 q 548 535 583 514 q 468 556 513 556 q 387 535 422 556 q 331 474 351 514 q 310 378 310 435 q 331 280 310 321 q 387 218 351 239 q 468 197 422 197 m 633 0 l 633 129 l 635 378 l 621 626 l 621 1031 l 885 1031 l 885 0 l 633 0 m 993 808 l 993 1093 l 1183 1093 l 1149 808 l 993 808 z "},"đ":{"ha":969,"x_min":42,"x_max":971,"o":"m 413 -12 q 226 35 310 -12 q 92 170 142 83 q 42 378 42 257 q 92 584 42 497 q 226 718 142 671 q 413 765 310 765 q 577 724 510 765 q 679 596 644 682 q 714 378 714 510 q 681 157 714 243 q 581 29 647 71 q 413 -12 514 -12 m 468 197 q 548 218 513 197 q 604 280 583 239 q 625 378 625 321 q 604 474 625 435 q 548 535 583 514 q 468 556 513 556 q 387 535 422 556 q 331 474 351 514 q 310 378 310 435 q 331 280 310 321 q 387 218 351 239 q 468 197 422 197 m 633 0 l 633 129 l 635 378 l 621 626 l 621 1031 l 885 1031 l 885 0 l 633 0 m 389 818 l 389 956 l 972 956 l 972 818 l 389 818 z "},"ḍ":{"ha":969,"x_min":42,"x_max":885,"o":"m 413 -12 q 226 35 310 -12 q 92 170 142 83 q 42 378 42 257 q 92 584 42 497 q 226 718 142 671 q 413 765 310 765 q 577 724 510 765 q 679 596 644 682 q 714 378 714 510 q 681 157 714 243 q 581 29 647 71 q 413 -12 514 -12 m 468 197 q 548 218 513 197 q 604 280 583 239 q 625 378 625 321 q 604 474 625 435 q 548 535 583 514 q 468 556 513 556 q 387 535 422 556 q 331 474 351 514 q 310 378 310 435 q 331 280 310 321 q 387 218 351 239 q 468 197 422 197 m 633 0 l 633 129 l 635 378 l 621 626 l 621 1031 l 885 1031 l 885 0 l 633 0 m 517 -303 q 439 -274 471 -303 q 407 -196 407 -244 q 439 -117 407 -147 q 517 -86 471 -86 q 594 -117 563 -86 q 626 -196 626 -147 q 594 -274 626 -244 q 517 -303 563 -303 z "},"ḏ":{"ha":969,"x_min":42,"x_max":885,"o":"m 413 -12 q 226 35 310 -12 q 92 170 142 83 q 42 378 42 257 q 92 584 42 497 q 226 718 142 671 q 413 765 310 765 q 577 724 510 765 q 679 596 644 682 q 714 378 714 510 q 681 157 714 243 q 581 29 647 71 q 413 -12 514 -12 m 468 197 q 548 218 513 197 q 604 280 583 239 q 625 378 625 321 q 604 474 625 435 q 548 535 583 514 q 468 556 513 556 q 387 535 422 556 q 331 474 351 514 q 310 378 310 435 q 331 280 310 321 q 387 218 351 239 q 468 197 422 197 m 633 0 l 633 129 l 635 378 l 621 626 l 621 1031 l 885 1031 l 885 0 l 633 0 m 243 -260 l 243 -118 l 790 -118 l 790 -260 l 243 -260 z "},"ǆ":{"ha":1729,"x_min":42,"x_max":1694,"o":"m 413 -12 q 226 35 310 -12 q 92 170 142 83 q 42 378 42 257 q 92 584 42 497 q 226 718 142 671 q 413 765 310 765 q 577 724 510 765 q 679 596 644 682 q 714 378 714 510 q 681 157 714 243 q 581 29 647 71 q 413 -12 514 -12 m 468 197 q 548 218 513 197 q 604 280 583 239 q 625 378 625 321 q 604 474 625 435 q 548 535 583 514 q 468 556 513 556 q 387 535 422 556 q 331 474 351 514 q 310 378 310 435 q 331 280 310 321 q 387 218 351 239 q 468 197 422 197 m 633 0 l 633 129 l 635 378 l 621 626 l 621 1031 l 885 1031 l 885 0 l 633 0 z "},"e":{"ha":892,"x_min":38,"x_max":854,"o":"m 479 -12 q 247 38 346 -12 q 92 177 147 89 q 38 378 38 265 q 91 578 38 490 q 239 716 144 667 q 451 765 333 765 q 654 720 563 765 q 800 588 746 675 q 854 375 854 500 q 853 343 854 361 q 850 310 851 325 l 254 310 l 254 449 l 710 449 l 610 410 q 591 499 611 461 q 535 557 571 536 q 453 578 500 578 q 370 557 406 578 q 315 498 335 536 q 296 408 296 460 l 296 368 q 319 272 296 313 q 385 210 342 232 q 488 189 428 189 q 583 205 543 189 q 661 254 622 221 l 800 110 q 667 19 746 50 q 479 -12 588 -12 z "},"é":{"ha":892,"x_min":38,"x_max":854,"o":"m 479 -12 q 247 38 346 -12 q 92 177 147 89 q 38 378 38 265 q 91 578 38 490 q 239 716 144 667 q 451 765 333 765 q 654 720 563 765 q 800 588 746 675 q 854 375 854 500 q 853 343 854 361 q 850 310 851 325 l 254 310 l 254 449 l 710 449 l 610 410 q 591 499 611 461 q 535 557 571 536 q 453 578 500 578 q 370 557 406 578 q 315 498 335 536 q 296 408 296 460 l 296 368 q 319 272 296 313 q 385 210 342 232 q 488 189 428 189 q 583 205 543 189 q 661 254 622 221 l 800 110 q 667 19 746 50 q 479 -12 588 -12 m 310 843 l 496 1054 l 760 1054 l 499 843 l 310 843 z "},"ĕ":{"ha":892,"x_min":38,"x_max":854,"o":"m 479 -12 q 247 38 346 -12 q 92 177 147 89 q 38 378 38 265 q 91 578 38 490 q 239 716 144 667 q 451 765 333 765 q 654 720 563 765 q 800 588 746 675 q 854 375 854 500 q 853 343 854 361 q 850 310 851 325 l 254 310 l 254 449 l 710 449 l 610 410 q 591 499 611 461 q 535 557 571 536 q 453 578 500 578 q 370 557 406 578 q 315 498 335 536 q 296 408 296 460 l 296 368 q 319 272 296 313 q 385 210 342 232 q 488 189 428 189 q 583 205 543 189 q 661 254 622 221 l 800 110 q 667 19 746 50 q 479 -12 588 -12 m 446 831 q 253 890 329 831 q 174 1054 178 950 l 335 1054 q 369 987 338 1011 q 446 963 400 963 q 524 987 492 963 q 557 1054 556 1011 l 718 1054 q 638 890 714 950 q 446 831 563 831 z "},"ě":{"ha":892,"x_min":38,"x_max":854,"o":"m 479 -12 q 247 38 346 -12 q 92 177 147 89 q 38 378 38 265 q 91 578 38 490 q 239 716 144 667 q 451 765 333 765 q 654 720 563 765 q 800 588 746 675 q 854 375 854 500 q 853 343 854 361 q 850 310 851 325 l 254 310 l 254 449 l 710 449 l 610 410 q 591 499 611 461 q 535 557 571 536 q 453 578 500 578 q 370 557 406 578 q 315 498 335 536 q 296 408 296 460 l 296 368 q 319 272 296 313 q 385 210 342 232 q 488 189 428 189 q 583 205 543 189 q 661 254 622 221 l 800 110 q 667 19 746 50 q 479 -12 588 -12 m 332 843 l 151 1054 l 326 1054 l 522 882 l 369 882 l 565 1054 l 740 1054 l 560 843 l 332 843 z "},"ḝ":{"ha":892,"x_min":38,"x_max":854,"o":"m 479 -12 q 247 38 346 -12 q 92 177 147 89 q 38 378 38 265 q 91 578 38 490 q 239 716 144 667 q 451 765 333 765 q 654 720 563 765 q 800 588 746 675 q 854 375 854 500 q 853 343 854 361 q 850 310 851 325 l 254 310 l 254 449 l 710 449 l 610 410 q 591 499 611 461 q 535 557 571 536 q 453 578 500 578 q 370 557 406 578 q 315 498 335 536 q 296 408 296 460 l 296 368 q 319 272 296 313 q 385 210 342 232 q 488 189 428 189 q 583 205 543 189 q 661 254 622 221 l 800 110 q 667 19 746 50 q 479 -12 588 -12 m 394 -328 q 323 -319 360 -328 q 263 -299 286 -311 l 299 -194 q 338 -208 317 -203 q 385 -214 360 -214 q 438 -203 422 -214 q 454 -175 454 -192 q 440 -149 454 -158 q 392 -140 425 -140 l 340 -140 l 376 13 l 514 13 l 494 -71 q 586 -111 558 -78 q 614 -183 614 -144 q 554 -289 614 -250 q 394 -328 494 -328 m 446 831 q 253 890 329 831 q 174 1054 178 950 l 335 1054 q 369 987 338 1011 q 446 963 400 963 q 524 987 492 963 q 557 1054 556 1011 l 718 1054 q 638 890 714 950 q 446 831 563 831 z "},"ê":{"ha":892,"x_min":38,"x_max":854,"o":"m 479 -12 q 247 38 346 -12 q 92 177 147 89 q 38 378 38 265 q 91 578 38 490 q 239 716 144 667 q 451 765 333 765 q 654 720 563 765 q 800 588 746 675 q 854 375 854 500 q 853 343 854 361 q 850 310 851 325 l 254 310 l 254 449 l 710 449 l 610 410 q 591 499 611 461 q 535 557 571 536 q 453 578 500 578 q 370 557 406 578 q 315 498 335 536 q 296 408 296 460 l 296 368 q 319 272 296 313 q 385 210 342 232 q 488 189 428 189 q 583 205 543 189 q 661 254 622 221 l 800 110 q 667 19 746 50 q 479 -12 588 -12 m 151 843 l 332 1054 l 560 1054 l 740 843 l 565 843 l 369 1017 l 522 1017 l 326 843 l 151 843 z "},"ế":{"ha":892,"x_min":38,"x_max":1036,"o":"m 479 -12 q 247 38 346 -12 q 92 177 147 89 q 38 378 38 265 q 91 578 38 490 q 239 716 144 667 q 451 765 333 765 q 654 720 563 765 q 800 588 746 675 q 854 375 854 500 q 853 343 854 361 q 850 310 851 325 l 254 310 l 254 449 l 710 449 l 610 410 q 591 499 611 461 q 535 557 571 536 q 453 578 500 578 q 370 557 406 578 q 315 498 335 536 q 296 408 296 460 l 296 368 q 319 272 296 313 q 385 210 342 232 q 488 189 428 189 q 583 205 543 189 q 661 254 622 221 l 800 110 q 667 19 746 50 q 479 -12 588 -12 z "},"ệ":{"ha":892,"x_min":38,"x_max":854,"o":"m 479 -12 q 247 38 346 -12 q 92 177 147 89 q 38 378 38 265 q 91 578 38 490 q 239 716 144 667 q 451 765 333 765 q 654 720 563 765 q 800 588 746 675 q 854 375 854 500 q 853 343 854 361 q 850 310 851 325 l 254 310 l 254 449 l 710 449 l 610 410 q 591 499 611 461 q 535 557 571 536 q 453 578 500 578 q 370 557 406 578 q 315 498 335 536 q 296 408 296 460 l 296 368 q 319 272 296 313 q 385 210 342 232 q 488 189 428 189 q 583 205 543 189 q 661 254 622 221 l 800 110 q 667 19 746 50 q 479 -12 588 -12 m 446 -303 q 368 -274 400 -303 q 336 -196 336 -244 q 368 -117 336 -147 q 446 -86 400 -86 q 524 -117 492 -86 q 556 -196 556 -147 q 524 -274 556 -244 q 446 -303 492 -303 m 151 843 l 332 1054 l 560 1054 l 740 843 l 565 843 l 369 1017 l 522 1017 l 326 843 l 151 843 z "},"ề":{"ha":892,"x_min":38,"x_max":894,"o":"m 479 -12 q 247 38 346 -12 q 92 177 147 89 q 38 378 38 265 q 91 578 38 490 q 239 716 144 667 q 451 765 333 765 q 654 720 563 765 q 800 588 746 675 q 854 375 854 500 q 853 343 854 361 q 850 310 851 325 l 254 310 l 254 449 l 710 449 l 610 410 q 591 499 611 461 q 535 557 571 536 q 453 578 500 578 q 370 557 406 578 q 315 498 335 536 q 296 408 296 460 l 296 368 q 319 272 296 313 q 385 210 342 232 q 488 189 428 189 q 583 205 543 189 q 661 254 622 221 l 800 110 q 667 19 746 50 q 479 -12 588 -12 z "},"ể":{"ha":892,"x_min":38,"x_max":854,"o":"m 479 -12 q 247 38 346 -12 q 92 177 147 89 q 38 378 38 265 q 91 578 38 490 q 239 716 144 667 q 451 765 333 765 q 654 720 563 765 q 800 588 746 675 q 854 375 854 500 q 853 343 854 361 q 850 310 851 325 l 254 310 l 254 449 l 710 449 l 610 410 q 591 499 611 461 q 535 557 571 536 q 453 578 500 578 q 370 557 406 578 q 315 498 335 536 q 296 408 296 460 l 296 368 q 319 272 296 313 q 385 210 342 232 q 488 189 428 189 q 583 205 543 189 q 661 254 622 221 l 800 110 q 667 19 746 50 q 479 -12 588 -12 z "},"ễ":{"ha":892,"x_min":38,"x_max":854,"o":"m 479 -12 q 247 38 346 -12 q 92 177 147 89 q 38 378 38 265 q 91 578 38 490 q 239 716 144 667 q 451 765 333 765 q 654 720 563 765 q 800 588 746 675 q 854 375 854 500 q 853 343 854 361 q 850 310 851 325 l 254 310 l 254 449 l 710 449 l 610 410 q 591 499 611 461 q 535 557 571 536 q 453 578 500 578 q 370 557 406 578 q 315 498 335 536 q 296 408 296 460 l 296 368 q 319 272 296 313 q 385 210 342 232 q 488 189 428 189 q 583 205 543 189 q 661 254 622 221 l 800 110 q 667 19 746 50 q 479 -12 588 -12 z "},"ȅ":{"ha":892,"x_min":38,"x_max":854,"o":"m 479 -12 q 247 38 346 -12 q 92 177 147 89 q 38 378 38 265 q 91 578 38 490 q 239 716 144 667 q 451 765 333 765 q 654 720 563 765 q 800 588 746 675 q 854 375 854 500 q 853 343 854 361 q 850 310 851 325 l 254 310 l 254 449 l 710 449 l 610 410 q 591 499 611 461 q 535 557 571 536 q 453 578 500 578 q 370 557 406 578 q 315 498 335 536 q 296 408 296 460 l 296 368 q 319 272 296 313 q 385 210 342 232 q 488 189 428 189 q 583 205 543 189 q 661 254 622 221 l 800 110 q 667 19 746 50 q 479 -12 588 -12 m 506 843 l 365 1054 l 601 1054 l 689 843 l 506 843 m 203 843 l 64 1054 l 300 1054 l 386 843 l 203 843 z "},"ë":{"ha":892,"x_min":38,"x_max":854,"o":"m 479 -12 q 247 38 346 -12 q 92 177 147 89 q 38 378 38 265 q 91 578 38 490 q 239 716 144 667 q 451 765 333 765 q 654 720 563 765 q 800 588 746 675 q 854 375 854 500 q 853 343 854 361 q 850 310 851 325 l 254 310 l 254 449 l 710 449 l 610 410 q 591 499 611 461 q 535 557 571 536 q 453 578 500 578 q 370 557 406 578 q 315 498 335 536 q 296 408 296 460 l 296 368 q 319 272 296 313 q 385 210 342 232 q 488 189 428 189 q 583 205 543 189 q 661 254 622 221 l 800 110 q 667 19 746 50 q 479 -12 588 -12 m 593 842 q 515 872 547 842 q 483 950 483 901 q 515 1029 483 999 q 593 1060 547 1060 q 671 1029 639 1060 q 703 950 703 999 q 671 872 703 901 q 593 842 639 842 m 299 842 q 221 872 253 842 q 189 950 189 901 q 221 1029 189 999 q 299 1060 253 1060 q 376 1029 344 1060 q 408 950 408 999 q 376 872 408 901 q 299 842 344 842 z "},"ė":{"ha":892,"x_min":38,"x_max":854,"o":"m 479 -12 q 247 38 346 -12 q 92 177 147 89 q 38 378 38 265 q 91 578 38 490 q 239 716 144 667 q 451 765 333 765 q 654 720 563 765 q 800 588 746 675 q 854 375 854 500 q 853 343 854 361 q 850 310 851 325 l 254 310 l 254 449 l 710 449 l 610 410 q 591 499 611 461 q 535 557 571 536 q 453 578 500 578 q 370 557 406 578 q 315 498 335 536 q 296 408 296 460 l 296 368 q 319 272 296 313 q 385 210 342 232 q 488 189 428 189 q 583 205 543 189 q 661 254 622 221 l 800 110 q 667 19 746 50 q 479 -12 588 -12 m 446 840 q 347 878 386 840 q 308 978 308 917 q 347 1076 308 1038 q 446 1114 386 1114 q 544 1076 506 1114 q 583 978 583 1038 q 544 878 583 917 q 446 840 506 840 z "},"ẹ":{"ha":892,"x_min":38,"x_max":854,"o":"m 479 -12 q 247 38 346 -12 q 92 177 147 89 q 38 378 38 265 q 91 578 38 490 q 239 716 144 667 q 451 765 333 765 q 654 720 563 765 q 800 588 746 675 q 854 375 854 500 q 853 343 854 361 q 850 310 851 325 l 254 310 l 254 449 l 710 449 l 610 410 q 591 499 611 461 q 535 557 571 536 q 453 578 500 578 q 370 557 406 578 q 315 498 335 536 q 296 408 296 460 l 296 368 q 319 272 296 313 q 385 210 342 232 q 488 189 428 189 q 583 205 543 189 q 661 254 622 221 l 800 110 q 667 19 746 50 q 479 -12 588 -12 m 446 -303 q 368 -274 400 -303 q 336 -196 336 -244 q 368 -117 336 -147 q 446 -86 400 -86 q 524 -117 492 -86 q 556 -196 556 -147 q 524 -274 556 -244 q 446 -303 492 -303 z "},"è":{"ha":892,"x_min":38,"x_max":854,"o":"m 479 -12 q 247 38 346 -12 q 92 177 147 89 q 38 378 38 265 q 91 578 38 490 q 239 716 144 667 q 451 765 333 765 q 654 720 563 765 q 800 588 746 675 q 854 375 854 500 q 853 343 854 361 q 850 310 851 325 l 254 310 l 254 449 l 710 449 l 610 410 q 591 499 611 461 q 535 557 571 536 q 453 578 500 578 q 370 557 406 578 q 315 498 335 536 q 296 408 296 460 l 296 368 q 319 272 296 313 q 385 210 342 232 q 488 189 428 189 q 583 205 543 189 q 661 254 622 221 l 800 110 q 667 19 746 50 q 479 -12 588 -12 m 393 843 l 132 1054 l 396 1054 l 582 843 l 393 843 z "},"ẻ":{"ha":892,"x_min":38,"x_max":854,"o":"m 479 -12 q 247 38 346 -12 q 92 177 147 89 q 38 378 38 265 q 91 578 38 490 q 239 716 144 667 q 451 765 333 765 q 654 720 563 765 q 800 588 746 675 q 854 375 854 500 q 853 343 854 361 q 850 310 851 325 l 254 310 l 254 449 l 710 449 l 610 410 q 591 499 611 461 q 535 557 571 536 q 453 578 500 578 q 370 557 406 578 q 315 498 335 536 q 296 408 296 460 l 296 368 q 319 272 296 313 q 385 210 342 232 q 488 189 428 189 q 583 205 543 189 q 661 254 622 221 l 800 110 q 667 19 746 50 q 479 -12 588 -12 m 496 829 l 415 910 q 469 949 456 929 q 483 990 483 969 q 466 1031 483 1017 q 421 1046 449 1046 q 340 1018 381 1046 l 286 1121 q 363 1159 319 1146 q 450 1172 406 1172 q 581 1128 531 1172 q 632 1013 632 1083 q 597 904 632 949 q 496 829 563 860 z "},"ȇ":{"ha":892,"x_min":38,"x_max":854,"o":"m 479 -12 q 247 38 346 -12 q 92 177 147 89 q 38 378 38 265 q 91 578 38 490 q 239 716 144 667 q 451 765 333 765 q 654 720 563 765 q 800 588 746 675 q 854 375 854 500 q 853 343 854 361 q 850 310 851 325 l 254 310 l 254 449 l 710 449 l 610 410 q 591 499 611 461 q 535 557 571 536 q 453 578 500 578 q 370 557 406 578 q 315 498 335 536 q 296 408 296 460 l 296 368 q 319 272 296 313 q 385 210 342 232 q 488 189 428 189 q 583 205 543 189 q 661 254 622 221 l 800 110 q 667 19 746 50 q 479 -12 588 -12 m 174 843 q 253 1007 178 947 q 446 1067 329 1067 q 638 1007 563 1067 q 718 843 714 947 l 557 843 q 524 910 556 885 q 446 935 492 935 q 369 910 400 935 q 335 843 338 885 l 174 843 z "},"ē":{"ha":892,"x_min":38,"x_max":854,"o":"m 479 -12 q 247 38 346 -12 q 92 177 147 89 q 38 378 38 265 q 91 578 38 490 q 239 716 144 667 q 451 765 333 765 q 654 720 563 765 q 800 588 746 675 q 854 375 854 500 q 853 343 854 361 q 850 310 851 325 l 254 310 l 254 449 l 710 449 l 610 410 q 591 499 611 461 q 535 557 571 536 q 453 578 500 578 q 370 557 406 578 q 315 498 335 536 q 296 408 296 460 l 296 368 q 319 272 296 313 q 385 210 342 232 q 488 189 428 189 q 583 205 543 189 q 661 254 622 221 l 800 110 q 667 19 746 50 q 479 -12 588 -12 m 172 878 l 172 1019 l 719 1019 l 719 878 l 172 878 z "},"ḗ":{"ha":892,"x_min":38,"x_max":854,"o":"m 479 -12 q 247 38 346 -12 q 92 177 147 89 q 38 378 38 265 q 91 578 38 490 q 239 716 144 667 q 451 765 333 765 q 654 720 563 765 q 800 588 746 675 q 854 375 854 500 q 853 343 854 361 q 850 310 851 325 l 254 310 l 254 449 l 710 449 l 610 410 q 591 499 611 461 q 535 557 571 536 q 453 578 500 578 q 370 557 406 578 q 315 498 335 536 q 296 408 296 460 l 296 368 q 319 272 296 313 q 385 210 342 232 q 488 189 428 189 q 583 205 543 189 q 661 254 622 221 l 800 110 q 667 19 746 50 q 479 -12 588 -12 z "},"ḕ":{"ha":892,"x_min":38,"x_max":854,"o":"m 479 -12 q 247 38 346 -12 q 92 177 147 89 q 38 378 38 265 q 91 578 38 490 q 239 716 144 667 q 451 765 333 765 q 654 720 563 765 q 800 588 746 675 q 854 375 854 500 q 853 343 854 361 q 850 310 851 325 l 254 310 l 254 449 l 710 449 l 610 410 q 591 499 611 461 q 535 557 571 536 q 453 578 500 578 q 370 557 406 578 q 315 498 335 536 q 296 408 296 460 l 296 368 q 319 272 296 313 q 385 210 342 232 q 488 189 428 189 q 583 205 543 189 q 661 254 622 221 l 800 110 q 667 19 746 50 q 479 -12 588 -12 z "},"ę":{"ha":892,"x_min":38,"x_max":854,"o":"m 633 -328 q 483 -282 538 -328 q 428 -160 428 -236 q 466 -49 428 -103 q 569 33 504 6 l 607 1 q 546 -9 578 -6 q 479 -12 514 -12 q 247 38 346 -12 q 92 177 147 89 q 38 378 38 265 q 91 578 38 490 q 239 716 144 667 q 451 765 333 765 q 654 720 563 765 q 800 588 746 675 q 854 375 854 500 q 853 343 854 361 q 850 310 851 325 l 254 310 l 254 449 l 710 449 l 610 410 q 591 499 611 461 q 535 557 571 536 q 453 578 500 578 q 370 557 406 578 q 315 498 335 536 q 296 408 296 460 l 296 368 q 319 272 296 313 q 385 210 342 232 q 488 189 428 189 q 583 205 543 189 q 661 254 622 221 l 800 110 q 773 83 788 96 q 743 58 758 69 q 646 -19 679 15 q 600 -80 613 -53 q 588 -133 588 -107 q 609 -183 588 -164 q 667 -203 631 -203 q 710 -197 688 -203 q 747 -182 732 -190 l 782 -296 q 716 -319 757 -310 q 633 -328 675 -328 z "},"ẽ":{"ha":892,"x_min":38,"x_max":854,"o":"m 479 -12 q 247 38 346 -12 q 92 177 147 89 q 38 378 38 265 q 91 578 38 490 q 239 716 144 667 q 451 765 333 765 q 654 720 563 765 q 800 588 746 675 q 854 375 854 500 q 853 343 854 361 q 850 310 851 325 l 254 310 l 254 449 l 710 449 l 610 410 q 591 499 611 461 q 535 557 571 536 q 453 578 500 578 q 370 557 406 578 q 315 498 335 536 q 296 408 296 460 l 296 368 q 319 272 296 313 q 385 210 342 232 q 488 189 428 189 q 583 205 543 189 q 661 254 622 221 l 800 110 q 667 19 746 50 q 479 -12 588 -12 m 554 833 q 488 847 517 833 q 436 876 460 860 q 393 906 413 893 q 354 919 374 919 q 310 900 326 919 q 290 846 293 881 l 161 846 q 210 1007 164 947 q 338 1067 257 1067 q 404 1054 375 1067 q 456 1024 433 1042 q 499 994 479 1007 q 538 982 519 982 q 583 1001 565 982 q 601 1051 600 1019 l 731 1051 q 682 894 729 954 q 554 833 635 833 z "},"ə":{"ha":892,"x_min":38,"x_max":854,"o":"m 413 765 q 646 715 547 765 q 799 576 744 664 q 854 376 854 489 q 800 175 854 263 q 653 38 746 88 q 440 -12 560 -12 q 238 33 329 -12 q 92 167 146 79 q 38 378 38 254 q 39 410 38 393 q 42 443 40 428 l 638 443 l 638 304 l 181 304 l 282 344 q 301 256 282 293 q 356 197 321 218 q 439 175 392 175 q 522 197 486 175 q 576 256 557 218 q 596 344 596 294 l 596 386 q 572 482 596 442 q 506 543 549 522 q 404 564 464 564 q 309 548 349 564 q 231 500 269 532 l 92 644 q 225 735 146 704 q 413 765 304 765 z "},"ʒ":{"ha":790,"x_min":-25,"x_max":764,"o":"m 346 -282 q 146 -256 244 -282 q -25 -181 47 -229 l 67 26 q 196 -37 125 -15 q 336 -60 267 -60 q 450 -31 408 -60 q 492 53 492 -1 q 457 131 492 103 q 343 160 422 160 l 228 160 l 228 332 l 486 635 l 511 540 l 18 540 l 18 753 l 714 753 l 714 581 l 454 278 l 325 354 l 399 354 q 672 270 579 354 q 764 53 764 186 q 719 -110 764 -35 q 583 -234 675 -186 q 346 -282 492 -282 z "},"ǯ":{"ha":790,"x_min":-25,"x_max":764,"o":"m 346 -282 q 146 -256 244 -282 q -25 -181 47 -229 l 67 26 q 196 -37 125 -15 q 336 -60 267 -60 q 450 -31 408 -60 q 492 53 492 -1 q 457 131 492 103 q 343 160 422 160 l 228 160 l 228 332 l 486 635 l 511 540 l 18 540 l 18 753 l 714 753 l 714 581 l 454 278 l 325 354 l 399 354 q 672 270 579 354 q 764 53 764 186 q 719 -110 764 -35 q 583 -234 675 -186 q 346 -282 492 -282 m 244 843 l 64 1054 l 239 1054 l 435 882 l 282 882 l 478 1054 l 653 1054 l 472 843 l 244 843 z "},"f":{"ha":564,"x_min":6,"x_max":604,"o":"m 115 0 l 115 744 q 197 962 115 881 q 429 1043 278 1043 q 525 1033 478 1043 q 604 1004 572 1024 l 539 818 q 501 834 522 828 q 460 840 481 840 q 395 816 418 840 q 372 742 372 792 l 372 688 l 379 578 l 379 0 l 115 0 m 6 528 l 6 725 l 551 725 l 551 528 l 6 528 z "},"g":{"ha":979,"x_min":38,"x_max":894,"o":"m 453 -282 q 247 -257 344 -282 q 79 -183 149 -232 l 175 1 q 292 -58 222 -36 q 429 -79 363 -79 q 583 -33 536 -79 q 631 103 631 14 l 631 192 l 644 403 l 643 615 l 643 753 l 894 753 l 894 138 q 779 -179 894 -76 q 453 -282 664 -282 m 407 39 q 223 84 307 39 q 88 210 139 129 q 38 403 38 292 q 88 595 38 514 q 223 721 139 676 q 407 765 307 765 q 571 727 503 765 q 674 608 639 689 q 710 403 710 528 q 674 197 710 278 q 571 78 639 117 q 407 39 503 39 m 469 249 q 553 268 517 249 q 612 322 590 288 q 633 403 633 357 q 612 483 633 449 q 553 537 590 518 q 469 556 517 556 q 385 537 422 556 q 326 483 347 518 q 304 403 304 449 q 326 322 304 357 q 385 268 347 288 q 469 249 422 249 z "},"ğ":{"ha":979,"x_min":38,"x_max":894,"o":"m 453 -282 q 247 -257 344 -282 q 79 -183 149 -232 l 175 1 q 292 -58 222 -36 q 429 -79 363 -79 q 583 -33 536 -79 q 631 103 631 14 l 631 192 l 644 403 l 643 615 l 643 753 l 894 753 l 894 138 q 779 -179 894 -76 q 453 -282 664 -282 m 407 39 q 223 84 307 39 q 88 210 139 129 q 38 403 38 292 q 88 595 38 514 q 223 721 139 676 q 407 765 307 765 q 571 727 503 765 q 674 608 639 689 q 710 403 710 528 q 674 197 710 278 q 571 78 639 117 q 407 39 503 39 m 469 249 q 553 268 517 249 q 612 322 590 288 q 633 403 633 357 q 612 483 633 449 q 553 537 590 518 q 469 556 517 556 q 385 537 422 556 q 326 483 347 518 q 304 403 304 449 q 326 322 304 357 q 385 268 347 288 q 469 249 422 249 m 483 831 q 291 890 367 831 q 211 1054 215 950 l 372 1054 q 406 987 375 1011 q 483 963 438 963 q 561 987 529 963 q 594 1054 593 1011 l 756 1054 q 676 890 751 950 q 483 831 600 831 z "},"ǧ":{"ha":979,"x_min":38,"x_max":894,"o":"m 453 -282 q 247 -257 344 -282 q 79 -183 149 -232 l 175 1 q 292 -58 222 -36 q 429 -79 363 -79 q 583 -33 536 -79 q 631 103 631 14 l 631 192 l 644 403 l 643 615 l 643 753 l 894 753 l 894 138 q 779 -179 894 -76 q 453 -282 664 -282 m 407 39 q 223 84 307 39 q 88 210 139 129 q 38 403 38 292 q 88 595 38 514 q 223 721 139 676 q 407 765 307 765 q 571 727 503 765 q 674 608 639 689 q 710 403 710 528 q 674 197 710 278 q 571 78 639 117 q 407 39 503 39 m 469 249 q 553 268 517 249 q 612 322 590 288 q 633 403 633 357 q 612 483 633 449 q 553 537 590 518 q 469 556 517 556 q 385 537 422 556 q 326 483 347 518 q 304 403 304 449 q 326 322 304 357 q 385 268 347 288 q 469 249 422 249 m 369 843 l 189 1054 l 364 1054 l 560 882 l 407 882 l 603 1054 l 778 1054 l 597 843 l 369 843 z "},"ĝ":{"ha":979,"x_min":38,"x_max":894,"o":"m 453 -282 q 247 -257 344 -282 q 79 -183 149 -232 l 175 1 q 292 -58 222 -36 q 429 -79 363 -79 q 583 -33 536 -79 q 631 103 631 14 l 631 192 l 644 403 l 643 615 l 643 753 l 894 753 l 894 138 q 779 -179 894 -76 q 453 -282 664 -282 m 407 39 q 223 84 307 39 q 88 210 139 129 q 38 403 38 292 q 88 595 38 514 q 223 721 139 676 q 407 765 307 765 q 571 727 503 765 q 674 608 639 689 q 710 403 710 528 q 674 197 710 278 q 571 78 639 117 q 407 39 503 39 m 469 249 q 553 268 517 249 q 612 322 590 288 q 633 403 633 357 q 612 483 633 449 q 553 537 590 518 q 469 556 517 556 q 385 537 422 556 q 326 483 347 518 q 304 403 304 449 q 326 322 304 357 q 385 268 347 288 q 469 249 422 249 m 189 843 l 369 1054 l 597 1054 l 778 843 l 603 843 l 407 1017 l 560 1017 l 364 843 l 189 843 z "},"ģ":{"ha":979,"x_min":38,"x_max":894,"o":"m 453 -282 q 247 -257 344 -282 q 79 -183 149 -232 l 175 1 q 292 -58 222 -36 q 429 -79 363 -79 q 583 -33 536 -79 q 631 103 631 14 l 631 192 l 644 403 l 643 615 l 643 753 l 894 753 l 894 138 q 779 -179 894 -76 q 453 -282 664 -282 m 407 39 q 223 84 307 39 q 88 210 139 129 q 38 403 38 292 q 88 595 38 514 q 223 721 139 676 q 407 765 307 765 q 571 727 503 765 q 674 608 639 689 q 710 403 710 528 q 674 197 710 278 q 571 78 639 117 q 407 39 503 39 m 469 249 q 553 268 517 249 q 612 322 590 288 q 633 403 633 357 q 612 483 633 449 q 553 537 590 518 q 469 556 517 556 q 385 537 422 556 q 326 483 347 518 q 304 403 304 449 q 326 322 304 357 q 385 268 347 288 q 469 249 422 249 m 483 831 q 386 856 418 831 q 354 924 354 882 q 362 965 354 942 q 390 1024 369 989 l 458 1146 l 599 1146 l 518 928 l 483 1015 q 580 991 547 1015 q 613 924 613 967 q 581 856 613 882 q 483 831 549 831 z "},"ġ":{"ha":979,"x_min":38,"x_max":894,"o":"m 453 -282 q 247 -257 344 -282 q 79 -183 149 -232 l 175 1 q 292 -58 222 -36 q 429 -79 363 -79 q 583 -33 536 -79 q 631 103 631 14 l 631 192 l 644 403 l 643 615 l 643 753 l 894 753 l 894 138 q 779 -179 894 -76 q 453 -282 664 -282 m 407 39 q 223 84 307 39 q 88 210 139 129 q 38 403 38 292 q 88 595 38 514 q 223 721 139 676 q 407 765 307 765 q 571 727 503 765 q 674 608 639 689 q 710 403 710 528 q 674 197 710 278 q 571 78 639 117 q 407 39 503 39 m 469 249 q 553 268 517 249 q 612 322 590 288 q 633 403 633 357 q 612 483 633 449 q 553 537 590 518 q 469 556 517 556 q 385 537 422 556 q 326 483 347 518 q 304 403 304 449 q 326 322 304 357 q 385 268 347 288 q 469 249 422 249 m 483 840 q 385 878 424 840 q 346 978 346 917 q 385 1076 346 1038 q 483 1114 424 1114 q 582 1076 543 1114 q 621 978 621 1038 q 582 878 621 917 q 483 840 543 840 z "},"ḡ":{"ha":979,"x_min":38,"x_max":894,"o":"m 453 -282 q 247 -257 344 -282 q 79 -183 149 -232 l 175 1 q 292 -58 222 -36 q 429 -79 363 -79 q 583 -33 536 -79 q 631 103 631 14 l 631 192 l 644 403 l 643 615 l 643 753 l 894 753 l 894 138 q 779 -179 894 -76 q 453 -282 664 -282 m 407 39 q 223 84 307 39 q 88 210 139 129 q 38 403 38 292 q 88 595 38 514 q 223 721 139 676 q 407 765 307 765 q 571 727 503 765 q 674 608 639 689 q 710 403 710 528 q 674 197 710 278 q 571 78 639 117 q 407 39 503 39 m 469 249 q 553 268 517 249 q 612 322 590 288 q 633 403 633 357 q 612 483 633 449 q 553 537 590 518 q 469 556 517 556 q 385 537 422 556 q 326 483 347 518 q 304 403 304 449 q 326 322 304 357 q 385 268 347 288 q 469 249 422 249 m 210 878 l 210 1019 l 757 1019 l 757 878 l 210 878 z "},"ǥ":{"ha":997,"x_min":38,"x_max":982,"o":"m 450 -282 q 244 -256 343 -282 q 79 -183 146 -231 l 175 -8 q 290 -67 219 -44 q 432 -89 360 -89 q 582 -44 533 -89 q 631 93 631 1 l 631 182 l 644 403 l 643 615 l 643 753 l 894 753 l 894 138 q 781 -177 894 -72 q 450 -282 668 -282 m 372 -35 l 372 74 l 982 75 l 982 -33 l 372 -35 m 397 108 q 208 151 289 108 q 83 267 128 193 q 38 438 38 342 q 83 607 38 533 q 208 722 128 681 q 396 764 289 764 q 560 728 490 764 q 670 619 631 692 q 710 435 710 547 q 671 251 710 324 q 561 144 632 179 q 397 108 490 108 m 469 293 q 556 310 519 293 q 613 360 593 328 q 633 438 633 393 q 613 514 633 482 q 556 563 593 546 q 469 581 519 581 q 382 563 419 581 q 324 514 344 546 q 304 438 304 482 q 324 360 304 393 q 382 310 344 328 q 469 293 419 293 z "},"h":{"ha":967,"x_min":85,"x_max":886,"o":"m 575 765 q 733 730 663 765 q 845 621 804 694 q 886 431 886 547 l 886 0 l 622 0 l 622 388 q 590 505 622 468 q 499 542 557 542 q 422 523 457 542 q 368 465 388 504 q 349 364 349 426 l 349 0 l 85 0 l 85 1031 l 349 1031 l 349 539 l 288 601 q 406 724 331 683 q 575 765 481 765 z "},"ħ":{"ha":967,"x_min":0,"x_max":886,"o":"m 575 765 q 733 730 663 765 q 845 621 804 694 q 886 431 886 547 l 886 0 l 622 0 l 622 388 q 590 505 622 468 q 499 542 557 542 q 422 523 457 542 q 368 465 388 504 q 349 364 349 426 l 349 0 l 85 0 l 85 1031 l 349 1031 l 349 539 l 288 601 q 406 724 331 683 q 575 765 481 765 m 0 818 l 0 956 l 583 956 l 583 818 l 0 818 z "},"ḫ":{"ha":967,"x_min":85,"x_max":886,"o":"m 575 765 q 733 730 663 765 q 845 621 804 694 q 886 431 886 547 l 886 0 l 622 0 l 622 388 q 590 505 622 468 q 499 542 557 542 q 422 523 457 542 q 368 465 388 504 q 349 364 349 426 l 349 0 l 85 0 l 85 1031 l 349 1031 l 349 539 l 288 601 q 406 724 331 683 q 575 765 481 765 m 489 -307 q 297 -249 372 -307 q 217 -99 222 -192 l 368 -99 q 405 -161 371 -137 q 489 -185 439 -185 q 574 -161 540 -185 q 610 -99 607 -137 l 761 -99 q 681 -249 757 -192 q 489 -307 606 -307 z "},"ȟ":{"ha":967,"x_min":-78,"x_max":886,"o":"m 575 765 q 733 730 663 765 q 845 621 804 694 q 886 431 886 547 l 886 0 l 622 0 l 622 388 q 590 505 622 468 q 499 542 557 542 q 422 523 457 542 q 368 465 388 504 q 349 364 349 426 l 349 0 l 85 0 l 85 1031 l 349 1031 l 349 539 l 288 601 q 406 724 331 683 q 575 765 481 765 m 103 1121 l -78 1332 l 97 1332 l 293 1160 l 140 1160 l 336 1332 l 511 1332 l 331 1121 l 103 1121 z "},"ĥ":{"ha":967,"x_min":-78,"x_max":886,"o":"m 575 765 q 733 730 663 765 q 845 621 804 694 q 886 431 886 547 l 886 0 l 622 0 l 622 388 q 590 505 622 468 q 499 542 557 542 q 422 523 457 542 q 368 465 388 504 q 349 364 349 426 l 349 0 l 85 0 l 85 1031 l 349 1031 l 349 539 l 288 601 q 406 724 331 683 q 575 765 481 765 z "},"ḥ":{"ha":967,"x_min":85,"x_max":886,"o":"m 575 765 q 733 730 663 765 q 845 621 804 694 q 886 431 886 547 l 886 0 l 622 0 l 622 388 q 590 505 622 468 q 499 542 557 542 q 422 523 457 542 q 368 465 388 504 q 349 364 349 426 l 349 0 l 85 0 l 85 1031 l 349 1031 l 349 539 l 288 601 q 406 724 331 683 q 575 765 481 765 m 489 -303 q 411 -274 443 -303 q 379 -196 379 -244 q 411 -117 379 -147 q 489 -86 443 -86 q 567 -117 535 -86 q 599 -196 599 -147 q 567 -274 599 -244 q 489 -303 535 -303 z "},"i":{"ha":435,"x_min":56,"x_max":379,"o":"m 85 0 l 85 753 l 349 753 l 349 0 l 85 0 m 217 836 q 100 876 144 836 q 56 976 56 917 q 100 1076 56 1036 q 217 1117 144 1117 q 333 1078 289 1117 q 378 981 378 1040 q 334 877 378 918 q 217 836 290 836 z "},"ı":{"ha":435,"x_min":85,"x_max":349,"o":"m 85 0 l 85 753 l 349 753 l 349 0 l 85 0 z "},"í":{"ha":435,"x_min":82,"x_max":532,"o":"m 85 0 l 85 753 l 349 753 l 349 0 l 85 0 m 81 843 l 267 1054 l 531 1054 l 269 843 l 81 843 z "},"ĭ":{"ha":435,"x_min":-21,"x_max":456,"o":"m 85 0 l 85 753 l 349 753 l 349 0 l 85 0 m 217 831 q 48 890 115 831 q -21 1054 -19 950 l 133 1054 q 156 985 133 1011 q 217 960 178 960 q 278 985 256 960 q 300 1054 300 1011 l 454 1054 q 386 890 453 950 q 217 831 319 831 z "},"î":{"ha":435,"x_min":-43,"x_max":478,"o":"m 85 0 l 85 753 l 349 753 l 349 0 l 85 0 m -43 843 l 106 1054 l 328 1054 l 476 843 l 303 843 l 146 1017 l 288 1017 l 131 843 l -43 843 z "},"ȉ":{"ha":435,"x_min":-165,"x_max":460,"o":"m 85 0 l 85 753 l 349 753 l 349 0 l 85 0 m 276 843 l 136 1054 l 372 1054 l 460 843 l 276 843 m -26 843 l -165 1054 l 71 1054 l 157 843 l -26 843 z "},"ï":{"ha":435,"x_min":-7,"x_max":442,"o":"m 85 0 l 85 753 l 349 753 l 349 0 l 85 0 m 339 842 q 266 872 296 842 q 236 950 236 901 q 266 1028 236 999 q 339 1058 296 1058 q 411 1028 382 1058 q 440 950 440 999 q 411 872 440 901 q 339 842 382 842 m 96 842 q 23 872 53 842 q -7 950 -7 901 q 23 1028 -7 999 q 96 1058 53 1058 q 168 1028 139 1058 q 197 950 197 999 q 168 872 197 901 q 96 842 139 842 z "},"ḯ":{"ha":435,"x_min":-29,"x_max":492,"o":"m 85 0 l 85 753 l 349 753 l 349 0 l 85 0 z "},"ị":{"ha":435,"x_min":56,"x_max":379,"o":"m 85 0 l 85 753 l 349 753 l 349 0 l 85 0 m 217 836 q 100 876 144 836 q 56 976 56 917 q 100 1076 56 1036 q 217 1117 144 1117 q 333 1078 289 1117 q 378 981 378 1040 q 334 877 378 918 q 217 836 290 836 m 217 -303 q 139 -274 171 -303 q 107 -196 107 -244 q 139 -117 107 -147 q 217 -86 171 -86 q 294 -117 263 -86 q 326 -196 326 -147 q 294 -274 326 -244 q 217 -303 263 -303 z "},"ì":{"ha":435,"x_min":-97,"x_max":353,"o":"m 85 0 l 85 753 l 349 753 l 349 0 l 85 0 m 164 843 l -97 1054 l 167 1054 l 353 843 l 164 843 z "},"ỉ":{"ha":435,"x_min":57,"x_max":403,"o":"m 85 0 l 85 753 l 349 753 l 349 0 l 85 0 m 267 829 l 186 910 q 240 949 226 929 q 254 990 254 969 q 237 1031 254 1017 q 192 1046 219 1046 q 111 1018 151 1046 l 57 1121 q 133 1159 90 1146 q 221 1172 176 1172 q 352 1128 301 1172 q 403 1013 403 1083 q 368 904 403 949 q 267 829 333 860 z "},"ȋ":{"ha":435,"x_min":-21,"x_max":456,"o":"m 85 0 l 85 753 l 349 753 l 349 0 l 85 0 m -21 843 q 48 1007 -19 947 q 217 1067 115 1067 q 386 1007 319 1067 q 454 843 453 947 l 300 843 q 278 911 300 885 q 217 938 256 938 q 156 911 178 938 q 133 843 133 885 l -21 843 z "},"ĳ":{"ha":879,"x_min":56,"x_max":824,"o":"m 85 0 l 85 753 l 349 753 l 349 0 l 85 0 m 217 836 q 100 876 144 836 q 56 976 56 917 q 100 1076 56 1036 q 217 1117 144 1117 q 333 1078 289 1117 q 378 981 378 1040 q 334 877 378 918 q 217 836 290 836 z "},"ī":{"ha":435,"x_min":-4,"x_max":439,"o":"m 85 0 l 85 753 l 349 753 l 349 0 l 85 0 m -6 878 l -6 1019 l 439 1019 l 439 878 l -6 878 z "},"į":{"ha":435,"x_min":56,"x_max":389,"o":"m 85 0 l 85 753 l 349 753 l 349 0 l 85 0 m 217 836 q 100 876 144 836 q 56 976 56 917 q 100 1076 56 1036 q 217 1117 144 1117 q 333 1078 289 1117 q 378 981 378 1040 q 334 877 378 918 q 217 836 290 836 m 278 -328 q 145 -283 196 -328 q 94 -164 94 -239 q 141 -34 94 -93 q 275 64 188 25 l 349 0 q 275 -72 294 -39 q 256 -140 256 -106 q 272 -185 256 -168 q 311 -203 288 -203 q 334 -199 322 -203 q 356 -187 346 -194 l 388 -297 q 278 -328 344 -328 z "},"ĩ":{"ha":435,"x_min":-28,"x_max":463,"o":"m 85 0 l 85 753 l 349 753 l 349 0 l 85 0 m 313 833 q 252 847 279 833 q 205 879 225 861 q 169 910 185 897 q 139 924 153 924 q 108 903 118 924 q 97 846 97 883 l -29 846 q 10 1011 -29 956 q 121 1067 49 1067 q 182 1053 156 1067 q 228 1022 208 1040 q 265 991 249 1004 q 294 978 281 978 q 326 997 315 978 q 336 1051 336 1015 l 463 1051 q 424 889 463 944 q 313 833 385 833 z "},"j":{"ha":444,"x_min":-131,"x_max":389,"o":"m 53 -282 q -48 -272 0 -282 q -131 -243 -96 -261 l -64 -56 q 18 -78 -28 -78 q 74 -54 53 -78 q 96 21 96 -31 l 96 753 l 360 753 l 360 19 q 279 -200 360 -118 q 53 -282 199 -282 m 228 836 q 111 876 156 836 q 67 976 67 917 q 111 1076 67 1036 q 228 1117 156 1117 q 344 1078 300 1117 q 389 981 389 1040 q 345 877 389 918 q 228 836 301 836 z "},"ȷ":{"ha":444,"x_min":-131,"x_max":360,"o":"m 53 -282 q -48 -272 0 -282 q -131 -243 -96 -261 l -64 -56 q 18 -78 -28 -78 q 74 -54 53 -78 q 96 21 96 -31 l 96 753 l 360 753 l 360 19 q 279 -200 360 -118 q 53 -282 199 -282 z "},"ĵ":{"ha":444,"x_min":-131,"x_max":488,"o":"m 53 -282 q -48 -272 0 -282 q -131 -243 -96 -261 l -64 -56 q 18 -78 -28 -78 q 74 -54 53 -78 q 96 21 96 -31 l 96 753 l 360 753 l 360 19 q 279 -200 360 -118 q 53 -282 199 -282 m -32 843 l 117 1054 l 339 1054 l 488 843 l 314 843 l 157 1017 l 299 1017 l 142 843 l -32 843 z "},"k":{"ha":953,"x_min":85,"x_max":957,"o":"m 304 139 l 311 454 l 618 753 l 931 753 l 590 401 l 456 293 l 304 139 m 85 0 l 85 1031 l 349 1031 l 349 0 l 85 0 m 638 0 l 407 289 l 571 492 l 957 0 l 638 0 z "},"ǩ":{"ha":953,"x_min":-78,"x_max":957,"o":"m 304 139 l 311 454 l 618 753 l 931 753 l 590 401 l 456 293 l 304 139 m 85 0 l 85 1031 l 349 1031 l 349 0 l 85 0 m 638 0 l 407 289 l 571 492 l 957 0 l 638 0 m 103 1121 l -78 1332 l 97 1332 l 293 1160 l 140 1160 l 336 1332 l 511 1332 l 331 1121 l 103 1121 z "},"ķ":{"ha":953,"x_min":85,"x_max":957,"o":"m 304 139 l 311 454 l 618 753 l 931 753 l 590 401 l 456 293 l 304 139 m 85 0 l 85 1031 l 349 1031 l 349 0 l 85 0 m 638 0 l 407 289 l 571 492 l 957 0 l 638 0 m 354 -372 l 415 -183 l 444 -271 q 363 -246 390 -271 q 335 -179 335 -221 q 364 -112 335 -137 q 444 -86 393 -86 q 525 -112 496 -86 q 554 -179 554 -137 q 549 -222 554 -197 q 525 -279 543 -246 l 474 -372 l 354 -372 z "},"ĸ":{"ha":926,"x_min":85,"x_max":957,"o":"m 304 139 l 311 454 l 618 753 l 931 753 l 590 401 l 456 293 l 304 139 m 85 0 l 85 753 l 349 753 l 349 0 l 85 0 m 638 0 l 407 289 l 571 492 l 957 0 l 638 0 z "},"l":{"ha":435,"x_min":85,"x_max":349,"o":"m 85 0 l 85 1031 l 349 1031 l 349 0 l 85 0 z "},"ĺ":{"ha":435,"x_min":82,"x_max":532,"o":"m 85 0 l 85 1031 l 349 1031 l 349 0 l 85 0 m 81 1121 l 267 1332 l 531 1332 l 269 1121 l 81 1121 z "},"ľ":{"ha":435,"x_min":85,"x_max":643,"o":"m 85 0 l 85 1031 l 349 1031 l 349 0 l 85 0 m 453 808 l 453 1093 l 643 1093 l 608 808 l 453 808 z "},"ļ":{"ha":435,"x_min":85,"x_max":349,"o":"m 85 0 l 85 1031 l 349 1031 l 349 0 l 85 0 m 126 -372 l 188 -183 l 217 -271 q 135 -246 163 -271 q 107 -179 107 -221 q 136 -112 107 -137 q 217 -86 165 -86 q 297 -112 268 -86 q 326 -179 326 -137 q 321 -222 326 -197 q 297 -279 315 -246 l 246 -372 l 126 -372 z "},"ŀ":{"ha":642,"x_min":85,"x_max":664,"o":"m 85 0 l 85 1031 l 349 1031 l 349 0 l 85 0 m 538 383 q 448 419 483 383 q 413 508 413 454 q 448 598 413 563 q 538 633 483 633 q 628 598 593 633 q 664 508 664 563 q 628 419 664 454 q 538 383 593 383 z "},"ḷ":{"ha":435,"x_min":85,"x_max":349,"o":"m 85 0 l 85 1031 l 349 1031 l 349 0 l 85 0 m 217 -303 q 139 -274 171 -303 q 107 -196 107 -244 q 139 -117 107 -147 q 217 -86 171 -86 q 294 -117 263 -86 q 326 -196 326 -147 q 294 -274 326 -244 q 217 -303 263 -303 z "},"ǉ":{"ha":879,"x_min":85,"x_max":824,"o":"m 85 0 l 85 1031 l 349 1031 l 349 0 l 85 0 m 488 -282 q 387 -272 435 -282 q 304 -243 339 -261 l 371 -56 q 453 -78 407 -78 q 509 -54 488 -78 q 531 21 531 -31 l 531 753 l 794 753 l 794 19 q 714 -200 794 -118 q 488 -282 633 -282 m 663 836 q 546 876 590 836 q 501 976 501 917 q 546 1076 501 1036 q 663 1117 590 1117 q 779 1078 735 1117 q 824 981 824 1040 q 780 877 824 918 q 663 836 736 836 z "},"ḻ":{"ha":435,"x_min":-56,"x_max":490,"o":"m 85 0 l 85 1031 l 349 1031 l 349 0 l 85 0 m -57 -260 l -57 -118 l 490 -118 l 490 -260 l -57 -260 z "},"ł":{"ha":481,"x_min":-51,"x_max":532,"o":"m 108 0 l 108 1031 l 372 1031 l 372 0 l 108 0 m 38 263 l -51 386 l 444 756 l 532 631 l 38 263 z "},"m":{"ha":1451,"x_min":85,"x_max":1369,"o":"m 1065 765 q 1222 730 1153 765 q 1330 621 1290 694 q 1369 431 1369 547 l 1369 0 l 1106 0 l 1106 388 q 1075 505 1106 468 q 992 542 1044 542 q 924 524 954 542 q 876 469 893 506 q 860 374 860 432 l 860 0 l 596 0 l 596 388 q 566 505 596 468 q 482 542 536 542 q 413 524 443 542 q 366 469 383 506 q 349 374 349 432 l 349 0 l 85 0 l 85 753 l 336 753 l 336 543 l 286 603 q 400 724 328 683 q 561 765 472 765 q 740 713 663 765 q 843 551 817 661 l 757 569 q 878 713 797 661 q 1065 765 960 765 z "},"ṃ":{"ha":1451,"x_min":85,"x_max":1369,"o":"m 1065 765 q 1222 730 1153 765 q 1330 621 1290 694 q 1369 431 1369 547 l 1369 0 l 1106 0 l 1106 388 q 1075 505 1106 468 q 992 542 1044 542 q 924 524 954 542 q 876 469 893 506 q 860 374 860 432 l 860 0 l 596 0 l 596 388 q 566 505 596 468 q 482 542 536 542 q 413 524 443 542 q 366 469 383 506 q 349 374 349 432 l 349 0 l 85 0 l 85 753 l 336 753 l 336 543 l 286 603 q 400 724 328 683 q 561 765 472 765 q 740 713 663 765 q 843 551 817 661 l 757 569 q 878 713 797 661 q 1065 765 960 765 m 725 -303 q 647 -274 679 -303 q 615 -196 615 -244 q 647 -117 615 -147 q 725 -86 679 -86 q 803 -117 771 -86 q 835 -196 835 -147 q 803 -274 835 -244 q 725 -303 771 -303 z "},"n":{"ha":967,"x_min":85,"x_max":886,"o":"m 575 765 q 733 730 663 765 q 845 621 804 694 q 886 431 886 547 l 886 0 l 622 0 l 622 388 q 590 505 622 468 q 499 542 557 542 q 422 523 457 542 q 368 465 388 504 q 349 364 349 426 l 349 0 l 85 0 l 85 753 l 336 753 l 336 539 l 288 601 q 406 724 331 683 q 575 765 481 765 z "},"ń":{"ha":967,"x_min":85,"x_max":886,"o":"m 575 765 q 733 730 663 765 q 845 621 804 694 q 886 431 886 547 l 886 0 l 622 0 l 622 388 q 590 505 622 468 q 499 542 557 542 q 422 523 457 542 q 368 465 388 504 q 349 364 349 426 l 349 0 l 85 0 l 85 753 l 336 753 l 336 539 l 288 601 q 406 724 331 683 q 575 765 481 765 m 353 843 l 539 1054 l 803 1054 l 542 843 l 353 843 z "},"ŉ":{"ha":1163,"x_min":-33,"x_max":1081,"o":"m 771 765 q 929 730 858 765 q 1041 621 1000 694 q 1082 431 1082 547 l 1082 0 l 818 0 l 818 388 q 785 505 818 468 q 694 542 753 542 q 618 523 653 542 q 564 465 583 504 q 544 364 544 426 l 544 0 l 281 0 l 281 753 l 532 753 l 532 539 l 483 601 q 601 724 526 683 q 771 765 676 765 z "},"ň":{"ha":967,"x_min":85,"x_max":886,"o":"m 575 765 q 733 730 663 765 q 845 621 804 694 q 886 431 886 547 l 886 0 l 622 0 l 622 388 q 590 505 622 468 q 499 542 557 542 q 422 523 457 542 q 368 465 388 504 q 349 364 349 426 l 349 0 l 85 0 l 85 753 l 336 753 l 336 539 l 288 601 q 406 724 331 683 q 575 765 481 765 m 375 843 l 194 1054 l 369 1054 l 565 882 l 413 882 l 608 1054 l 783 1054 l 603 843 l 375 843 z "},"ņ":{"ha":967,"x_min":85,"x_max":886,"o":"m 575 765 q 733 730 663 765 q 845 621 804 694 q 886 431 886 547 l 886 0 l 622 0 l 622 388 q 590 505 622 468 q 499 542 557 542 q 422 523 457 542 q 368 465 388 504 q 349 364 349 426 l 349 0 l 85 0 l 85 753 l 336 753 l 336 539 l 288 601 q 406 724 331 683 q 575 765 481 765 m 399 -372 l 460 -183 l 489 -271 q 407 -246 435 -271 q 379 -179 379 -221 q 408 -112 379 -137 q 489 -86 438 -86 q 569 -112 540 -86 q 599 -179 599 -137 q 593 -222 599 -197 q 569 -279 588 -246 l 518 -372 l 399 -372 z "},"ṅ":{"ha":967,"x_min":85,"x_max":886,"o":"m 575 765 q 733 730 663 765 q 845 621 804 694 q 886 431 886 547 l 886 0 l 622 0 l 622 388 q 590 505 622 468 q 499 542 557 542 q 422 523 457 542 q 368 465 388 504 q 349 364 349 426 l 349 0 l 85 0 l 85 753 l 336 753 l 336 539 l 288 601 q 406 724 331 683 q 575 765 481 765 m 489 840 q 390 878 429 840 q 351 978 351 917 q 390 1076 351 1038 q 489 1114 429 1114 q 588 1076 549 1114 q 626 978 626 1038 q 588 878 626 917 q 489 840 549 840 z "},"ṇ":{"ha":967,"x_min":85,"x_max":886,"o":"m 575 765 q 733 730 663 765 q 845 621 804 694 q 886 431 886 547 l 886 0 l 622 0 l 622 388 q 590 505 622 468 q 499 542 557 542 q 422 523 457 542 q 368 465 388 504 q 349 364 349 426 l 349 0 l 85 0 l 85 753 l 336 753 l 336 539 l 288 601 q 406 724 331 683 q 575 765 481 765 m 489 -303 q 411 -274 443 -303 q 379 -196 379 -244 q 411 -117 379 -147 q 489 -86 443 -86 q 567 -117 535 -86 q 599 -196 599 -147 q 567 -274 599 -244 q 489 -303 535 -303 z "},"ŋ":{"ha":967,"x_min":85,"x_max":886,"o":"m 575 765 q 733 730 663 765 q 845 621 804 694 q 886 431 886 547 l 886 19 q 806 -200 886 -118 q 579 -282 725 -282 q 478 -272 526 -282 q 396 -243 431 -261 l 463 -56 q 544 -78 499 -78 q 601 -54 579 -78 q 622 21 622 -31 l 622 388 q 590 505 622 468 q 499 542 557 542 q 422 523 457 542 q 368 465 388 504 q 349 364 349 426 l 349 0 l 85 0 l 85 753 l 336 753 l 336 539 l 288 601 q 406 724 331 683 q 575 765 481 765 z "},"ǌ":{"ha":1411,"x_min":85,"x_max":1356,"o":"m 575 765 q 733 730 663 765 q 845 621 804 694 q 886 431 886 547 l 886 0 l 622 0 l 622 388 q 590 505 622 468 q 499 542 557 542 q 422 523 457 542 q 368 465 388 504 q 349 364 349 426 l 349 0 l 85 0 l 85 753 l 336 753 l 336 539 l 288 601 q 406 724 331 683 q 575 765 481 765 m 1019 -282 q 919 -272 967 -282 q 836 -243 871 -261 l 903 -56 q 985 -78 939 -78 q 1041 -54 1019 -78 q 1063 21 1063 -31 l 1063 753 l 1326 753 l 1326 19 q 1246 -200 1326 -118 q 1019 -282 1165 -282 m 1194 836 q 1078 876 1122 836 q 1033 976 1033 917 q 1078 1076 1033 1036 q 1194 1117 1122 1117 q 1311 1078 1267 1117 q 1356 981 1356 1040 q 1312 877 1356 918 q 1194 836 1268 836 z "},"ṉ":{"ha":967,"x_min":85,"x_max":886,"o":"m 575 765 q 733 730 663 765 q 845 621 804 694 q 886 431 886 547 l 886 0 l 622 0 l 622 388 q 590 505 622 468 q 499 542 557 542 q 422 523 457 542 q 368 465 388 504 q 349 364 349 426 l 349 0 l 85 0 l 85 753 l 336 753 l 336 539 l 288 601 q 406 724 331 683 q 575 765 481 765 m 215 -260 l 215 -118 l 763 -118 l 763 -260 l 215 -260 z "},"ñ":{"ha":967,"x_min":85,"x_max":886,"o":"m 575 765 q 733 730 663 765 q 845 621 804 694 q 886 431 886 547 l 886 0 l 622 0 l 622 388 q 590 505 622 468 q 499 542 557 542 q 422 523 457 542 q 368 465 388 504 q 349 364 349 426 l 349 0 l 85 0 l 85 753 l 336 753 l 336 539 l 288 601 q 406 724 331 683 q 575 765 481 765 m 597 833 q 531 847 560 833 q 479 876 503 860 q 436 906 456 893 q 397 919 417 919 q 353 900 369 919 q 333 846 336 881 l 204 846 q 253 1007 207 947 q 381 1067 300 1067 q 447 1054 418 1067 q 499 1024 476 1042 q 542 994 522 1007 q 581 982 563 982 q 626 1001 608 982 q 644 1051 643 1019 l 774 1051 q 725 894 772 954 q 597 833 678 833 z "},"o":{"ha":925,"x_min":38,"x_max":888,"o":"m 463 -12 q 243 38 339 -12 q 92 176 147 88 q 38 378 38 264 q 92 579 38 492 q 243 716 147 667 q 463 765 339 765 q 683 716 586 765 q 833 579 779 667 q 888 378 888 492 q 833 176 888 264 q 683 38 779 88 q 463 -12 586 -12 m 463 197 q 544 218 508 197 q 600 280 579 239 q 621 378 621 321 q 600 474 621 435 q 544 535 579 514 q 463 556 508 556 q 383 535 418 556 q 326 474 347 514 q 304 378 304 435 q 326 280 304 321 q 383 218 347 239 q 463 197 418 197 z "},"ó":{"ha":925,"x_min":38,"x_max":888,"o":"m 463 -12 q 243 38 339 -12 q 92 176 147 88 q 38 378 38 264 q 92 579 38 492 q 243 716 147 667 q 463 765 339 765 q 683 716 586 765 q 833 579 779 667 q 888 378 888 492 q 833 176 888 264 q 683 38 779 88 q 463 -12 586 -12 m 463 197 q 544 218 508 197 q 600 280 579 239 q 621 378 621 321 q 600 474 621 435 q 544 535 579 514 q 463 556 508 556 q 383 535 418 556 q 326 474 347 514 q 304 378 304 435 q 326 280 304 321 q 383 218 347 239 q 463 197 418 197 m 324 843 l 510 1054 l 774 1054 l 513 843 l 324 843 z "},"ŏ":{"ha":925,"x_min":38,"x_max":888,"o":"m 463 -12 q 243 38 339 -12 q 92 176 147 88 q 38 378 38 264 q 92 579 38 492 q 243 716 147 667 q 463 765 339 765 q 683 716 586 765 q 833 579 779 667 q 888 378 888 492 q 833 176 888 264 q 683 38 779 88 q 463 -12 586 -12 m 463 197 q 544 218 508 197 q 600 280 579 239 q 621 378 621 321 q 600 474 621 435 q 544 535 579 514 q 463 556 508 556 q 383 535 418 556 q 326 474 347 514 q 304 378 304 435 q 326 280 304 321 q 383 218 347 239 q 463 197 418 197 m 460 831 q 267 890 343 831 q 188 1054 192 950 l 349 1054 q 383 987 351 1011 q 460 963 414 963 q 538 987 506 963 q 571 1054 569 1011 l 732 1054 q 652 890 728 950 q 460 831 576 831 z "},"ô":{"ha":925,"x_min":38,"x_max":888,"o":"m 463 -12 q 243 38 339 -12 q 92 176 147 88 q 38 378 38 264 q 92 579 38 492 q 243 716 147 667 q 463 765 339 765 q 683 716 586 765 q 833 579 779 667 q 888 378 888 492 q 833 176 888 264 q 683 38 779 88 q 463 -12 586 -12 m 463 197 q 544 218 508 197 q 600 280 579 239 q 621 378 621 321 q 600 474 621 435 q 544 535 579 514 q 463 556 508 556 q 383 535 418 556 q 326 474 347 514 q 304 378 304 435 q 326 280 304 321 q 383 218 347 239 q 463 197 418 197 m 165 843 l 346 1054 l 574 1054 l 754 843 l 579 843 l 383 1017 l 536 1017 l 340 843 l 165 843 z "},"ố":{"ha":925,"x_min":38,"x_max":1049,"o":"m 463 -12 q 243 38 339 -12 q 92 176 147 88 q 38 378 38 264 q 92 579 38 492 q 243 716 147 667 q 463 765 339 765 q 683 716 586 765 q 833 579 779 667 q 888 378 888 492 q 833 176 888 264 q 683 38 779 88 q 463 -12 586 -12 m 463 197 q 544 218 508 197 q 600 280 579 239 q 621 378 621 321 q 600 474 621 435 q 544 535 579 514 q 463 556 508 556 q 383 535 418 556 q 326 474 347 514 q 304 378 304 435 q 326 280 304 321 q 383 218 347 239 q 463 197 418 197 z "},"ộ":{"ha":925,"x_min":38,"x_max":888,"o":"m 463 -12 q 243 38 339 -12 q 92 176 147 88 q 38 378 38 264 q 92 579 38 492 q 243 716 147 667 q 463 765 339 765 q 683 716 586 765 q 833 579 779 667 q 888 378 888 492 q 833 176 888 264 q 683 38 779 88 q 463 -12 586 -12 m 463 197 q 544 218 508 197 q 600 280 579 239 q 621 378 621 321 q 600 474 621 435 q 544 535 579 514 q 463 556 508 556 q 383 535 418 556 q 326 474 347 514 q 304 378 304 435 q 326 280 304 321 q 383 218 347 239 q 463 197 418 197 m 460 -303 q 382 -274 414 -303 q 350 -196 350 -244 q 382 -117 350 -147 q 460 -86 414 -86 q 538 -117 506 -86 q 569 -196 569 -147 q 538 -274 569 -244 q 460 -303 506 -303 m 165 843 l 346 1054 l 574 1054 l 754 843 l 579 843 l 383 1017 l 536 1017 l 340 843 l 165 843 z "},"ồ":{"ha":925,"x_min":38,"x_max":907,"o":"m 463 -12 q 243 38 339 -12 q 92 176 147 88 q 38 378 38 264 q 92 579 38 492 q 243 716 147 667 q 463 765 339 765 q 683 716 586 765 q 833 579 779 667 q 888 378 888 492 q 833 176 888 264 q 683 38 779 88 q 463 -12 586 -12 m 463 197 q 544 218 508 197 q 600 280 579 239 q 621 378 621 321 q 600 474 621 435 q 544 535 579 514 q 463 556 508 556 q 383 535 418 556 q 326 474 347 514 q 304 378 304 435 q 326 280 304 321 q 383 218 347 239 q 463 197 418 197 z "},"ổ":{"ha":925,"x_min":38,"x_max":888,"o":"m 463 -12 q 243 38 339 -12 q 92 176 147 88 q 38 378 38 264 q 92 579 38 492 q 243 716 147 667 q 463 765 339 765 q 683 716 586 765 q 833 579 779 667 q 888 378 888 492 q 833 176 888 264 q 683 38 779 88 q 463 -12 586 -12 m 463 197 q 544 218 508 197 q 600 280 579 239 q 621 378 621 321 q 600 474 621 435 q 544 535 579 514 q 463 556 508 556 q 383 535 418 556 q 326 474 347 514 q 304 378 304 435 q 326 280 304 321 q 383 218 347 239 q 463 197 418 197 z "},"ỗ":{"ha":925,"x_min":38,"x_max":888,"o":"m 463 -12 q 243 38 339 -12 q 92 176 147 88 q 38 378 38 264 q 92 579 38 492 q 243 716 147 667 q 463 765 339 765 q 683 716 586 765 q 833 579 779 667 q 888 378 888 492 q 833 176 888 264 q 683 38 779 88 q 463 -12 586 -12 m 463 197 q 544 218 508 197 q 600 280 579 239 q 621 378 621 321 q 600 474 621 435 q 544 535 579 514 q 463 556 508 556 q 383 535 418 556 q 326 474 347 514 q 304 378 304 435 q 326 280 304 321 q 383 218 347 239 q 463 197 418 197 z "},"ȍ":{"ha":925,"x_min":38,"x_max":888,"o":"m 463 -12 q 243 38 339 -12 q 92 176 147 88 q 38 378 38 264 q 92 579 38 492 q 243 716 147 667 q 463 765 339 765 q 683 716 586 765 q 833 579 779 667 q 888 378 888 492 q 833 176 888 264 q 683 38 779 88 q 463 -12 586 -12 m 463 197 q 544 218 508 197 q 600 280 579 239 q 621 378 621 321 q 600 474 621 435 q 544 535 579 514 q 463 556 508 556 q 383 535 418 556 q 326 474 347 514 q 304 378 304 435 q 326 280 304 321 q 383 218 347 239 q 463 197 418 197 m 519 843 l 379 1054 l 615 1054 l 703 843 l 519 843 m 217 843 l 78 1054 l 314 1054 l 400 843 l 217 843 z "},"ö":{"ha":925,"x_min":38,"x_max":888,"o":"m 463 -12 q 243 38 339 -12 q 92 176 147 88 q 38 378 38 264 q 92 579 38 492 q 243 716 147 667 q 463 765 339 765 q 683 716 586 765 q 833 579 779 667 q 888 378 888 492 q 833 176 888 264 q 683 38 779 88 q 463 -12 586 -12 m 463 197 q 544 218 508 197 q 600 280 579 239 q 621 378 621 321 q 600 474 621 435 q 544 535 579 514 q 463 556 508 556 q 383 535 418 556 q 326 474 347 514 q 304 378 304 435 q 326 280 304 321 q 383 218 347 239 q 463 197 418 197 m 607 842 q 529 872 561 842 q 497 950 497 901 q 529 1029 497 999 q 607 1060 561 1060 q 685 1029 653 1060 q 717 950 717 999 q 685 872 717 901 q 607 842 653 842 m 313 842 q 235 872 267 842 q 203 950 203 901 q 235 1029 203 999 q 313 1060 267 1060 q 390 1029 358 1060 q 422 950 422 999 q 390 872 422 901 q 313 842 358 842 z "},"ȫ":{"ha":925,"x_min":38,"x_max":888,"o":"m 463 -12 q 243 38 339 -12 q 92 176 147 88 q 38 378 38 264 q 92 579 38 492 q 243 716 147 667 q 463 765 339 765 q 683 716 586 765 q 833 579 779 667 q 888 378 888 492 q 833 176 888 264 q 683 38 779 88 q 463 -12 586 -12 m 463 197 q 544 218 508 197 q 600 280 579 239 q 621 378 621 321 q 600 474 621 435 q 544 535 579 514 q 463 556 508 556 q 383 535 418 556 q 326 474 347 514 q 304 378 304 435 q 326 280 304 321 q 383 218 347 239 q 463 197 418 197 z "},"ȱ":{"ha":925,"x_min":38,"x_max":888,"o":"m 463 -12 q 243 38 339 -12 q 92 176 147 88 q 38 378 38 264 q 92 579 38 492 q 243 716 147 667 q 463 765 339 765 q 683 716 586 765 q 833 579 779 667 q 888 378 888 492 q 833 176 888 264 q 683 38 779 88 q 463 -12 586 -12 m 463 197 q 544 218 508 197 q 600 280 579 239 q 621 378 621 321 q 600 474 621 435 q 544 535 579 514 q 463 556 508 556 q 383 535 418 556 q 326 474 347 514 q 304 378 304 435 q 326 280 304 321 q 383 218 347 239 q 463 197 418 197 z "},"ọ":{"ha":925,"x_min":38,"x_max":888,"o":"m 463 -12 q 243 38 339 -12 q 92 176 147 88 q 38 378 38 264 q 92 579 38 492 q 243 716 147 667 q 463 765 339 765 q 683 716 586 765 q 833 579 779 667 q 888 378 888 492 q 833 176 888 264 q 683 38 779 88 q 463 -12 586 -12 m 463 197 q 544 218 508 197 q 600 280 579 239 q 621 378 621 321 q 600 474 621 435 q 544 535 579 514 q 463 556 508 556 q 383 535 418 556 q 326 474 347 514 q 304 378 304 435 q 326 280 304 321 q 383 218 347 239 q 463 197 418 197 m 460 -303 q 382 -274 414 -303 q 350 -196 350 -244 q 382 -117 350 -147 q 460 -86 414 -86 q 538 -117 506 -86 q 569 -196 569 -147 q 538 -274 569 -244 q 460 -303 506 -303 z "},"ò":{"ha":925,"x_min":38,"x_max":888,"o":"m 463 -12 q 243 38 339 -12 q 92 176 147 88 q 38 378 38 264 q 92 579 38 492 q 243 716 147 667 q 463 765 339 765 q 683 716 586 765 q 833 579 779 667 q 888 378 888 492 q 833 176 888 264 q 683 38 779 88 q 463 -12 586 -12 m 463 197 q 544 218 508 197 q 600 280 579 239 q 621 378 621 321 q 600 474 621 435 q 544 535 579 514 q 463 556 508 556 q 383 535 418 556 q 326 474 347 514 q 304 378 304 435 q 326 280 304 321 q 383 218 347 239 q 463 197 418 197 m 407 843 l 146 1054 l 410 1054 l 596 843 l 407 843 z "},"ỏ":{"ha":925,"x_min":38,"x_max":888,"o":"m 463 -12 q 243 38 339 -12 q 92 176 147 88 q 38 378 38 264 q 92 579 38 492 q 243 716 147 667 q 463 765 339 765 q 683 716 586 765 q 833 579 779 667 q 888 378 888 492 q 833 176 888 264 q 683 38 779 88 q 463 -12 586 -12 m 463 197 q 544 218 508 197 q 600 280 579 239 q 621 378 621 321 q 600 474 621 435 q 544 535 579 514 q 463 556 508 556 q 383 535 418 556 q 326 474 347 514 q 304 378 304 435 q 326 280 304 321 q 383 218 347 239 q 463 197 418 197 m 510 829 l 429 910 q 483 949 469 929 q 497 990 497 969 q 480 1031 497 1017 q 435 1046 463 1046 q 354 1018 394 1046 l 300 1121 q 376 1159 333 1146 q 464 1172 419 1172 q 595 1128 544 1172 q 646 1013 646 1083 q 611 904 646 949 q 510 829 576 860 z "},"ơ":{"ha":925,"x_min":38,"x_max":888,"o":"m 463 -12 q 243 38 339 -12 q 92 176 147 88 q 38 378 38 264 q 92 579 38 492 q 244 716 147 667 q 465 765 342 765 q 530 763 501 765 q 583 756 558 760 q 629 753 607 753 q 690 777 669 753 q 710 840 710 801 q 701 885 710 864 q 679 921 692 907 l 831 976 q 867 910 853 946 q 881 829 881 874 q 847 708 881 760 q 751 627 813 656 q 610 599 689 599 q 537 603 572 599 q 471 613 501 607 l 644 731 q 822 594 757 688 q 888 378 888 501 q 833 176 888 264 q 682 38 778 88 q 463 -12 586 -12 m 463 197 q 542 218 507 197 q 599 280 578 239 q 621 378 621 321 q 600 474 621 435 q 544 535 579 514 q 463 556 508 556 q 383 535 418 556 q 326 474 347 514 q 304 378 304 435 q 326 280 304 321 q 383 218 347 239 q 463 197 418 197 z "},"ớ":{"ha":925,"x_min":38,"x_max":888,"o":"m 463 -12 q 243 38 339 -12 q 92 176 147 88 q 38 378 38 264 q 92 579 38 492 q 244 716 147 667 q 465 765 342 765 q 530 763 501 765 q 583 756 558 760 q 629 753 607 753 q 690 777 669 753 q 710 840 710 801 q 701 885 710 864 q 679 921 692 907 l 831 976 q 867 910 853 946 q 881 829 881 874 q 847 708 881 760 q 751 627 813 656 q 610 599 689 599 q 537 603 572 599 q 471 613 501 607 l 644 731 q 822 594 757 688 q 888 378 888 501 q 833 176 888 264 q 682 38 778 88 q 463 -12 586 -12 m 463 197 q 542 218 507 197 q 599 280 578 239 q 621 378 621 321 q 600 474 621 435 q 544 535 579 514 q 463 556 508 556 q 383 535 418 556 q 326 474 347 514 q 304 378 304 435 q 326 280 304 321 q 383 218 347 239 q 463 197 418 197 m 326 843 l 513 1054 l 776 1054 l 515 843 l 326 843 z "},"ợ":{"ha":925,"x_min":38,"x_max":888,"o":"m 463 -12 q 243 38 339 -12 q 92 176 147 88 q 38 378 38 264 q 92 579 38 492 q 244 716 147 667 q 465 765 342 765 q 530 763 501 765 q 583 756 558 760 q 629 753 607 753 q 690 777 669 753 q 710 840 710 801 q 701 885 710 864 q 679 921 692 907 l 831 976 q 867 910 853 946 q 881 829 881 874 q 847 708 881 760 q 751 627 813 656 q 610 599 689 599 q 537 603 572 599 q 471 613 501 607 l 644 731 q 822 594 757 688 q 888 378 888 501 q 833 176 888 264 q 682 38 778 88 q 463 -12 586 -12 m 463 197 q 542 218 507 197 q 599 280 578 239 q 621 378 621 321 q 600 474 621 435 q 544 535 579 514 q 463 556 508 556 q 383 535 418 556 q 326 474 347 514 q 304 378 304 435 q 326 280 304 321 q 383 218 347 239 q 463 197 418 197 m 463 -303 q 385 -274 417 -303 q 353 -196 353 -244 q 385 -117 353 -147 q 463 -86 417 -86 q 540 -117 508 -86 q 572 -196 572 -147 q 540 -274 572 -244 q 463 -303 508 -303 z "},"ờ":{"ha":925,"x_min":38,"x_max":888,"o":"m 463 -12 q 243 38 339 -12 q 92 176 147 88 q 38 378 38 264 q 92 579 38 492 q 244 716 147 667 q 465 765 342 765 q 530 763 501 765 q 583 756 558 760 q 629 753 607 753 q 690 777 669 753 q 710 840 710 801 q 701 885 710 864 q 679 921 692 907 l 831 976 q 867 910 853 946 q 881 829 881 874 q 847 708 881 760 q 751 627 813 656 q 610 599 689 599 q 537 603 572 599 q 471 613 501 607 l 644 731 q 822 594 757 688 q 888 378 888 501 q 833 176 888 264 q 682 38 778 88 q 463 -12 586 -12 m 463 197 q 542 218 507 197 q 599 280 578 239 q 621 378 621 321 q 600 474 621 435 q 544 535 579 514 q 463 556 508 556 q 383 535 418 556 q 326 474 347 514 q 304 378 304 435 q 326 280 304 321 q 383 218 347 239 q 463 197 418 197 m 410 843 l 149 1054 l 413 1054 l 599 843 l 410 843 z "},"ở":{"ha":925,"x_min":38,"x_max":888,"o":"m 463 -12 q 243 38 339 -12 q 92 176 147 88 q 38 378 38 264 q 92 579 38 492 q 244 716 147 667 q 465 765 342 765 q 530 763 501 765 q 583 756 558 760 q 629 753 607 753 q 690 777 669 753 q 710 840 710 801 q 701 885 710 864 q 679 921 692 907 l 831 976 q 867 910 853 946 q 881 829 881 874 q 847 708 881 760 q 751 627 813 656 q 610 599 689 599 q 537 603 572 599 q 471 613 501 607 l 644 731 q 822 594 757 688 q 888 378 888 501 q 833 176 888 264 q 682 38 778 88 q 463 -12 586 -12 m 463 197 q 542 218 507 197 q 599 280 578 239 q 621 378 621 321 q 600 474 621 435 q 544 535 579 514 q 463 556 508 556 q 383 535 418 556 q 326 474 347 514 q 304 378 304 435 q 326 280 304 321 q 383 218 347 239 q 463 197 418 197 m 513 829 l 432 910 q 486 949 472 929 q 500 990 500 969 q 483 1031 500 1017 q 438 1046 465 1046 q 357 1018 397 1046 l 303 1121 q 379 1159 336 1146 q 467 1172 422 1172 q 598 1128 547 1172 q 649 1013 649 1083 q 614 904 649 949 q 513 829 579 860 z "},"ỡ":{"ha":921,"x_min":38,"x_max":888,"o":"m 533 833 q 478 847 503 833 q 435 876 454 860 q 399 906 415 893 q 367 919 382 919 q 329 900 343 919 q 313 846 315 881 l 207 846 q 247 1007 208 947 q 353 1067 286 1067 q 408 1054 383 1067 q 451 1024 432 1042 q 488 994 471 1007 q 519 982 504 982 q 556 1001 542 982 q 574 1051 571 1019 l 679 1051 q 639 894 678 954 q 533 833 600 833 m 463 -12 q 243 38 339 -12 q 92 176 147 88 q 38 378 38 264 q 92 579 38 492 q 244 716 147 667 q 465 765 342 765 q 530 763 501 765 q 583 756 558 760 q 629 753 607 753 q 690 777 669 753 q 710 840 710 801 q 701 885 710 864 q 679 921 692 907 l 831 976 q 867 910 853 946 q 881 829 881 874 q 847 708 881 760 q 751 627 813 656 q 610 599 689 599 q 537 603 572 599 q 471 613 501 607 l 644 731 q 822 594 757 688 q 888 378 888 501 q 833 176 888 264 q 682 38 778 88 q 463 -12 586 -12 m 463 197 q 542 218 507 197 q 599 280 578 239 q 621 378 621 321 q 600 474 621 435 q 544 535 579 514 q 463 556 508 556 q 383 535 418 556 q 326 474 347 514 q 304 378 304 435 q 326 280 304 321 q 383 218 347 239 q 463 197 418 197 z "},"ő":{"ha":925,"x_min":38,"x_max":888,"o":"m 463 -12 q 243 38 339 -12 q 92 176 147 88 q 38 378 38 264 q 92 579 38 492 q 243 716 147 667 q 463 765 339 765 q 683 716 586 765 q 833 579 779 667 q 888 378 888 492 q 833 176 888 264 q 683 38 779 88 q 463 -12 586 -12 m 463 197 q 544 218 508 197 q 600 280 579 239 q 621 378 621 321 q 600 474 621 435 q 544 535 579 514 q 463 556 508 556 q 383 535 418 556 q 326 474 347 514 q 304 378 304 435 q 326 280 304 321 q 383 218 347 239 q 463 197 418 197 m 519 843 l 606 1054 l 842 1054 l 703 843 l 519 843 m 217 843 l 304 1054 l 540 1054 l 400 843 l 217 843 z "},"ȏ":{"ha":925,"x_min":38,"x_max":888,"o":"m 463 -12 q 243 38 339 -12 q 92 176 147 88 q 38 378 38 264 q 92 579 38 492 q 243 716 147 667 q 463 765 339 765 q 683 716 586 765 q 833 579 779 667 q 888 378 888 492 q 833 176 888 264 q 683 38 779 88 q 463 -12 586 -12 m 463 197 q 544 218 508 197 q 600 280 579 239 q 621 378 621 321 q 600 474 621 435 q 544 535 579 514 q 463 556 508 556 q 383 535 418 556 q 326 474 347 514 q 304 378 304 435 q 326 280 304 321 q 383 218 347 239 q 463 197 418 197 m 188 843 q 267 1007 192 947 q 460 1067 343 1067 q 652 1007 576 1067 q 732 843 728 947 l 571 843 q 538 910 569 885 q 460 935 506 935 q 383 910 414 935 q 349 843 351 885 l 188 843 z "},"ō":{"ha":925,"x_min":38,"x_max":888,"o":"m 463 -12 q 243 38 339 -12 q 92 176 147 88 q 38 378 38 264 q 92 579 38 492 q 243 716 147 667 q 463 765 339 765 q 683 716 586 765 q 833 579 779 667 q 888 378 888 492 q 833 176 888 264 q 683 38 779 88 q 463 -12 586 -12 m 463 197 q 544 218 508 197 q 600 280 579 239 q 621 378 621 321 q 600 474 621 435 q 544 535 579 514 q 463 556 508 556 q 383 535 418 556 q 326 474 347 514 q 304 378 304 435 q 326 280 304 321 q 383 218 347 239 q 463 197 418 197 m 186 878 l 186 1019 l 733 1019 l 733 878 l 186 878 z "},"ṓ":{"ha":925,"x_min":38,"x_max":888,"o":"m 463 -12 q 243 38 339 -12 q 92 176 147 88 q 38 378 38 264 q 92 579 38 492 q 243 716 147 667 q 463 765 339 765 q 683 716 586 765 q 833 579 779 667 q 888 378 888 492 q 833 176 888 264 q 683 38 779 88 q 463 -12 586 -12 m 463 197 q 544 218 508 197 q 600 280 579 239 q 621 378 621 321 q 600 474 621 435 q 544 535 579 514 q 463 556 508 556 q 383 535 418 556 q 326 474 347 514 q 304 378 304 435 q 326 280 304 321 q 383 218 347 239 q 463 197 418 197 z "},"ṑ":{"ha":925,"x_min":38,"x_max":888,"o":"m 463 -12 q 243 38 339 -12 q 92 176 147 88 q 38 378 38 264 q 92 579 38 492 q 243 716 147 667 q 463 765 339 765 q 683 716 586 765 q 833 579 779 667 q 888 378 888 492 q 833 176 888 264 q 683 38 779 88 q 463 -12 586 -12 m 463 197 q 544 218 508 197 q 600 280 579 239 q 621 378 621 321 q 600 474 621 435 q 544 535 579 514 q 463 556 508 556 q 383 535 418 556 q 326 474 347 514 q 304 378 304 435 q 326 280 304 321 q 383 218 347 239 q 463 197 418 197 z "},"ǫ":{"ha":925,"x_min":38,"x_max":888,"o":"m 506 -328 q 354 -283 408 -328 q 300 -165 300 -237 q 325 -76 300 -118 q 399 0 350 -33 q 521 53 449 33 l 531 -7 q 496 -10 513 -8 q 463 -12 479 -12 q 243 38 339 -12 q 92 176 147 88 q 38 378 38 264 q 92 579 38 492 q 243 716 147 667 q 463 765 339 765 q 683 716 586 765 q 833 579 779 667 q 888 378 888 492 q 819 157 888 251 q 635 17 750 63 q 526 -37 564 -10 q 474 -90 489 -64 q 460 -140 460 -115 q 479 -185 460 -167 q 538 -203 499 -203 q 582 -197 560 -203 q 619 -182 604 -190 l 654 -296 q 588 -319 629 -310 q 506 -328 547 -328 m 463 197 q 544 218 508 197 q 600 280 579 239 q 621 378 621 321 q 600 474 621 435 q 544 535 579 514 q 463 556 508 556 q 383 535 418 556 q 326 474 347 514 q 304 378 304 435 q 326 280 304 321 q 383 218 347 239 q 463 197 418 197 z "},"ø":{"ha":925,"x_min":38,"x_max":888,"o":"m 463 -12 q 243 38 339 -12 q 92 176 147 88 q 38 378 38 264 q 92 579 38 492 q 243 716 147 667 q 463 765 339 765 q 683 716 586 765 q 833 579 779 667 q 888 378 888 492 q 833 176 888 264 q 683 38 779 88 q 463 -12 586 -12 m 463 197 q 544 218 508 197 q 600 280 579 239 q 621 378 621 321 q 600 474 621 435 q 544 535 579 514 q 463 556 508 556 q 383 535 418 556 q 326 474 347 514 q 304 378 304 435 q 326 280 304 321 q 383 218 347 239 q 463 197 418 197 m 93 -97 l 706 843 l 825 843 l 213 -97 l 93 -97 z "},"ǿ":{"ha":925,"x_min":38,"x_max":888,"o":"m 463 -12 q 243 38 339 -12 q 92 176 147 88 q 38 378 38 264 q 92 579 38 492 q 243 716 147 667 q 463 765 339 765 q 683 716 586 765 q 833 579 779 667 q 888 378 888 492 q 833 176 888 264 q 683 38 779 88 q 463 -12 586 -12 m 463 197 q 544 218 508 197 q 600 280 579 239 q 621 378 621 321 q 600 474 621 435 q 544 535 579 514 q 463 556 508 556 q 383 535 418 556 q 326 474 347 514 q 304 378 304 435 q 326 280 304 321 q 383 218 347 239 q 463 197 418 197 m 93 -97 l 706 843 l 825 843 l 213 -97 l 93 -97 m 319 843 l 506 1054 l 769 1054 l 508 843 l 319 843 z "},"õ":{"ha":925,"x_min":38,"x_max":888,"o":"m 463 -12 q 243 38 339 -12 q 92 176 147 88 q 38 378 38 264 q 92 579 38 492 q 243 716 147 667 q 463 765 339 765 q 683 716 586 765 q 833 579 779 667 q 888 378 888 492 q 833 176 888 264 q 683 38 779 88 q 463 -12 586 -12 m 463 197 q 544 218 508 197 q 600 280 579 239 q 621 378 621 321 q 600 474 621 435 q 544 535 579 514 q 463 556 508 556 q 383 535 418 556 q 326 474 347 514 q 304 378 304 435 q 326 280 304 321 q 383 218 347 239 q 463 197 418 197 m 568 833 q 502 847 531 833 q 450 876 474 860 q 407 906 426 893 q 368 919 388 919 q 324 900 340 919 q 304 846 307 881 l 175 846 q 224 1007 178 947 q 351 1067 271 1067 q 418 1054 389 1067 q 470 1024 447 1042 q 513 994 493 1007 q 551 982 533 982 q 597 1001 579 982 q 615 1051 614 1019 l 744 1051 q 696 894 743 954 q 568 833 649 833 z "},"ṍ":{"ha":925,"x_min":38,"x_max":888,"o":"m 463 -12 q 243 38 339 -12 q 92 176 147 88 q 38 378 38 264 q 92 579 38 492 q 243 716 147 667 q 463 765 339 765 q 683 716 586 765 q 833 579 779 667 q 888 378 888 492 q 833 176 888 264 q 683 38 779 88 q 463 -12 586 -12 m 463 197 q 544 218 508 197 q 600 280 579 239 q 621 378 621 321 q 600 474 621 435 q 544 535 579 514 q 463 556 508 556 q 383 535 418 556 q 326 474 347 514 q 304 378 304 435 q 326 280 304 321 q 383 218 347 239 q 463 197 418 197 z "},"ṏ":{"ha":925,"x_min":38,"x_max":888,"o":"m 463 -12 q 243 38 339 -12 q 92 176 147 88 q 38 378 38 264 q 92 579 38 492 q 243 716 147 667 q 463 765 339 765 q 683 716 586 765 q 833 579 779 667 q 888 378 888 492 q 833 176 888 264 q 683 38 779 88 q 463 -12 586 -12 m 463 197 q 544 218 508 197 q 600 280 579 239 q 621 378 621 321 q 600 474 621 435 q 544 535 579 514 q 463 556 508 556 q 383 535 418 556 q 326 474 347 514 q 304 378 304 435 q 326 280 304 321 q 383 218 347 239 q 463 197 418 197 z "},"ȭ":{"ha":925,"x_min":38,"x_max":888,"o":"m 463 -12 q 243 38 339 -12 q 92 176 147 88 q 38 378 38 264 q 92 579 38 492 q 243 716 147 667 q 463 765 339 765 q 683 716 586 765 q 833 579 779 667 q 888 378 888 492 q 833 176 888 264 q 683 38 779 88 q 463 -12 586 -12 m 463 197 q 544 218 508 197 q 600 280 579 239 q 621 378 621 321 q 600 474 621 435 q 544 535 579 514 q 463 556 508 556 q 383 535 418 556 q 326 474 347 514 q 304 378 304 435 q 326 280 304 321 q 383 218 347 239 q 463 197 418 197 z "},"œ":{"ha":1476,"x_min":38,"x_max":1439,"o":"m 458 -12 q 242 38 338 -12 q 92 176 147 88 q 38 378 38 264 q 92 579 38 492 q 242 716 147 667 q 458 765 338 765 q 669 716 581 765 q 805 579 757 667 q 853 378 853 492 q 805 176 853 264 q 669 38 757 88 q 458 -12 581 -12 m 463 197 q 544 218 508 197 q 600 280 579 239 q 621 378 621 321 q 600 474 621 435 q 544 535 579 514 q 463 556 508 556 q 383 535 418 556 q 326 474 347 514 q 304 378 304 435 q 326 280 304 321 q 383 218 347 239 q 463 197 418 197 m 1064 -12 q 838 38 932 -12 q 693 177 743 89 q 643 378 643 265 q 692 578 643 490 q 831 716 742 667 q 1036 765 919 765 q 1238 720 1146 765 q 1384 588 1329 675 q 1439 378 1439 501 q 1438 342 1439 360 q 1435 310 1438 325 l 857 310 l 857 449 l 1249 449 l 1192 410 q 1173 499 1192 461 q 1119 557 1154 536 q 1036 578 1083 578 q 952 557 988 578 q 897 498 917 536 q 876 408 876 460 l 876 368 q 899 272 876 313 q 967 210 922 232 q 1071 189 1011 189 q 1163 205 1122 189 q 1242 254 1203 221 l 1385 110 q 1247 19 1329 50 q 1064 -12 1164 -12 z "},"p":{"ha":965,"x_min":85,"x_max":928,"o":"m 558 -12 q 394 30 463 -12 q 291 158 326 72 q 256 376 256 243 q 289 597 256 511 q 390 724 322 682 q 558 765 457 765 q 745 717 661 765 q 878 583 829 669 q 928 376 928 496 q 878 169 928 257 q 745 35 829 82 q 558 -12 661 -12 m 85 -269 l 85 753 l 336 753 l 336 625 l 335 376 l 349 126 l 349 -269 l 85 -269 m 503 197 q 583 218 547 197 q 640 279 618 239 q 661 376 661 319 q 640 474 661 433 q 583 535 618 514 q 503 556 547 556 q 423 535 458 556 q 366 474 388 514 q 344 376 344 433 q 366 279 344 319 q 423 218 388 239 q 503 197 458 197 z "},"þ":{"ha":965,"x_min":85,"x_max":928,"o":"m 558 -12 q 394 30 463 -12 q 291 158 326 72 q 256 376 256 243 q 289 597 256 511 q 390 724 322 682 q 558 765 457 765 q 745 717 661 765 q 878 583 829 669 q 928 376 928 496 q 878 169 928 257 q 745 35 829 82 q 558 -12 661 -12 m 85 -269 l 85 1031 l 349 1031 l 349 625 l 335 376 l 349 126 l 349 -269 l 85 -269 m 503 197 q 583 218 547 197 q 640 279 618 239 q 661 376 661 319 q 640 474 661 433 q 583 535 618 514 q 503 556 547 556 q 423 535 458 556 q 366 474 388 514 q 344 376 344 433 q 366 279 344 319 q 423 218 388 239 q 503 197 458 197 z "},"q":{"ha":965,"x_min":38,"x_max":881,"o":"m 407 -12 q 221 35 306 -12 q 87 169 136 82 q 38 376 38 257 q 87 583 38 496 q 221 717 136 669 q 407 765 306 765 q 576 724 510 765 q 676 597 643 682 q 710 376 710 511 q 674 158 710 243 q 572 30 639 72 q 407 -12 504 -12 m 463 197 q 542 218 507 197 q 599 279 578 239 q 621 376 621 319 q 599 474 621 433 q 542 535 578 514 q 463 556 507 556 q 383 535 418 556 q 326 474 347 514 q 304 376 304 433 q 326 279 304 319 q 383 218 347 239 q 463 197 418 197 m 617 -269 l 617 126 l 631 376 l 629 625 l 629 753 l 881 753 l 881 -269 l 617 -269 z "},"r":{"ha":615,"x_min":85,"x_max":589,"o":"m 85 0 l 85 753 l 336 753 l 336 533 l 299 596 q 407 723 332 681 q 589 765 482 765 l 589 528 q 558 531 571 531 q 529 532 544 532 q 399 488 449 532 q 349 346 349 444 l 349 0 l 85 0 z "},"ŕ":{"ha":615,"x_min":85,"x_max":650,"o":"m 85 0 l 85 753 l 336 753 l 336 533 l 299 596 q 407 723 332 681 q 589 765 482 765 l 589 528 q 558 531 571 531 q 529 532 544 532 q 399 488 449 532 q 349 346 349 444 l 349 0 l 85 0 m 200 843 l 386 1054 l 650 1054 l 389 843 l 200 843 z "},"ř":{"ha":615,"x_min":42,"x_max":631,"o":"m 85 0 l 85 753 l 336 753 l 336 533 l 299 596 q 407 723 332 681 q 589 765 482 765 l 589 528 q 558 531 571 531 q 529 532 544 532 q 399 488 449 532 q 349 346 349 444 l 349 0 l 85 0 m 222 843 l 42 1054 l 217 1054 l 413 882 l 260 882 l 456 1054 l 631 1054 l 450 843 l 222 843 z "},"ŗ":{"ha":615,"x_min":85,"x_max":589,"o":"m 85 0 l 85 753 l 336 753 l 336 533 l 299 596 q 407 723 332 681 q 589 765 482 765 l 589 528 q 558 531 571 531 q 529 532 544 532 q 399 488 449 532 q 349 346 349 444 l 349 0 l 85 0 m 126 -372 l 188 -183 l 217 -271 q 135 -246 163 -271 q 107 -179 107 -221 q 136 -112 107 -137 q 217 -86 165 -86 q 297 -112 268 -86 q 326 -179 326 -137 q 321 -222 326 -197 q 297 -279 315 -246 l 246 -372 l 126 -372 z "},"ȑ":{"ha":615,"x_min":-46,"x_max":589,"o":"m 85 0 l 85 753 l 336 753 l 336 533 l 299 596 q 407 723 332 681 q 589 765 482 765 l 589 528 q 558 531 571 531 q 529 532 544 532 q 399 488 449 532 q 349 346 349 444 l 349 0 l 85 0 m 396 843 l 256 1054 l 492 1054 l 579 843 l 396 843 m 93 843 l -46 1054 l 190 1054 l 276 843 l 93 843 z "},"ṛ":{"ha":615,"x_min":85,"x_max":589,"o":"m 85 0 l 85 753 l 336 753 l 336 533 l 299 596 q 407 723 332 681 q 589 765 482 765 l 589 528 q 558 531 571 531 q 529 532 544 532 q 399 488 449 532 q 349 346 349 444 l 349 0 l 85 0 m 217 -303 q 139 -274 171 -303 q 107 -196 107 -244 q 139 -117 107 -147 q 217 -86 171 -86 q 294 -117 263 -86 q 326 -196 326 -147 q 294 -274 326 -244 q 217 -303 263 -303 z "},"ȓ":{"ha":615,"x_min":64,"x_max":608,"o":"m 85 0 l 85 753 l 336 753 l 336 533 l 299 596 q 407 723 332 681 q 589 765 482 765 l 589 528 q 558 531 571 531 q 529 532 544 532 q 399 488 449 532 q 349 346 349 444 l 349 0 l 85 0 m 64 843 q 144 1007 68 947 q 336 1067 219 1067 q 528 1007 453 1067 q 608 843 604 947 l 447 843 q 414 910 446 885 q 336 935 382 935 q 259 910 290 935 q 225 843 228 885 l 64 843 z "},"ṟ":{"ha":615,"x_min":-56,"x_max":589,"o":"m 85 0 l 85 753 l 336 753 l 336 533 l 299 596 q 407 723 332 681 q 589 765 482 765 l 589 528 q 558 531 571 531 q 529 532 544 532 q 399 488 449 532 q 349 346 349 444 l 349 0 l 85 0 m -57 -260 l -57 -118 l 490 -118 l 490 -260 l -57 -260 z "},"s":{"ha":760,"x_min":25,"x_max":731,"o":"m 358 -12 q 172 10 263 -12 q 25 65 81 32 l 104 246 q 228 195 157 214 q 367 176 299 176 q 459 190 433 176 q 485 228 485 204 q 460 260 485 250 q 397 276 436 271 q 310 289 357 282 q 215 308 263 296 q 127 344 167 319 q 64 410 88 368 q 40 515 40 451 q 83 644 40 588 q 207 733 125 700 q 407 765 289 765 q 567 749 486 765 q 704 701 649 733 l 625 522 q 514 566 569 554 q 408 578 458 578 q 315 563 342 578 q 288 525 288 547 q 311 491 288 503 q 374 473 335 479 q 461 460 414 467 q 556 442 508 454 q 644 405 604 429 q 707 340 683 381 q 731 235 731 299 q 688 110 731 165 q 563 21 646 54 q 358 -12 481 -12 z "},"ś":{"ha":760,"x_min":25,"x_max":731,"o":"m 358 -12 q 172 10 263 -12 q 25 65 81 32 l 104 246 q 228 195 157 214 q 367 176 299 176 q 459 190 433 176 q 485 228 485 204 q 460 260 485 250 q 397 276 436 271 q 310 289 357 282 q 215 308 263 296 q 127 344 167 319 q 64 410 88 368 q 40 515 40 451 q 83 644 40 588 q 207 733 125 700 q 407 765 289 765 q 567 749 486 765 q 704 701 649 733 l 625 522 q 514 566 569 554 q 408 578 458 578 q 315 563 342 578 q 288 525 288 547 q 311 491 288 503 q 374 473 335 479 q 461 460 414 467 q 556 442 508 454 q 644 405 604 429 q 707 340 683 381 q 731 235 731 299 q 688 110 731 165 q 563 21 646 54 q 358 -12 481 -12 m 236 843 l 422 1054 l 686 1054 l 425 843 l 236 843 z "},"ṥ":{"ha":760,"x_min":25,"x_max":731,"o":"m 358 -12 q 172 10 263 -12 q 25 65 81 32 l 104 246 q 228 195 157 214 q 367 176 299 176 q 459 190 433 176 q 485 228 485 204 q 460 260 485 250 q 397 276 436 271 q 310 289 357 282 q 215 308 263 296 q 127 344 167 319 q 64 410 88 368 q 40 515 40 451 q 83 644 40 588 q 207 733 125 700 q 407 765 289 765 q 567 749 486 765 q 704 701 649 733 l 625 522 q 514 566 569 554 q 408 578 458 578 q 315 563 342 578 q 288 525 288 547 q 311 491 288 503 q 374 473 335 479 q 461 460 414 467 q 556 442 508 454 q 644 405 604 429 q 707 340 683 381 q 731 235 731 299 q 688 110 731 165 q 563 21 646 54 q 358 -12 481 -12 z "},"ꞌ":{"ha":433,"x_min":86,"x_max":347,"o":"m 86 411 l 86 958 l 347 958 l 313 411 l 86 411 z "},"š":{"ha":760,"x_min":25,"x_max":731,"o":"m 358 -12 q 172 10 263 -12 q 25 65 81 32 l 104 246 q 228 195 157 214 q 367 176 299 176 q 459 190 433 176 q 485 228 485 204 q 460 260 485 250 q 397 276 436 271 q 310 289 357 282 q 215 308 263 296 q 127 344 167 319 q 64 410 88 368 q 40 515 40 451 q 83 644 40 588 q 207 733 125 700 q 407 765 289 765 q 567 749 486 765 q 704 701 649 733 l 625 522 q 514 566 569 554 q 408 578 458 578 q 315 563 342 578 q 288 525 288 547 q 311 491 288 503 q 374 473 335 479 q 461 460 414 467 q 556 442 508 454 q 644 405 604 429 q 707 340 683 381 q 731 235 731 299 q 688 110 731 165 q 563 21 646 54 q 358 -12 481 -12 m 258 843 l 78 1054 l 253 1054 l 449 882 l 296 882 l 492 1054 l 667 1054 l 486 843 l 258 843 z "},"ṧ":{"ha":760,"x_min":25,"x_max":731,"o":"m 358 -12 q 172 10 263 -12 q 25 65 81 32 l 104 246 q 228 195 157 214 q 367 176 299 176 q 459 190 433 176 q 485 228 485 204 q 460 260 485 250 q 397 276 436 271 q 310 289 357 282 q 215 308 263 296 q 127 344 167 319 q 64 410 88 368 q 40 515 40 451 q 83 644 40 588 q 207 733 125 700 q 407 765 289 765 q 567 749 486 765 q 704 701 649 733 l 625 522 q 514 566 569 554 q 408 578 458 578 q 315 563 342 578 q 288 525 288 547 q 311 491 288 503 q 374 473 335 479 q 461 460 414 467 q 556 442 508 454 q 644 405 604 429 q 707 340 683 381 q 731 235 731 299 q 688 110 731 165 q 563 21 646 54 q 358 -12 481 -12 z "},"ş":{"ha":760,"x_min":25,"x_max":731,"o":"m 358 -12 q 172 10 263 -12 q 25 65 81 32 l 104 246 q 228 195 157 214 q 367 176 299 176 q 459 190 433 176 q 485 228 485 204 q 460 260 485 250 q 397 276 436 271 q 310 289 357 282 q 215 308 263 296 q 127 344 167 319 q 64 410 88 368 q 40 515 40 451 q 83 644 40 588 q 207 733 125 700 q 407 765 289 765 q 567 749 486 765 q 704 701 649 733 l 625 522 q 514 566 569 554 q 408 578 458 578 q 315 563 342 578 q 288 525 288 547 q 311 491 288 503 q 374 473 335 479 q 461 460 414 467 q 556 442 508 454 q 644 405 604 429 q 707 340 683 381 q 731 235 731 299 q 688 110 731 165 q 563 21 646 54 q 358 -12 481 -12 m 321 -328 q 249 -319 286 -328 q 189 -299 213 -311 l 225 -194 q 265 -208 243 -203 q 311 -214 286 -214 q 365 -203 349 -214 q 381 -175 381 -192 q 366 -149 381 -158 q 318 -140 351 -140 l 267 -140 l 303 13 l 440 13 l 421 -71 q 513 -111 485 -78 q 540 -183 540 -144 q 481 -289 540 -250 q 321 -328 421 -328 z "},"ŝ":{"ha":760,"x_min":25,"x_max":731,"o":"m 358 -12 q 172 10 263 -12 q 25 65 81 32 l 104 246 q 228 195 157 214 q 367 176 299 176 q 459 190 433 176 q 485 228 485 204 q 460 260 485 250 q 397 276 436 271 q 310 289 357 282 q 215 308 263 296 q 127 344 167 319 q 64 410 88 368 q 40 515 40 451 q 83 644 40 588 q 207 733 125 700 q 407 765 289 765 q 567 749 486 765 q 704 701 649 733 l 625 522 q 514 566 569 554 q 408 578 458 578 q 315 563 342 578 q 288 525 288 547 q 311 491 288 503 q 374 473 335 479 q 461 460 414 467 q 556 442 508 454 q 644 405 604 429 q 707 340 683 381 q 731 235 731 299 q 688 110 731 165 q 563 21 646 54 q 358 -12 481 -12 m 78 843 l 258 1054 l 486 1054 l 667 843 l 492 843 l 296 1017 l 449 1017 l 253 843 l 78 843 z "},"ș":{"ha":760,"x_min":25,"x_max":731,"o":"m 358 -12 q 172 10 263 -12 q 25 65 81 32 l 104 246 q 228 195 157 214 q 367 176 299 176 q 459 190 433 176 q 485 228 485 204 q 460 260 485 250 q 397 276 436 271 q 310 289 357 282 q 215 308 263 296 q 127 344 167 319 q 64 410 88 368 q 40 515 40 451 q 83 644 40 588 q 207 733 125 700 q 407 765 289 765 q 567 749 486 765 q 704 701 649 733 l 625 522 q 514 566 569 554 q 408 578 458 578 q 315 563 342 578 q 288 525 288 547 q 311 491 288 503 q 374 473 335 479 q 461 460 414 467 q 556 442 508 454 q 644 405 604 429 q 707 340 683 381 q 731 235 731 299 q 688 110 731 165 q 563 21 646 54 q 358 -12 481 -12 m 282 -372 l 343 -183 l 372 -271 q 290 -246 318 -271 q 263 -179 263 -221 q 292 -112 263 -137 q 372 -86 321 -86 q 453 -112 424 -86 q 482 -179 482 -137 q 476 -222 482 -197 q 453 -279 471 -246 l 401 -372 l 282 -372 z "},"ṡ":{"ha":760,"x_min":25,"x_max":731,"o":"m 358 -12 q 172 10 263 -12 q 25 65 81 32 l 104 246 q 228 195 157 214 q 367 176 299 176 q 459 190 433 176 q 485 228 485 204 q 460 260 485 250 q 397 276 436 271 q 310 289 357 282 q 215 308 263 296 q 127 344 167 319 q 64 410 88 368 q 40 515 40 451 q 83 644 40 588 q 207 733 125 700 q 407 765 289 765 q 567 749 486 765 q 704 701 649 733 l 625 522 q 514 566 569 554 q 408 578 458 578 q 315 563 342 578 q 288 525 288 547 q 311 491 288 503 q 374 473 335 479 q 461 460 414 467 q 556 442 508 454 q 644 405 604 429 q 707 340 683 381 q 731 235 731 299 q 688 110 731 165 q 563 21 646 54 q 358 -12 481 -12 m 372 840 q 274 878 313 840 q 235 978 235 917 q 274 1076 235 1038 q 372 1114 313 1114 q 471 1076 432 1114 q 510 978 510 1038 q 471 878 510 917 q 372 840 432 840 z "},"ṣ":{"ha":760,"x_min":25,"x_max":731,"o":"m 358 -12 q 172 10 263 -12 q 25 65 81 32 l 104 246 q 228 195 157 214 q 367 176 299 176 q 459 190 433 176 q 485 228 485 204 q 460 260 485 250 q 397 276 436 271 q 310 289 357 282 q 215 308 263 296 q 127 344 167 319 q 64 410 88 368 q 40 515 40 451 q 83 644 40 588 q 207 733 125 700 q 407 765 289 765 q 567 749 486 765 q 704 701 649 733 l 625 522 q 514 566 569 554 q 408 578 458 578 q 315 563 342 578 q 288 525 288 547 q 311 491 288 503 q 374 473 335 479 q 461 460 414 467 q 556 442 508 454 q 644 405 604 429 q 707 340 683 381 q 731 235 731 299 q 688 110 731 165 q 563 21 646 54 q 358 -12 481 -12 m 372 -303 q 294 -274 326 -303 q 263 -196 263 -244 q 294 -117 263 -147 q 372 -86 326 -86 q 450 -117 418 -86 q 482 -196 482 -147 q 450 -274 482 -244 q 372 -303 418 -303 z "},"ṩ":{"ha":760,"x_min":25,"x_max":731,"o":"m 358 -12 q 172 10 263 -12 q 25 65 81 32 l 104 246 q 228 195 157 214 q 367 176 299 176 q 459 190 433 176 q 485 228 485 204 q 460 260 485 250 q 397 276 436 271 q 310 289 357 282 q 215 308 263 296 q 127 344 167 319 q 64 410 88 368 q 40 515 40 451 q 83 644 40 588 q 207 733 125 700 q 407 765 289 765 q 567 749 486 765 q 704 701 649 733 l 625 522 q 514 566 569 554 q 408 578 458 578 q 315 563 342 578 q 288 525 288 547 q 311 491 288 503 q 374 473 335 479 q 461 460 414 467 q 556 442 508 454 q 644 405 604 429 q 707 340 683 381 q 731 235 731 299 q 688 110 731 165 q 563 21 646 54 q 358 -12 481 -12 m 372 -303 q 294 -274 326 -303 q 263 -196 263 -244 q 294 -117 263 -147 q 372 -86 326 -86 q 450 -117 418 -86 q 482 -196 482 -147 q 450 -274 482 -244 q 372 -303 418 -303 m 372 840 q 274 878 313 840 q 235 978 235 917 q 274 1076 235 1038 q 372 1114 313 1114 q 471 1076 432 1114 q 510 978 510 1038 q 471 878 510 917 q 372 840 432 840 z "},"ß":{"ha":976,"x_min":85,"x_max":940,"o":"m 582 -12 q 492 -6 540 -12 q 415 10 444 0 l 443 214 q 492 201 468 206 q 547 197 517 197 q 613 209 586 197 q 656 244 640 221 q 672 299 672 267 q 636 373 672 347 q 535 399 600 399 l 461 399 l 461 601 q 563 637 525 604 q 600 724 600 669 q 568 804 600 774 q 481 835 536 835 q 385 799 421 835 q 349 697 349 764 l 349 0 l 85 0 l 85 664 q 138 874 85 789 q 282 1001 192 958 q 481 1043 372 1043 q 682 1003 599 1043 q 809 897 765 964 q 853 746 853 829 q 824 628 853 681 q 747 540 796 576 q 637 483 697 503 q 515 464 576 464 l 576 575 q 769 542 688 575 q 895 447 850 510 q 940 292 940 383 q 895 128 940 196 q 770 24 850 60 q 582 -12 690 -12 z "}}}
